<svg id="svg" version="1.1" xmlns="http://www.w3.org/2000/svg" xmlns:xlink="http://www.w3.org/1999/xlink" width="400" height="200" viewBox="0, 0, 400,200"><g id="svgg"><path id="path0" d="M232.300 119.600 C 232.232 119.710,231.647 119.800,231.000 119.800 C 230.353 119.800,229.768 119.890,229.700 120.000 C 229.632 120.110,229.227 120.200,228.800 120.200 C 228.373 120.200,227.968 120.290,227.900 120.400 C 227.832 120.510,227.512 120.600,227.188 120.600 C 226.865 120.600,226.600 120.690,226.600 120.800 C 226.600 120.910,226.330 121.000,226.000 121.000 C 225.670 121.000,225.400 121.090,225.400 121.200 C 225.400 121.310,225.180 121.400,224.912 121.400 C 224.643 121.400,224.368 121.490,224.300 121.600 C 224.232 121.710,224.002 121.800,223.788 121.800 C 223.575 121.800,223.400 121.890,223.400 122.000 C 223.400 122.110,223.220 122.200,223.000 122.200 C 222.780 122.200,222.600 122.290,222.600 122.400 C 222.600 122.510,222.482 122.600,222.338 122.600 C 222.193 122.600,221.882 122.780,221.646 123.000 C 221.410 123.220,221.135 123.400,221.036 123.400 C 219.981 123.400,219.391 125.686,220.293 126.277 C 220.845 126.639,221.712 126.705,221.900 126.400 C 221.968 126.290,222.778 126.200,223.700 126.200 C 224.622 126.200,225.432 126.110,225.500 126.000 C 225.572 125.883,226.698 125.800,228.200 125.800 C 229.702 125.800,230.828 125.717,230.900 125.600 C 230.968 125.490,231.643 125.400,232.400 125.400 C 233.157 125.400,233.832 125.490,233.900 125.600 C 233.968 125.710,234.605 125.800,235.315 125.800 C 236.025 125.800,236.762 125.879,236.953 125.977 C 237.144 126.074,237.570 126.276,237.900 126.427 C 238.230 126.577,238.613 126.806,238.750 126.936 C 239.058 127.226,239.102 131.313,238.800 131.500 C 238.690 131.568,238.600 131.928,238.600 132.300 C 238.600 132.672,238.510 133.032,238.400 133.100 C 238.290 133.168,238.200 133.533,238.200 133.912 C 238.200 134.290,238.110 134.600,238.000 134.600 C 237.890 134.600,237.800 134.865,237.800 135.188 C 237.800 135.512,237.710 135.832,237.600 135.900 C 237.490 135.968,237.400 136.238,237.400 136.500 C 237.400 136.762,237.310 137.032,237.200 137.100 C 237.090 137.168,237.000 137.443,237.000 137.712 C 237.000 137.980,236.910 138.200,236.800 138.200 C 236.690 138.200,236.600 138.381,236.600 138.603 C 236.600 138.824,236.510 139.184,236.400 139.403 C 236.290 139.621,236.110 139.979,236.000 140.197 C 235.890 140.416,235.800 140.776,235.800 140.997 C 235.800 141.219,235.710 141.400,235.600 141.400 C 235.490 141.400,235.400 141.575,235.400 141.788 C 235.400 142.002,235.310 142.232,235.200 142.300 C 235.090 142.368,235.000 142.643,235.000 142.912 C 235.000 143.180,234.910 143.400,234.800 143.400 C 234.436 143.400,234.566 145.230,234.950 145.522 C 235.988 146.309,238.916 144.376,240.359 141.950 C 240.539 141.648,240.757 141.400,240.843 141.400 C 240.929 141.400,241.000 141.282,241.000 141.138 C 241.000 140.993,241.157 140.697,241.350 140.479 C 241.794 139.976,242.392 139.004,242.536 138.550 C 242.597 138.358,242.726 138.200,242.823 138.200 C 242.920 138.200,243.000 138.020,243.000 137.800 C 243.000 137.580,243.090 137.400,243.200 137.400 C 243.310 137.400,243.400 137.264,243.400 137.097 C 243.400 136.931,243.490 136.616,243.600 136.397 C 243.710 136.179,243.890 135.821,244.000 135.603 C 244.110 135.384,244.200 135.069,244.200 134.903 C 244.200 134.736,244.290 134.600,244.400 134.600 C 244.510 134.600,244.600 134.330,244.600 134.000 C 244.600 133.670,244.690 133.400,244.800 133.400 C 244.910 133.400,245.000 133.130,245.000 132.800 C 245.000 132.470,245.090 132.200,245.200 132.200 C 245.310 132.200,245.400 131.890,245.400 131.512 C 245.400 131.133,245.490 130.768,245.600 130.700 C 245.710 130.632,245.800 130.222,245.800 129.788 C 245.800 129.355,245.890 129.000,246.000 129.000 C 246.114 129.000,246.200 128.400,246.200 127.600 C 246.200 126.800,246.286 126.200,246.400 126.200 C 246.518 126.200,246.600 125.504,246.600 124.512 C 246.600 123.583,246.510 122.768,246.400 122.700 C 246.290 122.632,246.200 122.350,246.200 122.074 C 246.200 121.411,245.266 120.600,244.503 120.600 C 244.336 120.600,244.200 120.510,244.200 120.400 C 244.200 120.290,243.935 120.200,243.612 120.200 C 243.288 120.200,242.968 120.110,242.900 120.000 C 242.832 119.890,242.292 119.800,241.700 119.800 C 241.108 119.800,240.568 119.710,240.500 119.600 C 240.424 119.478,238.835 119.400,236.400 119.400 C 233.965 119.400,232.376 119.478,232.300 119.600 M107.836 122.702 C 106.927 123.747,107.361 124.607,109.801 126.596 C 110.405 127.089,111.035 127.634,111.200 127.806 C 111.365 127.978,111.815 128.335,112.200 128.600 C 112.585 128.865,113.035 129.225,113.200 129.400 C 113.365 129.575,113.815 129.935,114.200 130.200 C 114.585 130.464,114.945 130.734,115.000 130.800 C 115.055 130.866,115.415 131.137,115.800 131.404 C 116.185 131.671,116.674 132.049,116.888 132.245 C 117.101 132.440,117.360 132.600,117.464 132.600 C 117.568 132.600,117.799 132.758,117.977 132.951 C 118.154 133.145,118.547 133.430,118.850 133.585 C 119.153 133.740,119.400 133.942,119.400 134.034 C 119.400 134.125,119.518 134.200,119.662 134.200 C 119.807 134.200,120.099 134.358,120.312 134.550 C 120.526 134.743,120.947 135.028,121.250 135.184 C 121.553 135.340,121.800 135.542,121.800 135.634 C 121.800 135.725,121.939 135.800,122.108 135.800 C 122.278 135.800,122.610 135.980,122.846 136.200 C 123.082 136.420,123.393 136.600,123.538 136.600 C 123.682 136.600,123.800 136.690,123.800 136.800 C 123.800 136.910,123.939 137.000,124.108 137.000 C 124.278 137.000,124.610 137.180,124.846 137.400 C 125.082 137.620,125.393 137.800,125.538 137.800 C 125.682 137.800,125.800 137.890,125.800 138.000 C 125.800 138.110,125.980 138.200,126.200 138.200 C 126.420 138.200,126.600 138.290,126.600 138.400 C 126.600 138.510,126.772 138.600,126.983 138.600 C 127.194 138.600,127.397 138.667,127.433 138.750 C 127.530 138.968,128.403 139.448,131.000 140.714 C 132.265 141.331,133.456 141.918,133.647 142.018 C 133.838 142.118,134.131 142.200,134.297 142.200 C 134.464 142.200,134.600 142.290,134.600 142.400 C 134.600 142.510,134.780 142.600,135.000 142.600 C 135.220 142.600,135.400 142.690,135.400 142.800 C 135.400 142.910,135.575 143.000,135.788 143.000 C 136.002 143.000,136.232 143.090,136.300 143.200 C 136.368 143.310,136.643 143.400,136.912 143.400 C 137.180 143.400,137.400 143.490,137.400 143.600 C 137.400 143.710,137.575 143.800,137.788 143.800 C 138.002 143.800,138.232 143.890,138.300 144.000 C 138.368 144.110,138.643 144.200,138.912 144.200 C 139.180 144.200,139.400 144.290,139.400 144.400 C 139.400 144.510,139.575 144.600,139.788 144.600 C 140.002 144.600,140.232 144.690,140.300 144.800 C 140.368 144.910,140.638 145.000,140.900 145.000 C 141.162 145.000,141.432 145.090,141.500 145.200 C 141.568 145.310,141.843 145.400,142.112 145.400 C 142.380 145.400,142.600 145.490,142.600 145.600 C 142.600 145.710,142.870 145.800,143.200 145.800 C 143.530 145.800,143.800 145.890,143.800 146.000 C 143.800 146.110,144.070 146.200,144.400 146.200 C 144.730 146.200,145.000 146.290,145.000 146.400 C 145.000 146.510,145.265 146.600,145.588 146.600 C 145.912 146.600,146.232 146.690,146.300 146.800 C 146.368 146.910,146.638 147.000,146.900 147.000 C 147.162 147.000,147.432 147.090,147.500 147.200 C 147.568 147.310,147.933 147.400,148.312 147.400 C 148.690 147.400,149.000 147.490,149.000 147.600 C 149.000 147.710,149.310 147.800,149.688 147.800 C 150.067 147.800,150.432 147.890,150.500 148.000 C 150.568 148.110,150.928 148.200,151.300 148.200 C 151.672 148.200,152.032 148.290,152.100 148.400 C 152.168 148.510,152.578 148.600,153.012 148.600 C 153.445 148.600,153.800 148.690,153.800 148.800 C 153.800 148.910,154.200 149.000,154.688 149.000 C 155.177 149.000,155.632 149.090,155.700 149.200 C 155.768 149.310,156.268 149.400,156.812 149.400 C 157.355 149.400,157.800 149.490,157.800 149.600 C 157.800 149.710,158.290 149.800,158.888 149.800 C 159.487 149.800,160.032 149.890,160.100 150.000 C 160.168 150.110,160.753 150.200,161.400 150.200 C 162.047 150.200,162.632 150.290,162.700 150.400 C 162.768 150.510,163.578 150.600,164.500 150.600 C 165.422 150.600,166.232 150.690,166.300 150.800 C 166.372 150.917,167.531 151.000,169.100 151.000 C 170.669 151.000,171.828 151.083,171.900 151.200 C 171.977 151.324,173.802 151.400,176.712 151.400 C 179.704 151.400,181.400 151.328,181.400 151.200 C 181.400 151.077,182.429 151.000,184.088 151.000 C 185.665 151.000,186.828 150.917,186.900 150.800 C 186.968 150.690,187.733 150.600,188.600 150.600 C 189.467 150.600,190.232 150.510,190.300 150.400 C 190.368 150.290,191.003 150.200,191.712 150.200 C 192.437 150.200,193.000 150.113,193.000 150.000 C 193.000 149.890,193.490 149.800,194.088 149.800 C 194.687 149.800,195.232 149.710,195.300 149.600 C 195.368 149.490,195.868 149.400,196.412 149.400 C 196.955 149.400,197.400 149.310,197.400 149.200 C 197.400 149.090,197.800 149.000,198.288 149.000 C 198.777 149.000,199.232 148.910,199.300 148.800 C 199.368 148.690,199.778 148.600,200.212 148.600 C 200.645 148.600,201.000 148.510,201.000 148.400 C 201.000 148.290,201.360 148.200,201.800 148.200 C 202.240 148.200,202.600 148.110,202.600 148.000 C 202.600 147.890,202.960 147.800,203.400 147.800 C 203.840 147.800,204.200 147.710,204.200 147.600 C 204.200 147.490,204.510 147.400,204.888 147.400 C 205.267 147.400,205.632 147.310,205.700 147.200 C 205.768 147.090,206.088 147.000,206.412 147.000 C 206.735 147.000,207.000 146.910,207.000 146.800 C 207.000 146.690,207.265 146.600,207.588 146.600 C 207.912 146.600,208.232 146.510,208.300 146.400 C 208.368 146.290,208.638 146.200,208.900 146.200 C 209.162 146.200,209.432 146.110,209.500 146.000 C 209.568 145.890,209.838 145.800,210.100 145.800 C 210.362 145.800,210.632 145.710,210.700 145.600 C 210.768 145.490,211.043 145.400,211.312 145.400 C 211.580 145.400,211.800 145.310,211.800 145.200 C 211.800 145.090,212.070 145.000,212.400 145.000 C 212.730 145.000,213.000 144.910,213.000 144.800 C 213.000 144.690,213.220 144.600,213.488 144.600 C 213.757 144.600,214.032 144.510,214.100 144.400 C 214.168 144.290,214.398 144.200,214.612 144.200 C 214.825 144.200,215.000 144.110,215.000 144.000 C 215.000 143.890,215.220 143.800,215.488 143.800 C 215.757 143.800,216.032 143.710,216.100 143.600 C 216.168 143.490,216.398 143.400,216.612 143.400 C 216.825 143.400,217.000 143.310,217.000 143.200 C 217.000 143.090,217.136 143.000,217.303 143.000 C 217.469 143.000,217.784 142.910,218.003 142.800 C 218.221 142.690,218.579 142.510,218.797 142.400 C 219.016 142.290,219.331 142.200,219.497 142.200 C 219.664 142.200,219.800 142.110,219.800 142.000 C 219.800 141.890,219.980 141.800,220.200 141.800 C 220.420 141.800,220.600 141.710,220.600 141.600 C 220.600 141.490,220.780 141.400,221.000 141.400 C 221.220 141.400,221.400 141.310,221.400 141.200 C 221.400 141.090,221.580 141.000,221.800 141.000 C 222.020 141.000,222.200 140.910,222.200 140.800 C 222.200 140.690,222.380 140.600,222.600 140.600 C 222.820 140.600,223.000 140.510,223.000 140.400 C 223.000 140.290,223.180 140.200,223.400 140.200 C 223.620 140.200,223.800 140.110,223.800 140.000 C 223.800 139.890,223.972 139.800,224.183 139.800 C 224.394 139.800,224.597 139.733,224.633 139.650 C 224.717 139.462,225.782 138.813,226.250 138.664 C 226.443 138.603,226.600 138.474,226.600 138.377 C 226.600 138.280,226.780 138.200,227.000 138.200 C 227.220 138.200,227.400 138.110,227.400 138.000 C 227.400 137.890,227.518 137.800,227.662 137.800 C 227.807 137.800,228.118 137.620,228.354 137.400 C 228.590 137.180,228.922 137.000,229.092 137.000 C 229.261 137.000,229.400 136.925,229.400 136.834 C 229.400 136.742,229.648 136.540,229.950 136.384 C 230.253 136.228,230.674 135.942,230.888 135.750 C 231.101 135.558,231.374 135.400,231.494 135.400 C 231.614 135.400,231.841 135.220,232.000 135.000 C 232.159 134.780,232.394 134.600,232.524 134.600 C 233.907 134.600,234.794 131.376,233.709 130.291 C 233.185 129.767,230.384 129.541,230.100 130.000 C 230.032 130.110,229.757 130.200,229.488 130.200 C 229.220 130.200,229.000 130.290,229.000 130.400 C 229.000 130.510,228.864 130.600,228.697 130.600 C 228.531 130.600,228.238 130.679,228.047 130.777 C 227.856 130.874,227.430 131.064,227.100 131.200 C 226.770 131.336,226.344 131.526,226.153 131.623 C 225.962 131.721,225.624 131.800,225.403 131.800 C 225.181 131.800,225.000 131.890,225.000 132.000 C 225.000 132.110,224.780 132.200,224.512 132.200 C 224.243 132.200,223.968 132.290,223.900 132.400 C 223.832 132.510,223.562 132.600,223.300 132.600 C 223.038 132.600,222.768 132.690,222.700 132.800 C 222.632 132.910,222.400 133.000,222.185 133.000 C 221.970 133.000,221.616 133.090,221.397 133.200 C 221.179 133.310,220.821 133.490,220.603 133.600 C 220.384 133.710,219.985 133.800,219.715 133.800 C 219.445 133.800,219.168 133.890,219.100 134.000 C 219.032 134.110,218.762 134.200,218.500 134.200 C 218.238 134.200,217.968 134.290,217.900 134.400 C 217.832 134.510,217.562 134.600,217.300 134.600 C 217.038 134.600,216.768 134.690,216.700 134.800 C 216.632 134.910,216.317 135.000,216.000 135.000 C 215.683 135.000,215.368 135.090,215.300 135.200 C 215.232 135.310,214.917 135.400,214.600 135.400 C 214.283 135.400,213.968 135.490,213.900 135.600 C 213.832 135.710,213.472 135.800,213.100 135.800 C 212.728 135.800,212.368 135.890,212.300 136.000 C 212.232 136.110,211.917 136.200,211.600 136.200 C 211.283 136.200,210.968 136.290,210.900 136.400 C 210.832 136.510,210.427 136.600,210.000 136.600 C 209.573 136.600,209.168 136.690,209.100 136.800 C 209.032 136.910,208.672 137.000,208.300 137.000 C 207.928 137.000,207.568 137.090,207.500 137.200 C 207.432 137.310,207.027 137.400,206.600 137.400 C 206.173 137.400,205.768 137.490,205.700 137.600 C 205.632 137.710,205.182 137.800,204.700 137.800 C 204.218 137.800,203.768 137.890,203.700 138.000 C 203.632 138.110,203.137 138.200,202.600 138.200 C 202.063 138.200,201.568 138.290,201.500 138.400 C 201.432 138.510,200.937 138.600,200.400 138.600 C 199.863 138.600,199.368 138.690,199.300 138.800 C 199.232 138.910,198.647 139.000,198.000 139.000 C 197.353 139.000,196.768 139.090,196.700 139.200 C 196.632 139.310,195.912 139.400,195.100 139.400 C 194.288 139.400,193.568 139.490,193.500 139.600 C 193.432 139.710,192.622 139.800,191.700 139.800 C 190.778 139.800,189.968 139.890,189.900 140.000 C 189.827 140.118,188.635 140.200,187.000 140.200 C 185.365 140.200,184.173 140.282,184.100 140.400 C 183.932 140.672,172.668 140.672,172.500 140.400 C 172.427 140.282,171.198 140.200,169.488 140.200 C 167.696 140.200,166.600 140.124,166.600 140.000 C 166.600 139.881,165.837 139.800,164.712 139.800 C 163.669 139.800,162.768 139.710,162.700 139.600 C 162.632 139.490,161.957 139.400,161.200 139.400 C 160.443 139.400,159.768 139.310,159.700 139.200 C 159.632 139.090,159.002 139.000,158.300 139.000 C 157.598 139.000,156.968 138.910,156.900 138.800 C 156.832 138.690,156.292 138.600,155.700 138.600 C 155.108 138.600,154.568 138.510,154.500 138.400 C 154.432 138.290,153.982 138.200,153.500 138.200 C 153.018 138.200,152.568 138.110,152.500 138.000 C 152.432 137.890,151.982 137.800,151.500 137.800 C 151.018 137.800,150.568 137.710,150.500 137.600 C 150.432 137.490,149.982 137.400,149.500 137.400 C 149.018 137.400,148.568 137.310,148.500 137.200 C 148.432 137.090,148.072 137.000,147.700 137.000 C 147.328 137.000,146.968 136.910,146.900 136.800 C 146.832 136.690,146.427 136.600,146.000 136.600 C 145.573 136.600,145.168 136.510,145.100 136.400 C 145.032 136.290,144.717 136.200,144.400 136.200 C 144.083 136.200,143.768 136.110,143.700 136.000 C 143.632 135.890,143.272 135.800,142.900 135.800 C 142.528 135.800,142.168 135.710,142.100 135.600 C 142.032 135.490,141.667 135.400,141.288 135.400 C 140.910 135.400,140.600 135.310,140.600 135.200 C 140.600 135.090,140.335 135.000,140.012 135.000 C 139.688 135.000,139.368 134.910,139.300 134.800 C 139.232 134.690,138.917 134.600,138.600 134.600 C 138.283 134.600,137.968 134.510,137.900 134.400 C 137.832 134.290,137.562 134.200,137.300 134.200 C 137.038 134.200,136.768 134.110,136.700 134.000 C 136.632 133.890,136.312 133.800,135.988 133.800 C 135.665 133.800,135.400 133.710,135.400 133.600 C 135.400 133.490,135.130 133.400,134.800 133.400 C 134.470 133.400,134.200 133.310,134.200 133.200 C 134.200 133.090,133.980 133.000,133.712 133.000 C 133.443 133.000,133.168 132.910,133.100 132.800 C 133.032 132.690,132.800 132.600,132.585 132.600 C 132.370 132.600,131.993 132.496,131.747 132.369 C 130.784 131.871,130.592 131.800,130.203 131.800 C 129.981 131.800,129.800 131.710,129.800 131.600 C 129.800 131.490,129.619 131.400,129.397 131.400 C 129.176 131.400,128.838 131.321,128.647 131.223 C 128.456 131.126,128.030 130.936,127.700 130.800 C 127.370 130.664,126.944 130.474,126.753 130.377 C 126.562 130.279,126.269 130.200,126.103 130.200 C 125.936 130.200,125.800 130.110,125.800 130.000 C 125.800 129.890,125.625 129.800,125.412 129.800 C 125.198 129.800,124.968 129.710,124.900 129.600 C 124.832 129.490,124.557 129.400,124.288 129.400 C 124.020 129.400,123.800 129.310,123.800 129.200 C 123.800 129.090,123.620 129.000,123.400 129.000 C 123.180 129.000,123.000 128.910,123.000 128.800 C 123.000 128.690,122.864 128.600,122.697 128.600 C 122.531 128.600,122.238 128.521,122.047 128.425 C 120.560 127.676,119.923 127.400,119.681 127.400 C 119.526 127.400,119.400 127.310,119.400 127.200 C 119.400 127.090,119.220 127.000,119.000 127.000 C 118.780 127.000,118.600 126.910,118.600 126.800 C 118.600 126.690,118.420 126.600,118.200 126.600 C 117.980 126.600,117.800 126.510,117.800 126.400 C 117.800 126.290,117.620 126.200,117.400 126.200 C 117.180 126.200,117.000 126.110,117.000 126.000 C 117.000 125.890,116.820 125.800,116.600 125.800 C 116.380 125.800,116.200 125.710,116.200 125.600 C 116.200 125.490,116.028 125.400,115.817 125.400 C 115.606 125.400,115.403 125.333,115.367 125.250 C 115.307 125.115,114.255 124.511,113.052 123.920 C 112.805 123.799,112.602 123.633,112.602 123.550 C 112.601 123.468,112.420 123.400,112.200 123.400 C 111.980 123.400,111.800 123.310,111.800 123.200 C 111.800 123.090,111.620 123.000,111.400 123.000 C 111.180 123.000,110.999 122.933,110.998 122.850 C 110.991 122.114,108.450 121.995,107.836 122.702 " stroke="none" fill="#f48c14" fill-rule="evenodd"></path><path id="path1" d="M85.800 72.400 C 85.800 72.510,85.350 72.600,84.800 72.600 C 84.250 72.600,83.800 72.690,83.800 72.800 C 83.800 72.910,83.530 73.000,83.200 73.000 C 82.870 73.000,82.600 73.090,82.600 73.200 C 82.600 73.310,82.330 73.400,82.000 73.400 C 81.670 73.400,81.400 73.490,81.400 73.600 C 81.400 73.710,81.130 73.800,80.800 73.800 C 80.470 73.800,80.200 73.890,80.200 74.000 C 80.200 74.110,80.040 74.200,79.844 74.200 C 79.648 74.200,79.359 74.380,79.200 74.600 C 79.041 74.820,78.771 75.000,78.600 75.000 C 78.429 75.000,78.159 75.180,78.000 75.400 C 77.841 75.620,77.595 75.800,77.452 75.800 C 77.308 75.800,76.698 76.293,76.096 76.896 C 75.493 77.498,75.000 78.108,75.000 78.252 C 75.000 78.395,74.820 78.641,74.600 78.800 C 74.380 78.959,74.200 79.229,74.200 79.400 C 74.200 79.571,74.020 79.841,73.800 80.000 C 73.565 80.169,73.400 80.518,73.400 80.844 C 73.400 81.150,73.310 81.400,73.200 81.400 C 73.090 81.400,73.000 81.580,73.000 81.800 C 73.000 82.020,72.910 82.200,72.800 82.200 C 72.690 82.200,72.600 82.560,72.600 83.000 C 72.600 83.440,72.510 83.800,72.400 83.800 C 72.290 83.800,72.200 84.301,72.200 84.914 C 72.200 86.061,72.483 86.600,73.086 86.600 C 73.259 86.600,73.400 86.690,73.400 86.800 C 73.400 86.917,74.067 87.000,75.000 87.000 C 75.933 87.000,76.600 87.083,76.600 87.200 C 76.600 87.319,77.333 87.400,78.400 87.400 C 79.467 87.400,80.200 87.481,80.200 87.600 C 80.200 87.710,80.699 87.800,81.309 87.800 C 82.580 87.800,83.400 87.215,83.400 86.309 C 83.400 86.029,83.490 85.800,83.600 85.800 C 83.710 85.800,83.800 85.550,83.800 85.244 C 83.800 84.918,83.965 84.569,84.200 84.400 C 84.420 84.241,84.600 83.992,84.600 83.847 C 84.600 83.482,85.513 82.600,85.891 82.600 C 86.061 82.600,86.200 82.510,86.200 82.400 C 86.200 82.290,86.380 82.200,86.600 82.200 C 86.820 82.200,87.000 82.110,87.000 82.000 C 87.000 81.890,87.270 81.800,87.600 81.800 C 87.930 81.800,88.200 81.710,88.200 81.600 C 88.200 81.489,88.733 81.400,89.400 81.400 C 90.067 81.400,90.600 81.489,90.600 81.600 C 90.600 81.710,90.870 81.800,91.200 81.800 C 91.530 81.800,91.800 81.890,91.800 82.000 C 91.800 82.110,91.938 82.200,92.107 82.200 C 92.505 82.200,93.800 83.495,93.800 83.893 C 93.800 84.062,93.890 84.200,94.000 84.200 C 94.110 84.200,94.200 84.380,94.200 84.600 C 94.200 84.820,94.290 85.000,94.400 85.000 C 94.522 85.000,94.600 85.933,94.600 87.400 L 94.600 89.800 92.600 89.800 C 91.400 89.800,90.600 89.880,90.600 90.000 C 90.600 90.117,89.933 90.200,89.000 90.200 C 88.067 90.200,87.400 90.283,87.400 90.400 C 87.400 90.511,86.867 90.600,86.200 90.600 C 85.533 90.600,85.000 90.689,85.000 90.800 C 85.000 90.910,84.550 91.000,84.000 91.000 C 83.450 91.000,83.000 91.090,83.000 91.200 C 83.000 91.310,82.730 91.400,82.400 91.400 C 82.070 91.400,81.800 91.490,81.800 91.600 C 81.800 91.710,81.530 91.800,81.200 91.800 C 80.870 91.800,80.600 91.890,80.600 92.000 C 80.600 92.110,80.330 92.200,80.000 92.200 C 79.670 92.200,79.400 92.290,79.400 92.400 C 79.400 92.510,79.220 92.600,79.000 92.600 C 78.780 92.600,78.600 92.690,78.600 92.800 C 78.600 92.910,78.440 93.000,78.244 93.000 C 78.048 93.000,77.759 93.180,77.600 93.400 C 77.441 93.620,77.171 93.800,77.000 93.800 C 76.829 93.800,76.559 93.980,76.400 94.200 C 76.241 94.420,75.994 94.600,75.849 94.600 C 75.528 94.600,74.200 95.899,74.200 96.213 C 74.200 96.338,73.930 96.692,73.600 97.000 C 73.270 97.308,73.000 97.704,73.000 97.880 C 73.000 98.056,72.910 98.200,72.800 98.200 C 72.690 98.200,72.600 98.380,72.600 98.600 C 72.600 98.820,72.510 99.000,72.400 99.000 C 72.290 99.000,72.200 99.180,72.200 99.400 C 72.200 99.620,72.110 99.800,72.000 99.800 C 71.890 99.800,71.800 100.070,71.800 100.400 C 71.800 100.730,71.710 101.000,71.600 101.000 C 71.490 101.000,71.400 101.360,71.400 101.800 C 71.400 102.240,71.310 102.600,71.200 102.600 C 71.075 102.600,71.000 103.867,71.000 106.000 C 71.000 108.133,71.075 109.400,71.200 109.400 C 71.310 109.400,71.400 109.760,71.400 110.200 C 71.400 110.640,71.490 111.000,71.600 111.000 C 71.710 111.000,71.800 111.270,71.800 111.600 C 71.800 111.930,71.890 112.200,72.000 112.200 C 72.110 112.200,72.200 112.380,72.200 112.600 C 72.200 112.820,72.290 113.000,72.400 113.000 C 72.510 113.000,72.600 113.160,72.600 113.356 C 72.600 113.552,72.780 113.841,73.000 114.000 C 73.220 114.159,73.400 114.406,73.400 114.549 C 73.400 114.889,75.111 116.600,75.451 116.600 C 75.594 116.600,75.841 116.780,76.000 117.000 C 76.159 117.220,76.448 117.400,76.644 117.400 C 76.840 117.400,77.000 117.490,77.000 117.600 C 77.000 117.710,77.180 117.800,77.400 117.800 C 77.620 117.800,77.800 117.890,77.800 118.000 C 77.800 118.110,78.070 118.200,78.400 118.200 C 78.730 118.200,79.000 118.290,79.000 118.400 C 79.000 118.510,79.450 118.600,80.000 118.600 C 80.550 118.600,81.000 118.690,81.000 118.800 C 81.000 118.923,82.000 119.000,83.600 119.000 C 85.200 119.000,86.200 118.923,86.200 118.800 C 86.200 118.689,86.733 118.600,87.400 118.600 C 88.067 118.600,88.600 118.511,88.600 118.400 C 88.600 118.290,88.960 118.200,89.400 118.200 C 89.840 118.200,90.200 118.110,90.200 118.000 C 90.200 117.890,90.380 117.800,90.600 117.800 C 90.820 117.800,91.000 117.710,91.000 117.600 C 91.000 117.490,91.180 117.400,91.400 117.400 C 91.620 117.400,91.800 117.310,91.800 117.200 C 91.800 117.090,91.960 117.000,92.156 117.000 C 92.352 117.000,92.641 116.820,92.800 116.600 C 92.959 116.380,93.212 116.200,93.364 116.200 C 93.515 116.200,93.892 115.930,94.200 115.600 C 94.508 115.270,94.868 115.000,95.000 115.000 C 95.132 115.000,95.492 114.730,95.800 114.400 C 96.409 113.748,97.000 113.610,97.000 114.120 C 97.000 114.296,97.270 114.692,97.600 115.000 C 97.930 115.308,98.200 115.661,98.200 115.785 C 98.200 116.123,100.346 118.200,100.696 118.200 C 100.863 118.200,101.000 118.290,101.000 118.400 C 101.000 119.041,103.237 118.594,104.000 117.800 C 104.423 117.360,104.871 117.000,104.995 117.000 C 105.120 117.000,105.752 116.460,106.400 115.800 C 107.048 115.140,107.675 114.600,107.793 114.600 C 109.241 114.600,110.901 110.794,109.800 110.000 C 109.580 109.841,109.400 109.588,109.400 109.436 C 109.400 109.285,109.130 108.908,108.800 108.600 C 108.470 108.292,108.200 107.896,108.200 107.720 C 108.200 107.544,108.110 107.400,108.000 107.400 C 107.890 107.400,107.800 107.220,107.800 107.000 C 107.800 106.780,107.710 106.600,107.600 106.600 C 107.490 106.600,107.400 106.330,107.400 106.000 C 107.400 105.670,107.310 105.400,107.200 105.400 C 107.090 105.400,107.000 104.950,107.000 104.400 C 107.000 103.850,106.910 103.400,106.800 103.400 C 106.669 103.400,106.600 99.733,106.600 92.800 C 106.600 85.867,106.531 82.200,106.400 82.200 C 106.290 82.200,106.200 81.840,106.200 81.400 C 106.200 80.960,106.110 80.600,106.000 80.600 C 105.890 80.600,105.800 80.330,105.800 80.000 C 105.800 79.670,105.710 79.400,105.600 79.400 C 105.490 79.400,105.400 79.220,105.400 79.000 C 105.400 78.780,105.310 78.600,105.200 78.600 C 105.090 78.600,105.000 78.464,105.000 78.297 C 105.000 77.902,101.698 74.600,101.303 74.600 C 101.136 74.600,101.000 74.510,101.000 74.400 C 101.000 74.290,100.820 74.200,100.600 74.200 C 100.380 74.200,100.200 74.110,100.200 74.000 C 100.200 73.890,100.020 73.800,99.800 73.800 C 99.580 73.800,99.400 73.710,99.400 73.600 C 99.400 73.490,99.130 73.400,98.800 73.400 C 98.470 73.400,98.200 73.310,98.200 73.200 C 98.200 73.090,97.930 73.000,97.600 73.000 C 97.270 73.000,97.000 72.910,97.000 72.800 C 97.000 72.690,96.550 72.600,96.000 72.600 C 95.450 72.600,95.000 72.510,95.000 72.400 C 95.000 72.272,93.333 72.200,90.400 72.200 C 87.467 72.200,85.800 72.272,85.800 72.400 M191.400 72.400 C 191.400 72.510,190.950 72.600,190.400 72.600 C 189.850 72.600,189.400 72.690,189.400 72.800 C 189.400 72.910,189.130 73.000,188.800 73.000 C 188.470 73.000,188.200 73.090,188.200 73.200 C 188.200 73.310,187.930 73.400,187.600 73.400 C 187.270 73.400,187.000 73.490,187.000 73.600 C 187.000 73.710,186.820 73.800,186.600 73.800 C 186.380 73.800,186.200 73.890,186.200 74.000 C 186.200 74.110,185.950 74.200,185.644 74.200 C 185.318 74.200,184.969 74.365,184.800 74.600 C 184.641 74.820,184.371 75.000,184.200 75.000 C 184.029 75.000,183.759 75.180,183.600 75.400 C 183.441 75.620,183.195 75.800,183.052 75.800 C 182.713 75.800,180.600 77.913,180.600 78.252 C 180.600 78.395,180.420 78.641,180.200 78.800 C 179.980 78.959,179.800 79.229,179.800 79.400 C 179.800 79.571,179.620 79.841,179.400 80.000 C 179.165 80.169,179.000 80.518,179.000 80.844 C 179.000 81.150,178.910 81.400,178.800 81.400 C 178.690 81.400,178.600 81.580,178.600 81.800 C 178.600 82.020,178.510 82.200,178.400 82.200 C 178.290 82.200,178.200 82.560,178.200 83.000 C 178.200 83.440,178.110 83.800,178.000 83.800 C 177.890 83.800,177.800 84.301,177.800 84.914 C 177.800 86.061,178.083 86.600,178.686 86.600 C 178.859 86.600,179.000 86.690,179.000 86.800 C 179.000 86.917,179.667 87.000,180.600 87.000 C 181.533 87.000,182.200 87.083,182.200 87.200 C 182.200 87.319,182.933 87.400,184.000 87.400 C 185.067 87.400,185.800 87.481,185.800 87.600 C 185.800 87.710,186.299 87.800,186.909 87.800 C 188.180 87.800,189.000 87.215,189.000 86.309 C 189.000 86.029,189.090 85.800,189.200 85.800 C 189.310 85.800,189.400 85.550,189.400 85.244 C 189.400 84.918,189.565 84.569,189.800 84.400 C 190.020 84.241,190.200 83.992,190.200 83.847 C 190.200 83.482,191.113 82.600,191.491 82.600 C 191.661 82.600,191.800 82.510,191.800 82.400 C 191.800 82.290,191.980 82.200,192.200 82.200 C 192.420 82.200,192.600 82.110,192.600 82.000 C 192.600 81.890,192.870 81.800,193.200 81.800 C 193.530 81.800,193.800 81.710,193.800 81.600 C 193.800 81.489,194.333 81.400,195.000 81.400 C 195.667 81.400,196.200 81.489,196.200 81.600 C 196.200 81.710,196.470 81.800,196.800 81.800 C 197.130 81.800,197.400 81.890,197.400 82.000 C 197.400 82.110,197.538 82.200,197.707 82.200 C 198.105 82.200,199.400 83.495,199.400 83.893 C 199.400 84.062,199.490 84.200,199.600 84.200 C 199.710 84.200,199.800 84.380,199.800 84.600 C 199.800 84.820,199.890 85.000,200.000 85.000 C 200.122 85.000,200.200 85.933,200.200 87.400 L 200.200 89.800 198.200 89.800 C 197.000 89.800,196.200 89.880,196.200 90.000 C 196.200 90.117,195.533 90.200,194.600 90.200 C 193.667 90.200,193.000 90.283,193.000 90.400 C 193.000 90.511,192.467 90.600,191.800 90.600 C 191.133 90.600,190.600 90.689,190.600 90.800 C 190.600 90.910,190.150 91.000,189.600 91.000 C 189.050 91.000,188.600 91.090,188.600 91.200 C 188.600 91.310,188.330 91.400,188.000 91.400 C 187.670 91.400,187.400 91.490,187.400 91.600 C 187.400 91.710,187.130 91.800,186.800 91.800 C 186.470 91.800,186.200 91.890,186.200 92.000 C 186.200 92.110,185.930 92.200,185.600 92.200 C 185.270 92.200,185.000 92.290,185.000 92.400 C 185.000 92.510,184.820 92.600,184.600 92.600 C 184.380 92.600,184.200 92.690,184.200 92.800 C 184.200 92.910,184.040 93.000,183.844 93.000 C 183.648 93.000,183.359 93.180,183.200 93.400 C 183.041 93.620,182.788 93.800,182.636 93.800 C 182.485 93.800,182.108 94.070,181.800 94.400 C 181.492 94.730,181.137 95.000,181.011 95.000 C 180.714 95.000,179.800 95.914,179.800 96.211 C 179.800 96.337,179.530 96.692,179.200 97.000 C 178.870 97.308,178.600 97.704,178.600 97.880 C 178.600 98.056,178.510 98.200,178.400 98.200 C 178.290 98.200,178.200 98.380,178.200 98.600 C 178.200 98.820,178.110 99.000,178.000 99.000 C 177.890 99.000,177.800 99.180,177.800 99.400 C 177.800 99.620,177.710 99.800,177.600 99.800 C 177.490 99.800,177.400 100.070,177.400 100.400 C 177.400 100.730,177.310 101.000,177.200 101.000 C 177.090 101.000,177.000 101.360,177.000 101.800 C 177.000 102.240,176.910 102.600,176.800 102.600 C 176.675 102.600,176.600 103.867,176.600 106.000 C 176.600 108.133,176.675 109.400,176.800 109.400 C 176.910 109.400,177.000 109.760,177.000 110.200 C 177.000 110.640,177.090 111.000,177.200 111.000 C 177.310 111.000,177.400 111.270,177.400 111.600 C 177.400 111.930,177.490 112.200,177.600 112.200 C 177.710 112.200,177.800 112.380,177.800 112.600 C 177.800 112.820,177.890 113.000,178.000 113.000 C 178.110 113.000,178.200 113.160,178.200 113.356 C 178.200 113.552,178.380 113.841,178.600 114.000 C 178.820 114.159,179.000 114.406,179.000 114.549 C 179.000 114.889,180.711 116.600,181.051 116.600 C 181.194 116.600,181.441 116.780,181.600 117.000 C 181.759 117.220,182.048 117.400,182.244 117.400 C 182.440 117.400,182.600 117.490,182.600 117.600 C 182.600 117.710,182.780 117.800,183.000 117.800 C 183.220 117.800,183.400 117.890,183.400 118.000 C 183.400 118.110,183.670 118.200,184.000 118.200 C 184.330 118.200,184.600 118.290,184.600 118.400 C 184.600 118.511,185.133 118.600,185.800 118.600 C 186.467 118.600,187.000 118.689,187.000 118.800 C 187.000 118.922,187.933 119.000,189.400 119.000 C 190.867 119.000,191.800 118.922,191.800 118.800 C 191.800 118.689,192.333 118.600,193.000 118.600 C 193.667 118.600,194.200 118.511,194.200 118.400 C 194.200 118.290,194.560 118.200,195.000 118.200 C 195.440 118.200,195.800 118.110,195.800 118.000 C 195.800 117.890,195.980 117.800,196.200 117.800 C 196.420 117.800,196.600 117.710,196.600 117.600 C 196.600 117.490,196.780 117.400,197.000 117.400 C 197.220 117.400,197.400 117.310,197.400 117.200 C 197.400 117.090,197.560 117.000,197.756 117.000 C 197.952 117.000,198.241 116.820,198.400 116.600 C 198.559 116.380,198.812 116.200,198.964 116.200 C 199.115 116.200,199.492 115.930,199.800 115.600 C 200.108 115.270,200.468 115.000,200.600 115.000 C 200.732 115.000,201.092 114.730,201.400 114.400 C 202.009 113.748,202.600 113.610,202.600 114.120 C 202.600 114.296,202.870 114.692,203.200 115.000 C 203.530 115.308,203.800 115.661,203.800 115.785 C 203.800 116.123,205.946 118.200,206.296 118.200 C 206.463 118.200,206.600 118.290,206.600 118.400 C 206.600 119.041,208.837 118.594,209.600 117.800 C 210.023 117.360,210.471 117.000,210.595 117.000 C 210.720 117.000,211.352 116.460,212.000 115.800 C 212.648 115.140,213.275 114.600,213.393 114.600 C 214.841 114.600,216.501 110.794,215.400 110.000 C 215.180 109.841,215.000 109.571,215.000 109.400 C 215.000 109.229,214.820 108.959,214.600 108.800 C 214.380 108.641,214.200 108.371,214.200 108.200 C 214.200 108.029,214.020 107.759,213.800 107.600 C 213.580 107.441,213.400 107.152,213.400 106.956 C 213.400 106.760,213.310 106.600,213.200 106.600 C 213.090 106.600,213.000 106.330,213.000 106.000 C 213.000 105.670,212.910 105.400,212.800 105.400 C 212.690 105.400,212.600 104.950,212.600 104.400 C 212.600 103.850,212.510 103.400,212.400 103.400 C 212.269 103.400,212.200 99.667,212.200 92.600 C 212.200 85.533,212.131 81.800,212.000 81.800 C 211.890 81.800,211.800 81.530,211.800 81.200 C 211.800 80.870,211.710 80.600,211.600 80.600 C 211.490 80.600,211.400 80.330,211.400 80.000 C 211.400 79.670,211.310 79.400,211.200 79.400 C 211.090 79.400,211.000 79.220,211.000 79.000 C 211.000 78.780,210.910 78.600,210.800 78.600 C 210.690 78.600,210.600 78.464,210.600 78.297 C 210.600 77.902,207.298 74.600,206.903 74.600 C 206.736 74.600,206.600 74.510,206.600 74.400 C 206.600 74.290,206.420 74.200,206.200 74.200 C 205.980 74.200,205.800 74.110,205.800 74.000 C 205.800 73.890,205.620 73.800,205.400 73.800 C 205.180 73.800,205.000 73.710,205.000 73.600 C 205.000 73.490,204.730 73.400,204.400 73.400 C 204.070 73.400,203.800 73.310,203.800 73.200 C 203.800 73.090,203.530 73.000,203.200 73.000 C 202.870 73.000,202.600 72.910,202.600 72.800 C 202.600 72.690,202.150 72.600,201.600 72.600 C 201.050 72.600,200.600 72.510,200.600 72.400 C 200.600 72.272,198.933 72.200,196.000 72.200 C 193.067 72.200,191.400 72.272,191.400 72.400 M133.400 72.800 C 133.400 72.910,133.130 73.000,132.800 73.000 C 132.470 73.000,132.200 73.090,132.200 73.200 C 132.200 73.310,132.020 73.400,131.800 73.400 C 131.580 73.400,131.400 73.490,131.400 73.600 C 131.400 73.710,131.240 73.800,131.044 73.800 C 130.848 73.800,130.559 73.980,130.400 74.200 C 130.241 74.420,129.994 74.600,129.851 74.600 C 129.511 74.600,127.800 76.311,127.800 76.651 C 127.800 76.794,127.620 77.041,127.400 77.200 C 127.180 77.359,127.000 77.648,127.000 77.844 C 127.000 78.040,126.910 78.200,126.800 78.200 C 126.681 78.200,126.600 77.430,126.600 76.291 C 126.600 74.531,126.562 74.344,126.109 73.891 L 125.618 73.400 120.795 73.400 C 116.881 73.400,115.918 73.454,115.686 73.686 C 115.256 74.115,115.256 117.485,115.686 117.914 C 116.108 118.336,126.292 118.336,126.714 117.914 C 126.956 117.672,127.000 115.587,127.000 104.314 C 127.000 95.571,127.069 91.000,127.200 91.000 C 127.314 91.000,127.400 90.400,127.400 89.600 C 127.400 88.800,127.486 88.200,127.600 88.200 C 127.710 88.200,127.800 87.840,127.800 87.400 C 127.800 86.960,127.890 86.600,128.000 86.600 C 128.110 86.600,128.200 86.463,128.200 86.296 C 128.200 85.643,130.338 83.800,131.096 83.800 C 131.483 83.800,131.800 83.710,131.800 83.600 C 131.800 83.490,132.070 83.400,132.400 83.400 C 132.730 83.400,133.000 83.490,133.000 83.600 C 133.000 83.710,133.250 83.800,133.556 83.800 C 133.882 83.800,134.231 83.965,134.400 84.200 C 134.559 84.420,134.848 84.600,135.044 84.600 C 135.252 84.600,135.400 84.748,135.400 84.956 C 135.400 85.152,135.580 85.441,135.800 85.600 C 136.035 85.769,136.200 86.118,136.200 86.444 C 136.200 86.750,136.290 87.000,136.400 87.000 C 136.511 87.000,136.600 87.533,136.600 88.200 C 136.600 88.867,136.689 89.400,136.800 89.400 C 136.931 89.400,137.000 94.238,137.000 103.514 C 137.000 115.480,137.043 117.672,137.286 117.914 C 137.708 118.336,147.892 118.336,148.314 117.914 C 148.556 117.672,148.600 115.560,148.600 104.114 C 148.600 95.238,148.669 90.600,148.800 90.600 C 148.914 90.600,149.000 90.000,149.000 89.200 C 149.000 88.400,149.086 87.800,149.200 87.800 C 149.310 87.800,149.400 87.550,149.400 87.244 C 149.400 86.918,149.565 86.569,149.800 86.400 C 150.020 86.241,150.200 85.992,150.200 85.847 C 150.200 85.482,151.113 84.600,151.491 84.600 C 151.661 84.600,151.800 84.510,151.800 84.400 C 151.800 84.290,151.980 84.200,152.200 84.200 C 152.420 84.200,152.600 84.110,152.600 84.000 C 152.600 83.883,153.267 83.800,154.200 83.800 C 155.133 83.800,155.800 83.883,155.800 84.000 C 155.800 84.110,155.938 84.200,156.107 84.200 C 156.505 84.200,157.800 85.495,157.800 85.893 C 157.800 86.062,157.890 86.200,158.000 86.200 C 158.111 86.200,158.200 86.733,158.200 87.400 C 158.200 88.067,158.289 88.600,158.400 88.600 C 158.531 88.600,158.600 93.571,158.600 103.114 C 158.600 115.427,158.643 117.672,158.886 117.914 C 159.119 118.147,160.135 118.200,164.400 118.200 C 168.665 118.200,169.681 118.147,169.914 117.914 C 170.268 117.561,170.353 81.400,170.000 81.400 C 169.890 81.400,169.800 81.040,169.800 80.600 C 169.800 80.160,169.710 79.800,169.600 79.800 C 169.490 79.800,169.400 79.530,169.400 79.200 C 169.400 78.870,169.310 78.600,169.200 78.600 C 169.090 78.600,169.000 78.420,169.000 78.200 C 169.000 77.980,168.910 77.800,168.800 77.800 C 168.690 77.800,168.600 77.663,168.600 77.496 C 168.600 77.127,166.112 74.600,165.748 74.600 C 165.605 74.600,165.359 74.420,165.200 74.200 C 165.041 73.980,164.752 73.800,164.556 73.800 C 164.360 73.800,164.200 73.710,164.200 73.600 C 164.200 73.490,163.930 73.400,163.600 73.400 C 163.270 73.400,163.000 73.310,163.000 73.200 C 163.000 73.090,162.730 73.000,162.400 73.000 C 162.070 73.000,161.800 72.910,161.800 72.800 C 161.800 72.675,160.533 72.600,158.400 72.600 C 156.267 72.600,155.000 72.675,155.000 72.800 C 155.000 72.910,154.730 73.000,154.400 73.000 C 154.070 73.000,153.800 73.090,153.800 73.200 C 153.800 73.310,153.620 73.400,153.400 73.400 C 153.180 73.400,153.000 73.490,153.000 73.600 C 153.000 73.710,152.820 73.800,152.600 73.800 C 152.380 73.800,152.200 73.890,152.200 74.000 C 152.200 74.110,152.040 74.200,151.844 74.200 C 151.648 74.200,151.359 74.380,151.200 74.600 C 151.041 74.820,150.794 75.000,150.649 75.000 C 150.308 75.000,149.000 76.308,149.000 76.649 C 149.000 76.794,148.820 77.041,148.600 77.200 C 148.380 77.359,148.200 77.610,148.200 77.758 C 148.200 78.088,147.713 78.600,147.400 78.600 C 147.069 78.600,146.600 78.081,146.600 77.714 C 146.600 77.541,146.510 77.400,146.400 77.400 C 146.290 77.400,146.200 77.263,146.200 77.096 C 146.200 76.727,143.712 74.200,143.348 74.200 C 143.205 74.200,142.959 74.020,142.800 73.800 C 142.641 73.580,142.352 73.400,142.156 73.400 C 141.960 73.400,141.800 73.310,141.800 73.200 C 141.800 73.090,141.440 73.000,141.000 73.000 C 140.560 73.000,140.200 72.910,140.200 72.800 C 140.200 72.675,138.933 72.600,136.800 72.600 C 134.667 72.600,133.400 72.675,133.400 72.800 M270.200 72.800 C 270.200 72.910,269.840 73.000,269.400 73.000 C 268.960 73.000,268.600 73.090,268.600 73.200 C 268.600 73.310,268.330 73.400,268.000 73.400 C 267.670 73.400,267.400 73.490,267.400 73.600 C 267.400 73.710,267.130 73.800,266.800 73.800 C 266.470 73.800,266.200 73.890,266.200 74.000 C 266.200 74.110,266.040 74.200,265.844 74.200 C 265.648 74.200,265.359 74.380,265.200 74.600 C 265.041 74.820,264.771 75.000,264.600 75.000 C 264.429 75.000,264.159 75.180,264.000 75.400 C 263.841 75.620,263.595 75.800,263.452 75.800 C 263.135 75.800,260.600 78.303,260.600 78.616 C 260.600 78.739,260.330 79.092,260.000 79.400 C 259.670 79.708,259.400 80.104,259.400 80.280 C 259.400 80.456,259.310 80.600,259.200 80.600 C 259.090 80.600,259.000 80.780,259.000 81.000 C 259.000 81.220,258.910 81.400,258.800 81.400 C 258.690 81.400,258.600 81.580,258.600 81.800 C 258.600 82.020,258.510 82.200,258.400 82.200 C 258.290 82.200,258.200 82.380,258.200 82.600 C 258.200 82.820,258.110 83.000,258.000 83.000 C 257.890 83.000,257.800 83.180,257.800 83.400 C 257.800 83.620,257.710 83.800,257.600 83.800 C 257.490 83.800,257.400 84.070,257.400 84.400 C 257.400 84.730,257.310 85.000,257.200 85.000 C 257.090 85.000,257.000 85.270,257.000 85.600 C 257.000 85.930,256.910 86.200,256.800 86.200 C 256.690 86.200,256.600 86.560,256.600 87.000 C 256.600 87.440,256.510 87.800,256.400 87.800 C 256.290 87.800,256.200 88.250,256.200 88.800 C 256.200 89.350,256.110 89.800,256.000 89.800 C 255.881 89.800,255.800 90.533,255.800 91.600 C 255.800 92.667,255.719 93.400,255.600 93.400 C 255.479 93.400,255.400 94.267,255.400 95.600 C 255.400 96.933,255.479 97.800,255.600 97.800 C 255.720 97.800,255.800 98.600,255.800 99.800 C 255.800 101.000,255.880 101.800,256.000 101.800 C 256.110 101.800,256.200 102.250,256.200 102.800 C 256.200 103.350,256.290 103.800,256.400 103.800 C 256.510 103.800,256.600 104.160,256.600 104.600 C 256.600 105.040,256.690 105.400,256.800 105.400 C 256.910 105.400,257.000 105.670,257.000 106.000 C 257.000 106.330,257.090 106.600,257.200 106.600 C 257.310 106.600,257.400 106.870,257.400 107.200 C 257.400 107.530,257.490 107.800,257.600 107.800 C 257.710 107.800,257.800 107.980,257.800 108.200 C 257.800 108.420,257.890 108.600,258.000 108.600 C 258.110 108.600,258.200 108.780,258.200 109.000 C 258.200 109.220,258.290 109.400,258.400 109.400 C 258.510 109.400,258.600 109.580,258.600 109.800 C 258.600 110.020,258.690 110.200,258.800 110.200 C 258.910 110.200,259.000 110.360,259.000 110.556 C 259.000 110.752,259.180 111.041,259.400 111.200 C 259.620 111.359,259.800 111.629,259.800 111.800 C 259.800 111.971,259.980 112.241,260.200 112.400 C 260.420 112.559,260.600 112.805,260.600 112.948 C 260.600 113.286,263.114 115.800,263.452 115.800 C 263.595 115.800,263.841 115.980,264.000 116.200 C 264.159 116.420,264.429 116.600,264.600 116.600 C 264.771 116.600,265.041 116.780,265.200 117.000 C 265.359 117.220,265.648 117.400,265.844 117.400 C 266.040 117.400,266.200 117.490,266.200 117.600 C 266.200 117.710,266.470 117.800,266.800 117.800 C 267.130 117.800,267.400 117.890,267.400 118.000 C 267.400 118.110,267.580 118.200,267.800 118.200 C 268.020 118.200,268.200 118.290,268.200 118.400 C 268.200 118.510,268.560 118.600,269.000 118.600 C 269.440 118.600,269.800 118.690,269.800 118.800 C 269.800 118.927,271.333 119.000,274.000 119.000 C 276.667 119.000,278.200 118.927,278.200 118.800 C 278.200 118.690,278.560 118.600,279.000 118.600 C 279.440 118.600,279.800 118.510,279.800 118.400 C 279.800 118.290,280.070 118.200,280.400 118.200 C 280.730 118.200,281.000 118.110,281.000 118.000 C 281.000 117.890,281.180 117.800,281.400 117.800 C 281.620 117.800,281.800 117.710,281.800 117.600 C 281.800 117.490,281.980 117.400,282.200 117.400 C 282.420 117.400,282.600 117.310,282.600 117.200 C 282.600 117.090,282.760 117.000,282.956 117.000 C 283.152 117.000,283.441 116.820,283.600 116.600 C 283.759 116.380,284.005 116.200,284.147 116.200 C 284.484 116.200,288.200 112.484,288.200 112.147 C 288.200 112.005,288.380 111.759,288.600 111.600 C 288.820 111.441,289.000 111.171,289.000 111.000 C 289.000 110.829,289.180 110.559,289.400 110.400 C 289.620 110.241,289.800 109.952,289.800 109.756 C 289.800 109.560,289.890 109.400,290.000 109.400 C 290.110 109.400,290.200 109.220,290.200 109.000 C 290.200 108.780,290.290 108.600,290.400 108.600 C 290.510 108.600,290.600 108.420,290.600 108.200 C 290.600 107.980,290.690 107.800,290.800 107.800 C 290.910 107.800,291.000 107.530,291.000 107.200 C 291.000 106.870,291.090 106.600,291.200 106.600 C 291.310 106.600,291.400 106.330,291.400 106.000 C 291.400 105.670,291.490 105.400,291.600 105.400 C 291.710 105.400,291.800 105.130,291.800 104.800 C 291.800 104.470,291.890 104.200,292.000 104.200 C 292.110 104.200,292.200 103.750,292.200 103.200 C 292.200 102.650,292.290 102.200,292.400 102.200 C 292.517 102.200,292.600 101.533,292.600 100.600 C 292.600 99.667,292.683 99.000,292.800 99.000 C 292.924 99.000,293.000 97.867,293.000 96.000 C 293.000 94.133,292.924 93.000,292.800 93.000 C 292.683 93.000,292.600 92.333,292.600 91.400 C 292.600 90.467,292.517 89.800,292.400 89.800 C 292.290 89.800,292.200 89.350,292.200 88.800 C 292.200 88.250,292.110 87.800,292.000 87.800 C 291.890 87.800,291.800 87.440,291.800 87.000 C 291.800 86.560,291.710 86.200,291.600 86.200 C 291.490 86.200,291.400 85.930,291.400 85.600 C 291.400 85.270,291.310 85.000,291.200 85.000 C 291.090 85.000,291.000 84.730,291.000 84.400 C 291.000 84.070,290.910 83.800,290.800 83.800 C 290.690 83.800,290.600 83.620,290.600 83.400 C 290.600 83.180,290.510 83.000,290.400 83.000 C 290.290 83.000,290.200 82.820,290.200 82.600 C 290.200 82.380,290.110 82.200,290.000 82.200 C 289.890 82.200,289.800 82.020,289.800 81.800 C 289.800 81.580,289.710 81.400,289.600 81.400 C 289.490 81.400,289.400 81.240,289.400 81.044 C 289.400 80.848,289.220 80.559,289.000 80.400 C 288.780 80.241,288.600 79.990,288.600 79.840 C 288.600 79.691,288.240 79.223,287.800 78.800 C 287.360 78.377,287.000 77.930,287.000 77.807 C 287.000 77.513,286.084 76.600,285.789 76.600 C 285.663 76.600,285.308 76.330,285.000 76.000 C 284.692 75.670,284.315 75.400,284.164 75.400 C 284.012 75.400,283.759 75.220,283.600 75.000 C 283.441 74.780,283.152 74.600,282.956 74.600 C 282.760 74.600,282.600 74.510,282.600 74.400 C 282.600 74.290,282.420 74.200,282.200 74.200 C 281.980 74.200,281.800 74.110,281.800 74.000 C 281.800 73.890,281.620 73.800,281.400 73.800 C 281.180 73.800,281.000 73.710,281.000 73.600 C 281.000 73.490,280.730 73.400,280.400 73.400 C 280.070 73.400,279.800 73.310,279.800 73.200 C 279.800 73.090,279.440 73.000,279.000 73.000 C 278.560 73.000,278.200 72.910,278.200 72.800 C 278.200 72.673,276.733 72.600,274.200 72.600 C 271.667 72.600,270.200 72.673,270.200 72.800 M316.600 72.800 C 316.600 72.910,316.330 73.000,316.000 73.000 C 315.670 73.000,315.400 73.090,315.400 73.200 C 315.400 73.310,315.220 73.400,315.000 73.400 C 314.780 73.400,314.600 73.490,314.600 73.600 C 314.600 73.710,314.420 73.800,314.200 73.800 C 313.980 73.800,313.800 73.890,313.800 74.000 C 313.800 74.110,313.663 74.200,313.496 74.200 C 313.125 74.200,311.000 76.287,311.000 76.652 C 311.000 76.795,310.820 77.041,310.600 77.200 C 310.380 77.359,310.200 77.648,310.200 77.844 C 310.200 78.040,310.110 78.200,310.000 78.200 C 309.890 78.200,309.800 78.380,309.800 78.600 C 309.800 78.820,309.710 79.000,309.600 79.000 C 309.478 79.000,309.400 78.097,309.400 76.691 C 309.400 74.506,309.374 74.355,308.909 73.891 L 308.418 73.400 303.595 73.400 C 299.681 73.400,298.718 73.454,298.486 73.686 C 298.056 74.115,298.056 117.485,298.486 117.914 C 298.908 118.336,309.092 118.336,309.514 117.914 C 309.756 117.673,309.800 115.720,309.800 105.314 C 309.800 97.238,309.869 93.000,310.000 93.000 C 310.119 93.000,310.200 92.267,310.200 91.200 C 310.200 90.133,310.281 89.400,310.400 89.400 C 310.510 89.400,310.600 89.040,310.600 88.600 C 310.600 88.160,310.690 87.800,310.800 87.800 C 310.910 87.800,311.000 87.620,311.000 87.400 C 311.000 87.180,311.090 87.000,311.200 87.000 C 311.310 87.000,311.400 86.820,311.400 86.600 C 311.400 86.380,311.490 86.200,311.600 86.200 C 311.710 86.200,311.800 86.062,311.800 85.893 C 311.800 85.495,313.095 84.200,313.493 84.200 C 313.662 84.200,313.800 84.110,313.800 84.000 C 313.800 83.890,313.980 83.800,314.200 83.800 C 314.420 83.800,314.600 83.710,314.600 83.600 C 314.600 83.490,315.050 83.400,315.600 83.400 C 316.150 83.400,316.600 83.490,316.600 83.600 C 316.600 83.710,316.780 83.800,317.000 83.800 C 317.220 83.800,317.400 83.890,317.400 84.000 C 317.400 84.110,317.539 84.200,317.709 84.200 C 318.109 84.200,319.000 85.091,319.000 85.491 C 319.000 85.661,319.090 85.800,319.200 85.800 C 319.310 85.800,319.400 86.070,319.400 86.400 C 319.400 86.730,319.490 87.000,319.600 87.000 C 319.710 87.000,319.800 87.360,319.800 87.800 C 319.800 88.240,319.890 88.600,320.000 88.600 C 320.131 88.600,320.200 93.571,320.200 103.114 C 320.200 115.427,320.243 117.672,320.486 117.914 C 320.719 118.147,321.735 118.200,326.000 118.200 C 331.468 118.200,331.800 118.149,331.800 117.314 C 331.800 117.141,331.890 117.000,332.000 117.000 C 332.132 117.000,332.200 112.000,332.200 102.400 C 332.200 92.800,332.132 87.800,332.000 87.800 C 331.876 87.800,331.800 86.733,331.800 85.000 C 331.800 83.267,331.724 82.200,331.600 82.200 C 331.490 82.200,331.400 81.840,331.400 81.400 C 331.400 80.960,331.310 80.600,331.200 80.600 C 331.090 80.600,331.000 80.240,331.000 79.800 C 331.000 79.360,330.910 79.000,330.800 79.000 C 330.690 79.000,330.600 78.820,330.600 78.600 C 330.600 78.380,330.510 78.200,330.400 78.200 C 330.290 78.200,330.200 78.040,330.200 77.844 C 330.200 77.648,330.020 77.359,329.800 77.200 C 329.580 77.041,329.400 76.794,329.400 76.651 C 329.400 76.311,327.689 74.600,327.349 74.600 C 327.206 74.600,326.959 74.420,326.800 74.200 C 326.641 73.980,326.352 73.800,326.156 73.800 C 325.960 73.800,325.800 73.710,325.800 73.600 C 325.800 73.490,325.620 73.400,325.400 73.400 C 325.180 73.400,325.000 73.310,325.000 73.200 C 325.000 73.090,324.640 73.000,324.200 73.000 C 323.760 73.000,323.400 72.910,323.400 72.800 C 323.400 72.675,322.133 72.600,320.000 72.600 C 317.867 72.600,316.600 72.675,316.600 72.800 M221.650 73.699 C 221.106 74.317,221.314 81.933,221.891 82.509 L 222.382 83.000 229.091 83.000 C 236.266 83.000,236.693 83.068,235.400 84.000 C 235.180 84.159,235.000 84.429,235.000 84.600 C 235.000 84.771,234.820 85.041,234.600 85.200 C 234.380 85.359,234.200 85.629,234.200 85.800 C 234.200 85.971,234.020 86.241,233.800 86.400 C 233.580 86.559,233.400 86.812,233.400 86.964 C 233.400 87.115,233.130 87.492,232.800 87.800 C 232.470 88.108,232.200 88.485,232.200 88.636 C 232.200 88.788,232.020 89.041,231.800 89.200 C 231.580 89.359,231.400 89.629,231.400 89.800 C 231.400 89.971,231.220 90.241,231.000 90.400 C 230.780 90.559,230.600 90.812,230.600 90.964 C 230.600 91.115,230.330 91.492,230.000 91.800 C 229.670 92.108,229.400 92.485,229.400 92.636 C 229.400 92.788,229.220 93.041,229.000 93.200 C 228.780 93.359,228.600 93.629,228.600 93.800 C 228.600 93.971,228.420 94.241,228.200 94.400 C 227.980 94.559,227.800 94.812,227.800 94.964 C 227.800 95.115,227.530 95.492,227.200 95.800 C 226.870 96.108,226.600 96.485,226.600 96.636 C 226.600 96.788,226.420 97.041,226.200 97.200 C 225.980 97.359,225.800 97.629,225.800 97.800 C 225.800 97.971,225.620 98.241,225.400 98.400 C 225.180 98.559,225.000 98.829,225.000 99.000 C 225.000 99.171,224.820 99.441,224.600 99.600 C 224.380 99.759,224.200 100.012,224.200 100.164 C 224.200 100.315,223.930 100.692,223.600 101.000 C 223.270 101.308,223.000 101.685,223.000 101.836 C 223.000 101.988,222.820 102.241,222.600 102.400 C 222.380 102.559,222.200 102.829,222.200 103.000 C 222.200 103.171,222.020 103.441,221.800 103.600 C 221.580 103.759,221.400 104.029,221.400 104.200 C 221.400 104.371,221.220 104.641,221.000 104.800 C 220.780 104.959,220.600 105.248,220.600 105.444 C 220.600 105.640,220.510 105.800,220.400 105.800 C 220.290 105.800,220.200 106.070,220.200 106.400 C 220.200 106.730,220.110 107.000,220.000 107.000 C 219.872 107.000,219.800 108.667,219.800 111.600 C 219.800 114.533,219.872 116.200,220.000 116.200 C 220.110 116.200,220.200 116.380,220.200 116.600 C 220.200 116.867,220.333 117.000,220.600 117.000 C 220.820 117.000,221.000 117.090,221.000 117.200 C 221.000 117.310,221.360 117.400,221.800 117.400 C 222.240 117.400,222.600 117.310,222.600 117.200 C 222.600 117.090,222.780 117.000,223.000 117.000 C 223.220 117.000,223.400 116.910,223.400 116.800 C 223.400 116.690,223.580 116.600,223.800 116.600 C 224.020 116.600,224.200 116.510,224.200 116.400 C 224.200 116.290,224.380 116.200,224.600 116.200 C 224.820 116.200,225.000 116.110,225.000 116.000 C 225.000 115.890,225.180 115.800,225.400 115.800 C 225.620 115.800,225.800 115.710,225.800 115.600 C 225.800 115.490,226.070 115.400,226.400 115.400 C 226.730 115.400,227.000 115.310,227.000 115.200 C 227.000 115.090,227.360 115.000,227.800 115.000 C 228.240 115.000,228.600 114.910,228.600 114.800 C 228.600 114.690,228.960 114.600,229.400 114.600 C 229.840 114.600,230.200 114.510,230.200 114.400 C 230.200 114.290,230.650 114.200,231.200 114.200 C 231.750 114.200,232.200 114.110,232.200 114.000 C 232.200 113.874,233.600 113.800,236.000 113.800 C 238.400 113.800,239.800 113.874,239.800 114.000 C 239.800 114.111,240.333 114.200,241.000 114.200 C 241.667 114.200,242.200 114.289,242.200 114.400 C 242.200 114.510,242.560 114.600,243.000 114.600 C 243.440 114.600,243.800 114.690,243.800 114.800 C 243.800 114.910,244.160 115.000,244.600 115.000 C 245.040 115.000,245.400 115.090,245.400 115.200 C 245.400 115.310,245.580 115.400,245.800 115.400 C 246.020 115.400,246.200 115.490,246.200 115.600 C 246.200 115.710,246.470 115.800,246.800 115.800 C 247.130 115.800,247.400 115.890,247.400 116.000 C 247.400 116.110,247.580 116.200,247.800 116.200 C 248.020 116.200,248.200 116.290,248.200 116.400 C 248.200 116.510,248.380 116.600,248.600 116.600 C 248.820 116.600,249.000 116.690,249.000 116.800 C 249.000 116.910,249.270 117.000,249.600 117.000 C 249.930 117.000,250.200 117.090,250.200 117.200 C 250.200 117.310,250.470 117.400,250.800 117.400 C 251.130 117.400,251.400 117.310,251.400 117.200 C 251.400 117.090,251.580 117.000,251.800 117.000 C 252.067 117.000,252.200 116.867,252.200 116.600 C 252.200 116.380,252.290 116.200,252.400 116.200 C 252.527 116.200,252.600 114.733,252.600 112.200 C 252.600 109.667,252.527 108.200,252.400 108.200 C 252.290 108.200,252.200 107.969,252.200 107.686 C 252.200 107.128,251.790 106.600,251.358 106.600 C 251.210 106.600,250.959 106.420,250.800 106.200 C 250.641 105.980,250.352 105.800,250.156 105.800 C 249.960 105.800,249.800 105.710,249.800 105.600 C 249.800 105.490,249.530 105.400,249.200 105.400 C 248.870 105.400,248.600 105.310,248.600 105.200 C 248.600 105.090,248.420 105.000,248.200 105.000 C 247.980 105.000,247.800 104.910,247.800 104.800 C 247.800 104.690,247.530 104.600,247.200 104.600 C 246.870 104.600,246.600 104.510,246.600 104.400 C 246.600 104.290,246.240 104.200,245.800 104.200 C 245.360 104.200,245.000 104.110,245.000 104.000 C 245.000 103.890,244.640 103.800,244.200 103.800 C 243.760 103.800,243.400 103.710,243.400 103.600 C 243.400 103.483,242.733 103.400,241.800 103.400 C 240.867 103.400,240.200 103.317,240.200 103.200 C 240.200 103.081,239.467 103.000,238.400 103.000 C 236.548 103.000,236.309 102.898,237.000 102.400 C 237.220 102.241,237.400 101.988,237.400 101.836 C 237.400 101.685,237.670 101.308,238.000 101.000 C 238.330 100.692,238.600 100.315,238.600 100.164 C 238.600 100.012,238.780 99.759,239.000 99.600 C 239.220 99.441,239.400 99.171,239.400 99.000 C 239.400 98.829,239.580 98.559,239.800 98.400 C 240.020 98.241,240.200 97.988,240.200 97.836 C 240.200 97.685,240.470 97.308,240.800 97.000 C 241.130 96.692,241.400 96.315,241.400 96.164 C 241.400 96.012,241.580 95.759,241.800 95.600 C 242.020 95.441,242.200 95.171,242.200 95.000 C 242.200 94.829,242.380 94.559,242.600 94.400 C 242.820 94.241,243.000 93.988,243.000 93.836 C 243.000 93.685,243.270 93.308,243.600 93.000 C 243.930 92.692,244.200 92.315,244.200 92.164 C 244.200 92.012,244.380 91.759,244.600 91.600 C 244.820 91.441,245.000 91.171,245.000 91.000 C 245.000 90.829,245.180 90.559,245.400 90.400 C 245.620 90.241,245.800 89.988,245.800 89.836 C 245.800 89.685,246.070 89.308,246.400 89.000 C 246.730 88.692,247.000 88.315,247.000 88.164 C 247.000 88.012,247.180 87.759,247.400 87.600 C 247.620 87.441,247.800 87.171,247.800 87.000 C 247.800 86.829,247.980 86.559,248.200 86.400 C 248.420 86.241,248.600 85.988,248.600 85.836 C 248.600 85.685,248.870 85.308,249.200 85.000 C 249.530 84.692,249.800 84.315,249.800 84.164 C 249.800 84.012,249.980 83.759,250.200 83.600 C 250.420 83.441,250.600 83.171,250.600 83.000 C 250.600 82.829,250.780 82.559,251.000 82.400 C 251.235 82.231,251.400 81.882,251.400 81.556 C 251.400 81.250,251.490 81.000,251.600 81.000 C 252.107 81.000,251.838 74.420,251.309 73.891 L 250.818 73.400 236.359 73.408 C 224.127 73.414,221.861 73.459,221.650 73.699 M344.200 74.800 C 344.200 74.910,343.950 75.000,343.644 75.000 C 343.318 75.000,342.969 75.165,342.800 75.400 C 342.641 75.620,342.390 75.800,342.242 75.800 C 341.893 75.800,341.400 76.293,341.400 76.642 C 341.400 76.790,341.220 77.041,341.000 77.200 C 340.765 77.369,340.600 77.718,340.600 78.044 C 340.600 78.350,340.510 78.600,340.400 78.600 C 340.280 78.600,340.200 79.400,340.200 80.600 C 340.200 81.800,340.280 82.600,340.400 82.600 C 340.510 82.600,340.600 82.780,340.600 83.000 C 340.600 83.220,340.690 83.400,340.800 83.400 C 340.910 83.400,341.000 83.539,341.000 83.709 C 341.000 84.087,341.882 85.000,342.247 85.000 C 342.392 85.000,342.641 85.180,342.800 85.400 C 342.969 85.635,343.318 85.800,343.644 85.800 C 343.950 85.800,344.200 85.890,344.200 86.000 C 344.200 86.119,344.933 86.200,346.000 86.200 C 347.067 86.200,347.800 86.119,347.800 86.000 C 347.800 85.890,348.050 85.800,348.356 85.800 C 348.682 85.800,349.031 85.635,349.200 85.400 C 349.359 85.180,349.648 85.000,349.844 85.000 C 350.040 85.000,350.200 84.856,350.200 84.680 C 350.200 84.504,350.470 84.108,350.800 83.800 C 351.169 83.455,351.400 83.039,351.400 82.720 C 351.400 82.434,351.490 82.200,351.600 82.200 C 351.719 82.200,351.800 81.467,351.800 80.400 C 351.800 79.333,351.719 78.600,351.600 78.600 C 351.490 78.600,351.400 78.420,351.400 78.200 C 351.400 77.980,351.310 77.800,351.200 77.800 C 351.090 77.800,351.000 77.663,351.000 77.496 C 351.000 76.972,348.870 75.000,348.304 75.000 C 348.027 75.000,347.800 74.910,347.800 74.800 C 347.800 74.681,347.067 74.600,346.000 74.600 C 344.933 74.600,344.200 74.681,344.200 74.800 M346.600 76.400 C 346.600 76.510,346.827 76.600,347.104 76.600 C 347.802 76.600,349.800 78.598,349.800 79.296 C 349.800 79.573,349.890 79.800,350.000 79.800 C 350.110 79.800,350.200 80.070,350.200 80.400 C 350.200 80.730,350.110 81.000,350.000 81.000 C 349.890 81.000,349.800 81.229,349.800 81.509 C 349.800 81.948,349.030 83.000,348.709 83.000 C 348.649 83.000,348.600 82.640,348.600 82.200 C 348.600 81.760,348.510 81.400,348.400 81.400 C 348.290 81.400,348.200 81.130,348.200 80.800 C 348.200 80.470,348.290 80.200,348.400 80.200 C 348.510 80.200,348.600 79.701,348.600 79.091 C 348.600 77.371,348.122 77.000,345.909 77.000 C 344.903 77.000,344.200 76.918,344.200 76.800 C 344.200 76.690,344.470 76.600,344.800 76.600 C 345.130 76.600,345.400 76.510,345.400 76.400 C 345.400 76.290,345.670 76.200,346.000 76.200 C 346.330 76.200,346.600 76.290,346.600 76.400 M343.400 80.400 C 343.400 82.050,343.349 83.400,343.286 83.400 C 343.051 83.400,342.600 82.817,342.600 82.514 C 342.600 82.341,342.510 82.200,342.400 82.200 C 342.290 82.200,342.200 82.020,342.200 81.800 C 342.200 81.580,342.110 81.400,342.000 81.400 C 341.890 81.400,341.800 80.950,341.800 80.400 C 341.800 79.850,341.890 79.400,342.000 79.400 C 342.110 79.400,342.200 79.240,342.200 79.044 C 342.200 78.848,342.380 78.559,342.600 78.400 C 342.820 78.241,343.000 77.952,343.000 77.756 C 343.000 77.560,343.090 77.400,343.200 77.400 C 343.324 77.400,343.400 78.533,343.400 80.400 M346.314 78.886 C 346.702 79.273,346.674 79.400,346.200 79.400 C 345.980 79.400,345.800 79.490,345.800 79.600 C 345.800 79.710,345.710 79.800,345.600 79.800 C 345.490 79.800,345.400 79.530,345.400 79.200 C 345.400 78.537,345.821 78.392,346.314 78.886 M346.200 81.800 C 346.200 82.020,346.290 82.200,346.400 82.200 C 346.510 82.200,346.600 82.560,346.600 83.000 C 346.600 83.756,346.633 83.800,347.200 83.800 C 347.530 83.800,347.800 83.890,347.800 84.000 C 347.800 84.110,347.530 84.200,347.200 84.200 C 346.870 84.200,346.600 84.290,346.600 84.400 C 346.600 84.510,346.240 84.600,345.800 84.600 C 345.360 84.600,345.000 84.510,345.000 84.400 C 345.000 84.290,344.820 84.200,344.600 84.200 C 344.380 84.200,344.200 84.110,344.200 84.000 C 344.200 83.890,344.470 83.800,344.800 83.800 L 345.400 83.800 345.400 82.600 C 345.400 81.533,345.444 81.400,345.800 81.400 C 346.067 81.400,346.200 81.533,346.200 81.800 M275.800 82.000 C 275.800 82.110,275.980 82.200,276.200 82.200 C 276.420 82.200,276.600 82.290,276.600 82.400 C 276.600 82.510,276.741 82.600,276.914 82.600 C 277.300 82.600,277.800 83.075,277.800 83.442 C 277.800 83.590,277.980 83.841,278.200 84.000 C 278.420 84.159,278.600 84.448,278.600 84.644 C 278.600 84.840,278.690 85.000,278.800 85.000 C 278.910 85.000,279.000 85.270,279.000 85.600 C 279.000 85.930,279.090 86.200,279.200 86.200 C 279.310 86.200,279.400 86.650,279.400 87.200 C 279.400 87.750,279.490 88.200,279.600 88.200 C 279.714 88.200,279.800 88.800,279.800 89.600 C 279.800 90.400,279.886 91.000,280.000 91.000 C 280.128 91.000,280.200 92.800,280.200 96.000 C 280.200 99.200,280.128 101.000,280.000 101.000 C 279.886 101.000,279.800 101.600,279.800 102.400 C 279.800 103.200,279.714 103.800,279.600 103.800 C 279.490 103.800,279.400 104.070,279.400 104.400 C 279.400 104.730,279.310 105.000,279.200 105.000 C 279.090 105.000,279.000 105.270,279.000 105.600 C 279.000 105.930,278.910 106.200,278.800 106.200 C 278.690 106.200,278.600 106.380,278.600 106.600 C 278.600 106.820,278.510 107.000,278.400 107.000 C 278.290 107.000,278.200 107.138,278.200 107.307 C 278.200 107.705,276.905 109.000,276.507 109.000 C 276.338 109.000,276.200 109.090,276.200 109.200 C 276.200 109.310,276.020 109.400,275.800 109.400 C 275.580 109.400,275.400 109.490,275.400 109.600 C 275.400 109.711,274.867 109.800,274.200 109.800 C 273.533 109.800,273.000 109.711,273.000 109.600 C 273.000 109.490,272.820 109.400,272.600 109.400 C 272.380 109.400,272.200 109.310,272.200 109.200 C 272.200 109.090,272.061 109.000,271.891 109.000 C 271.491 109.000,270.600 108.109,270.600 107.709 C 270.600 107.539,270.510 107.400,270.400 107.400 C 270.290 107.400,270.200 107.220,270.200 107.000 C 270.200 106.780,270.110 106.600,270.000 106.600 C 269.890 106.600,269.800 106.420,269.800 106.200 C 269.800 105.980,269.710 105.800,269.600 105.800 C 269.490 105.800,269.400 105.530,269.400 105.200 C 269.400 104.870,269.310 104.600,269.200 104.600 C 269.090 104.600,269.000 104.240,269.000 103.800 C 269.000 103.360,268.910 103.000,268.800 103.000 C 268.683 103.000,268.600 102.333,268.600 101.400 C 268.600 100.467,268.517 99.800,268.400 99.800 C 268.272 99.800,268.200 98.133,268.200 95.200 C 268.200 92.267,268.272 90.600,268.400 90.600 C 268.514 90.600,268.600 90.000,268.600 89.200 C 268.600 88.400,268.686 87.800,268.800 87.800 C 268.910 87.800,269.000 87.440,269.000 87.000 C 269.000 86.560,269.090 86.200,269.200 86.200 C 269.310 86.200,269.400 86.020,269.400 85.800 C 269.400 85.580,269.490 85.400,269.600 85.400 C 269.710 85.400,269.800 85.220,269.800 85.000 C 269.800 84.780,269.890 84.600,270.000 84.600 C 270.110 84.600,270.200 84.463,270.200 84.295 C 270.200 83.898,271.898 82.200,272.295 82.200 C 272.463 82.200,272.600 82.110,272.600 82.000 C 272.600 81.883,273.267 81.800,274.200 81.800 C 275.133 81.800,275.800 81.883,275.800 82.000 M94.600 100.000 C 94.600 101.867,94.524 103.000,94.400 103.000 C 94.290 103.000,94.200 103.360,94.200 103.800 C 94.200 104.240,94.110 104.600,94.000 104.600 C 93.890 104.600,93.800 104.780,93.800 105.000 C 93.800 105.220,93.710 105.400,93.600 105.400 C 93.490 105.400,93.400 105.580,93.400 105.800 C 93.400 106.020,93.310 106.200,93.200 106.200 C 93.090 106.200,93.000 106.337,93.000 106.504 C 93.000 106.899,90.499 109.400,90.104 109.400 C 89.937 109.400,89.800 109.490,89.800 109.600 C 89.800 110.025,86.318 109.842,86.000 109.400 C 85.841 109.180,85.590 109.000,85.442 109.000 C 85.075 109.000,84.600 108.500,84.600 108.114 C 84.600 107.941,84.510 107.800,84.400 107.800 C 84.290 107.800,84.200 107.620,84.200 107.400 C 84.200 107.180,84.110 107.000,84.000 107.000 C 83.890 107.000,83.800 106.730,83.800 106.400 C 83.800 106.070,83.710 105.800,83.600 105.800 C 83.489 105.800,83.400 105.267,83.400 104.600 C 83.400 103.933,83.489 103.400,83.600 103.400 C 83.710 103.400,83.800 103.040,83.800 102.600 C 83.800 102.160,83.890 101.800,84.000 101.800 C 84.110 101.800,84.200 101.620,84.200 101.400 C 84.200 101.180,84.290 101.000,84.400 101.000 C 84.510 101.000,84.600 100.862,84.600 100.693 C 84.600 100.319,85.885 99.000,86.249 99.000 C 86.394 99.000,86.641 98.820,86.800 98.600 C 86.959 98.380,87.248 98.200,87.444 98.200 C 87.640 98.200,87.800 98.110,87.800 98.000 C 87.800 97.890,88.070 97.800,88.400 97.800 C 88.730 97.800,89.000 97.710,89.000 97.600 C 89.000 97.490,89.360 97.400,89.800 97.400 C 90.240 97.400,90.600 97.310,90.600 97.200 C 90.600 97.080,91.400 97.000,92.600 97.000 L 94.600 97.000 94.600 100.000 M200.200 100.000 C 200.200 101.867,200.124 103.000,200.000 103.000 C 199.890 103.000,199.800 103.360,199.800 103.800 C 199.800 104.240,199.710 104.600,199.600 104.600 C 199.490 104.600,199.400 104.780,199.400 105.000 C 199.400 105.220,199.310 105.400,199.200 105.400 C 199.090 105.400,199.000 105.580,199.000 105.800 C 199.000 106.020,198.910 106.200,198.800 106.200 C 198.690 106.200,198.600 106.337,198.600 106.504 C 198.600 106.899,196.099 109.400,195.704 109.400 C 195.537 109.400,195.400 109.490,195.400 109.600 C 195.400 110.025,191.918 109.842,191.600 109.400 C 191.441 109.180,191.190 109.000,191.042 109.000 C 190.675 109.000,190.200 108.500,190.200 108.114 C 190.200 107.941,190.110 107.800,190.000 107.800 C 189.890 107.800,189.800 107.620,189.800 107.400 C 189.800 107.180,189.710 107.000,189.600 107.000 C 189.490 107.000,189.400 106.730,189.400 106.400 C 189.400 106.070,189.310 105.800,189.200 105.800 C 189.089 105.800,189.000 105.267,189.000 104.600 C 189.000 103.933,189.089 103.400,189.200 103.400 C 189.310 103.400,189.400 103.040,189.400 102.600 C 189.400 102.160,189.490 101.800,189.600 101.800 C 189.710 101.800,189.800 101.620,189.800 101.400 C 189.800 101.180,189.890 101.000,190.000 101.000 C 190.110 101.000,190.200 100.862,190.200 100.693 C 190.200 100.319,191.485 99.000,191.849 99.000 C 191.994 99.000,192.241 98.820,192.400 98.600 C 192.559 98.380,192.848 98.200,193.044 98.200 C 193.240 98.200,193.400 98.110,193.400 98.000 C 193.400 97.890,193.670 97.800,194.000 97.800 C 194.330 97.800,194.600 97.710,194.600 97.600 C 194.600 97.490,194.960 97.400,195.400 97.400 C 195.840 97.400,196.200 97.310,196.200 97.200 C 196.200 97.080,197.000 97.000,198.200 97.000 L 200.200 97.000 200.200 100.000 " stroke="none" fill="#1c1c1c" fill-rule="evenodd"></path><path id="path2" d="" stroke="none" fill="#c09018" fill-rule="evenodd"></path><path id="path3" d="" stroke="none" fill="#505818" fill-rule="evenodd"></path><path id="path4" d="" stroke="none" fill="#541c18" fill-rule="evenodd"></path></g></svg>