<svg width="324" height="204" xmlns="http://www.w3.org/2000/svg"><g fill="none" fill-rule="evenodd"><path d="M238.917 2.875h-.357c-7.918 1.053-10.036 8.37-10.5 13.806l.002 13.686h25.61a2.354 2.354 0 002.352-2.428c-.68-21.097-10.251-24.596-14.789-25.064l-2.353.005.035-.005" fill="#F3F3F3"/><path d="M238.917 2.875h-.357c-7.918 1.053-10.036 8.37-10.5 13.806l.002 13.686h25.61a2.354 2.354 0 002.352-2.428c-.68-21.097-10.251-24.596-14.789-25.064l-2.353.005.035-.005z" stroke="#C4C4C4" stroke-width="1.28" stroke-linecap="round"/><path d="M238.917 2.875h2.318c-1.266-.13-2.138-.025-2.318 0" fill="#FFF"/><path d="M238.917 2.875h2.318c-1.266-.13-2.138-.025-2.318 0z" stroke="#C4C4C4" stroke-width="1.28" stroke-linecap="round"/><path d="M228.061 16.682c.463-5.438 2.581-12.754 10.498-13.807h.358a.37.37 0 01-.036.005l2.355-.005c3.111.32 8.591 2.07 11.947 9.945-.003.002.004 1.32 0 1.323-7.028-5.491-11.625-4.079-14.302-2.701-2.364 1.217-3.202 3.964-3.202 6.627v12.007l-7.617.29V16.683z" fill="#CFD2D5"/><path d="M238.917 2.875h-.357c-7.918 1.053-10.036 8.37-10.5 13.806l.002 13.686h25.61a2.354 2.354 0 002.352-2.428c-.68-21.097-10.251-24.596-14.789-25.064l-2.353.005.035-.005z" stroke="#1F2E3D" stroke-width="4" stroke-linecap="round"/><path d="M240.568 2.747l-136.424.26c-7.73 0-13.996 6.255-13.996 13.97v157.21H196.25a2.35 2.35 0 012.352 2.274c.638 21.213 10.228 24.742 14.78 25.216h-109.97c.242.014.486.02.73.02h109.928c7.73 0 13.997-6.255 13.997-13.97 0 0-.005-170.947-.007-171.045.5-5.872 2.928-13.935 12.507-13.935" fill="#FFF"/><path d="M240.568 2.747l-136.424.26c-7.73 0-13.996 6.255-13.996 13.97v157.21H196.25a2.35 2.35 0 012.352 2.274c.638 21.213 10.228 24.742 14.78 25.216h-109.97c.242.014.486.02.73.02h109.928c7.73 0 13.997-6.255 13.997-13.97 0 0-.005-170.947-.007-171.045.5-5.872 2.928-13.935 12.507-13.935z" stroke="#C4C4C4" stroke-width="1.28" stroke-linecap="round"/><path d="M189.073 53.647c.02-7.984-6.465-14.595-14.463-14.734a14.708 14.708 0 00-11.769 5.524.168.168 0 01-.263 0 14.708 14.708 0 00-11.77-5.524c-7.882.137-14.325 6.568-14.46 14.437a12.787 12.787 0 00.861 4.898c.685 1.773 1.789 3.356 3.162 4.673l22.167 21.26a.17.17 0 00.254.002l21.775-20.176c1.336-1.237 2.446-2.705 3.205-4.358.162-.352.308-.711.44-1.078.553-1.538.857-3.197.861-4.924" fill="#CFD2D5"/><path d="M187.073 48.647c.02-7.984-6.465-14.595-14.463-14.734a14.708 14.708 0 00-11.769 5.524.168.168 0 01-.263 0 14.708 14.708 0 00-11.77-5.524c-7.882.137-14.325 6.568-14.46 14.437a12.787 12.787 0 00.861 4.898c.685 1.773 1.789 3.356 3.162 4.673l22.167 21.26a.17.17 0 00.254.002l21.775-20.176c1.336-1.237 2.446-2.705 3.205-4.358.162-.352.308-.711.44-1.078.553-1.538.857-3.197.861-4.924z" stroke="#1F2E3D" stroke-width="4" stroke-linecap="round"/><path d="M121.918 105.979a4.898 4.898 0 01-4.903 4.893 4.898 4.898 0 01-4.903-4.893 4.898 4.898 0 014.903-4.894 4.898 4.898 0 014.903 4.894M202.762 109.404H134.1a3.43 3.43 0 01-3.432-3.426 3.43 3.43 0 013.432-3.426h68.662a3.43 3.43 0 013.432 3.426 3.43 3.43 0 01-3.432 3.426" fill="#CFD2D5"/><path d="M202.762 109.404H134.1a3.43 3.43 0 01-3.432-3.426 3.43 3.43 0 013.432-3.426h68.662a3.43 3.43 0 013.432 3.426 3.43 3.43 0 01-3.432 3.426z" stroke="#CFD2D5" stroke-width="1.28" stroke-linecap="round"/><path d="M121.918 124.38a4.898 4.898 0 01-4.903 4.895 4.899 4.899 0 01-4.903-4.894 4.898 4.898 0 014.903-4.894 4.898 4.898 0 014.903 4.894M202.762 127.807H134.1a3.43 3.43 0 01-3.432-3.426 3.428 3.428 0 013.432-3.426h68.662a3.43 3.43 0 013.432 3.426 3.43 3.43 0 01-3.432 3.426" fill="#CFD2D5"/><path d="M202.762 127.807H134.1a3.43 3.43 0 01-3.432-3.426 3.428 3.428 0 013.432-3.426h68.662a3.43 3.43 0 013.432 3.426 3.43 3.43 0 01-3.432 3.426z" stroke="#CFD2D5" stroke-width="1.28" stroke-linecap="round"/><path d="M121.918 142.783a4.898 4.898 0 01-4.903 4.894 4.899 4.899 0 01-4.903-4.894 4.898 4.898 0 014.903-4.894 4.898 4.898 0 014.903 4.894M202.762 146.209H134.1a3.43 3.43 0 01-3.432-3.426 3.428 3.428 0 013.432-3.426h68.662a3.43 3.43 0 013.432 3.426 3.43 3.43 0 01-3.432 3.426" fill="#CFD2D5"/><path d="M202.762 146.209H134.1a3.43 3.43 0 01-3.432-3.426 3.428 3.428 0 013.432-3.426h68.662a3.43 3.43 0 013.432 3.426 3.43 3.43 0 01-3.432 3.426z" stroke="#CFD2D5" stroke-width="1.28" stroke-linecap="round"/><path d="M306.917 116.52l1.453-5.934c.13-.536.894-.536 1.026 0l1.453 5.934a7.952 7.952 0 005.841 5.83l5.945 1.45c.537.13.537.893 0 1.024l-5.945 1.45a7.95 7.95 0 00-5.84 5.83l-1.454 5.934c-.132.536-.895.536-1.026 0l-1.453-5.933a7.952 7.952 0 00-5.84-5.83l-5.946-1.451c-.537-.131-.537-.894 0-1.025l5.945-1.45a7.953 7.953 0 005.84-5.83" fill="#FFF"/><path d="M306.917 116.52l1.453-5.934c.13-.536.894-.536 1.026 0l1.453 5.934a7.952 7.952 0 005.841 5.83l5.945 1.45c.537.13.537.893 0 1.024l-5.945 1.45a7.95 7.95 0 00-5.84 5.83l-1.454 5.934c-.132.536-.895.536-1.026 0l-1.453-5.933a7.952 7.952 0 00-5.84-5.83l-5.946-1.451c-.537-.131-.537-.894 0-1.025l5.945-1.45a7.953 7.953 0 005.84-5.83z" fill="#CFD2D5"/><path d="M13.738 35.001l1.453-5.933c.13-.536.894-.536 1.026 0l1.453 5.933a7.95 7.95 0 005.841 5.83l5.944 1.45c.538.131.538.894 0 1.026l-5.944 1.45a7.95 7.95 0 00-5.84 5.83l-1.454 5.933c-.132.537-.895.537-1.026 0l-1.453-5.934a7.952 7.952 0 00-5.841-5.83l-5.945-1.45c-.537-.13-.537-.894 0-1.024l5.945-1.45a7.952 7.952 0 005.84-5.83M276.722 73.382l.692-2.826c.063-.255.427-.255.49 0l.69 2.826a3.787 3.787 0 002.782 2.776l2.83.69c.257.063.257.426 0 .489l-2.83.69a3.789 3.789 0 00-2.782 2.776l-.69 2.825c-.063.256-.427.256-.49 0l-.692-2.825a3.789 3.789 0 00-2.781-2.777l-2.831-.69c-.255-.062-.255-.425 0-.488l2.831-.69a3.787 3.787 0 002.781-2.776" fill="#1F2E3D"/><path d="M42.682 58.576c.063-.256.427-.256.49 0l.692 2.825a3.782 3.782 0 002.78 2.776l2.831.69c.256.063.256.426 0 .489l-2.83.69a3.782 3.782 0 00-2.781 2.776l-.692 2.825c-.063.256-.427.256-.49 0l-.692-2.825a3.782 3.782 0 00-2.78-2.776l-2.831-.69c-.256-.063-.256-.426 0-.489l2.83-.69A3.782 3.782 0 0041.99 61.4l.692-2.825z" fill="#CFD2D5"/><path d="M41.99 61.4l.692-2.824c.063-.256.427-.256.49 0l.692 2.825a3.782 3.782 0 002.78 2.776l2.831.69c.256.063.256.426 0 .489l-2.83.69a3.782 3.782 0 00-2.781 2.776l-.692 2.825c-.063.256-.427.256-.49 0l-.692-2.825a3.782 3.782 0 00-2.78-2.776l-2.831-.69c-.256-.063-.256-.426 0-.489l2.83-.69A3.782 3.782 0 0041.99 61.4z" stroke="#CFD2D5" stroke-width="1.28" stroke-linecap="round"/><path d="M240.568 2.747l-136.424.26c-7.73 0-13.996 6.255-13.996 13.97v157.21H196.25a2.35 2.35 0 012.352 2.274c.638 21.213 10.228 24.742 14.78 25.216h-109.97c.242.014.486.02.73.02h109.928c7.73 0 13.997-6.255 13.997-13.97 0 0-.005-170.947-.007-171.045.5-5.872 2.928-13.935 12.507-13.935z" stroke="#1F2E3D" stroke-width="4" stroke-linecap="round"/><path d="M196.252 174.187H77.79c-1.33 0-2.396 1.1-2.354 2.428.681 21.097 10.252 24.596 14.79 25.063l2.354-.005s-.93.152-2.354.005l123.158-.001c-4.554-.474-14.143-4.003-14.78-25.216a2.35 2.35 0 00-2.352-2.274" fill="#F3F3F3"/><path d="M196.252 174.187H77.79c-1.33 0-2.396 1.1-2.354 2.428.681 21.097 10.252 24.596 14.79 25.063l2.354-.005s-.93.152-2.354.005l123.158-.001c-4.554-.474-14.143-4.003-14.78-25.216a2.35 2.35 0 00-2.352-2.274z" stroke="#1F2E3D" stroke-width="4" stroke-linecap="round"/></g></svg>