<?xml version="1.0" encoding="UTF-8"?>
<svg width="150px" height="27px" viewBox="0 0 150 27" version="1.1" xmlns="http://www.w3.org/2000/svg"
     xmlns:xlink="http://www.w3.org/1999/xlink">
    <title>4F8C7F0F-88C9-4C87-8D36-25FB171419BE@1x</title>
    <g id="Overviews" stroke="none" stroke-width="1" fill="none" fill-rule="evenodd">
        <g id="Font-Family" transform="translate(-80.000000, -1184.000000)" fill="#F08B7A">
            <path
                d="M90.0017216,1211 C95.1346806,1211 98.9089151,1208.36034 98.9089151,1202.85475 C98.9089151,1198.10335 95.6630734,1196.2933 91.6246424,1195.23743 C88.1146043,1194.3324 86.6049105,1193.46508 86.6049105,1191.39106 C86.6049105,1189.46788 88.2278313,1188.52514 90.0394639,1188.52514 C91.8133542,1188.52514 93.5117597,1189.39246 94.3420913,1191.65503 L98.3050376,1189.65642 C97.2482519,1186.52654 94.6440301,1184 90.0394639,1184 C84.9819896,1184 81.6984056,1186.94134 81.6984056,1191.27793 C81.6984056,1195.35056 84.0006886,1197.5 88.2278313,1198.85754 C92.3040047,1200.17737 94.0024102,1200.81844 94.0024102,1203.0433 C94.0024102,1205.26816 92.4927164,1206.47486 90.152691,1206.47486 C86.3784564,1206.47486 84.8687626,1204.02374 84.3403697,1201.61034 L80,1203.23184 C81.0190433,1208.39804 85.019732,1211 90.0017216,1211 Z M112.921258,1210.69832 L112.921258,1198.93296 L121.375543,1198.93296 L121.375543,1210.69832 L126.282048,1210.69832 L126.282048,1184.30168 L121.375543,1184.30168 L121.375543,1194.40782 L112.921258,1194.40782 L112.921258,1184.30168 L108.014753,1184.30168 L108.014753,1210.69832 L112.921258,1210.69832 Z M138.595985,1210.69832 L140.44536,1204.55168 L148.597706,1204.55168 L150.447081,1210.69832 L155.504556,1210.69832 L147.20124,1184.30168 L141.841826,1184.30168 L133.53851,1210.69832 L138.595985,1210.69832 Z M147.238982,1200.02654 L141.804084,1200.02654 L144.521533,1190.90084 L147.238982,1200.02654 Z M168.837536,1210.69832 L168.837536,1200.36592 L173.517587,1200.36592 C179.103454,1200.36592 181.78316,1196.93436 181.78316,1192.3338 C181.78316,1187.73324 179.103454,1184.30168 173.517587,1184.30168 L163.931031,1184.30168 L163.931031,1210.69832 L168.837536,1210.69832 Z M173.328875,1195.84078 L168.837536,1195.84078 L168.837536,1188.82682 L173.328875,1188.82682 C175.480189,1188.82682 176.801171,1189.92039 176.801171,1192.3338 C176.801171,1194.74721 175.480189,1195.84078 173.328875,1195.84078 Z M208.13725,1210.69832 L208.13725,1206.17318 L195.90873,1206.17318 L195.90873,1198.89525 L205.872709,1198.89525 L205.872709,1194.37011 L195.90873,1194.37011 L195.90873,1188.82682 L207.759826,1188.82682 L207.759826,1184.30168 L191.002225,1184.30168 L191.002225,1210.69832 L208.13725,1210.69832 Z M226.640931,1211 C228.565791,1211 230,1209.56704 230,1207.64385 C230,1205.72067 228.565791,1204.28771 226.640931,1204.28771 C224.716072,1204.28771 223.281862,1205.72067 223.281862,1207.64385 C223.281862,1209.56704 224.716072,1211 226.640931,1211 Z"
                id="SHAPE."></path>
        </g>
    </g>
</svg>
