<?xml version="1.0" encoding="utf-8"?>
<!-- Generator: Adobe Illustrator 17.0.2, SVG Export Plug-In . SVG Version: 6.00 Build 0)  -->
<!DOCTYPE svg PUBLIC "-//W3C//DTD SVG 1.1//EN" "http://www.w3.org/Graphics/SVG/1.1/DTD/svg11.dtd">
<svg version="1.1" id="Layer_1" xmlns="http://www.w3.org/2000/svg" xmlns:xlink="http://www.w3.org/1999/xlink" x="0px" y="0px"
	 width="310px" height="180px" viewBox="0 0 310 180" enable-background="new 0 0 310 180" xml:space="preserve">
<g>
	<g>
		<path fill="#F0F0F0" d="M20,179.5c-7.995,0-14.5-6.235-14.5-13.899V14.4C5.5,6.735,12.005,0.5,20,0.5h270
			c7.995,0,14.5,6.235,14.5,13.9v151.201c0,7.664-6.505,13.899-14.5,13.899H20z"/>
		<path fill="#E0E0E0" d="M290,1c7.72,0,14,6.011,14,13.4v151.2c0,7.389-6.28,13.4-14,13.4H20c-7.72,0-14-6.011-14-13.4V14.4
			C6,7.011,12.28,1,20,1H290 M290,0H20C11.716,0,5,6.447,5,14.4v151.2c0,7.953,6.716,14.4,15,14.4h270c8.285,0,15-6.447,15-14.4
			V14.4C305,6.447,298.285,0,290,0L290,0z"/>
	</g>
	<text transform="matrix(1 0 0 1 32 114)" fill="#C0C0C0" font-family="'OCRAStd'" font-size="18">XXXX XXXX XXXX XXXX</text>
	<g>
		<path fill="#FFFFFF" d="M263.427,115.073c-17.686,0-32.073-14.389-32.073-32.074c0-17.685,14.388-32.072,32.073-32.072
			S295.5,65.315,295.5,83C295.5,100.685,281.112,115.073,263.427,115.073z"/>
		<path fill="#333333" d="M263.427,52.427c16.858,0,30.573,13.715,30.573,30.572c0,16.858-13.715,30.573-30.573,30.573
			c-16.858,0-30.573-13.715-30.573-30.573C232.853,66.142,246.569,52.427,263.427,52.427 M263.427,49.427
			c-18.542,0-33.573,15.031-33.573,33.572c0,18.542,15.031,33.573,33.573,33.573c18.542,0,33.573-15.031,33.573-33.573
			C297,64.459,281.969,49.427,263.427,49.427L263.427,49.427z"/>
	</g>
	<text transform="matrix(1 0 0 1 247 89)" fill="#FF0000" font-family="'OCRAStd'" font-size="14">XXX</text>
</g>
</svg>
