<?xml version="1.0" encoding="utf-8"?>
<!-- Generator: Adobe Illustrator 17.0.2, SVG Export Plug-In . SVG Version: 6.00 Build 0)  -->
<!DOCTYPE svg PUBLIC "-//W3C//DTD SVG 1.1//EN" "http://www.w3.org/Graphics/SVG/1.1/DTD/svg11.dtd">
<svg version="1.1" id="Layer_1" xmlns="http://www.w3.org/2000/svg" xmlns:xlink="http://www.w3.org/1999/xlink" x="0px" y="0px"
	 width="310px" height="180px" viewBox="0 0 310 180" enable-background="new 0 0 310 180" xml:space="preserve">
<g>
	<g>
		<path fill="#F0F0F0" d="M301.5,165.6c0,7.953-6.715,14.4-15,14.4h-270c-8.284,0-15-6.447-15-14.4V14.4C1.5,6.447,8.216,0,16.5,0
			h270c8.285,0,15,6.447,15,14.4V165.6z"/>
	</g>
	<rect x="1.5" y="35" fill="#555555" width="300" height="40"/>
	<rect x="1.5" y="75" fill="#FFFFFF" width="300" height="40"/>
	<g>
		<path fill="#FFFFFF" d="M274.927,127.073c-17.686,0-32.073-14.389-32.073-32.074c0-17.685,14.388-32.072,32.073-32.072
			S307,77.314,307,94.999C307,112.685,292.612,127.073,274.927,127.073z"/>
		<path fill="#333333" d="M274.927,64.427c16.858,0,30.573,13.715,30.573,30.572c0,16.858-13.715,30.573-30.573,30.573
			c-16.858,0-30.573-13.715-30.573-30.573C244.354,78.142,258.069,64.427,274.927,64.427 M274.927,61.427
			c-18.542,0-33.573,15.031-33.573,33.572c0,18.542,15.031,33.573,33.573,33.573c18.542,0,33.573-15.031,33.573-33.573
			C308.5,76.459,293.469,61.427,274.927,61.427L274.927,61.427z"/>
	</g>
	<text transform="matrix(1 0 0 1 139.5 102)"><tspan x="0" y="0" fill="#C0C0C0" font-family="'OCRAStd'" font-size="18">XXXXXXX  </tspan><tspan x="116.638" y="0" fill="#FF0000" font-family="'OCRAStd'" font-size="18">XXX</tspan></text>
</g>
</svg>
