<svg id="svg" version="1.1" xmlns="http://www.w3.org/2000/svg" xmlns:xlink="http://www.w3.org/1999/xlink" width="400" height="200" viewBox="0, 0, 400,200"><g id="svgg"><path id="path0" d="M222.300 77.600 C 222.232 77.710,221.642 77.800,220.988 77.800 C 220.329 77.800,219.800 77.889,219.800 78.000 C 219.800 78.110,219.400 78.200,218.912 78.200 C 218.423 78.200,217.968 78.290,217.900 78.400 C 217.832 78.510,217.562 78.600,217.300 78.600 C 217.038 78.600,216.768 78.690,216.700 78.800 C 216.632 78.910,216.362 79.000,216.100 79.000 C 215.838 79.000,215.568 79.090,215.500 79.200 C 215.432 79.310,215.202 79.400,214.988 79.400 C 214.775 79.400,214.600 79.490,214.600 79.600 C 214.600 79.710,214.420 79.800,214.200 79.800 C 213.980 79.800,213.800 79.890,213.800 80.000 C 213.800 80.110,213.620 80.200,213.400 80.200 C 213.180 80.200,213.000 80.290,213.000 80.400 C 213.000 80.510,212.882 80.600,212.738 80.600 C 212.593 80.600,212.282 80.780,212.046 81.000 C 211.810 81.220,211.528 81.400,211.419 81.400 C 211.108 81.400,208.600 83.990,208.600 84.311 C 208.600 84.470,208.527 84.600,208.437 84.600 C 208.204 84.600,207.400 86.165,207.400 86.619 C 207.400 86.829,207.310 87.000,207.200 87.000 C 207.090 87.000,207.000 87.265,207.000 87.588 C 207.000 87.912,206.910 88.232,206.800 88.300 C 206.690 88.368,206.600 89.005,206.600 89.715 L 206.600 91.007 211.950 90.953 L 217.300 90.900 217.362 90.150 C 217.396 89.738,217.509 89.400,217.612 89.400 C 217.715 89.400,217.800 89.220,217.800 89.000 C 217.800 88.780,217.890 88.600,218.000 88.600 C 218.110 88.600,218.200 88.462,218.200 88.293 C 218.200 87.920,219.299 86.805,220.051 86.416 C 220.353 86.260,220.600 86.058,220.600 85.966 C 220.600 85.875,220.780 85.800,221.000 85.800 C 221.220 85.800,221.400 85.710,221.400 85.600 C 221.400 85.490,221.620 85.400,221.888 85.400 C 222.157 85.400,222.432 85.310,222.500 85.200 C 222.568 85.090,222.888 85.000,223.212 85.000 C 223.535 85.000,223.800 84.910,223.800 84.800 C 223.800 84.674,225.200 84.600,227.600 84.600 C 230.000 84.600,231.400 84.674,231.400 84.800 C 231.400 84.910,231.760 85.000,232.200 85.000 C 232.640 85.000,233.000 85.090,233.000 85.200 C 233.000 85.310,233.126 85.400,233.281 85.400 C 233.647 85.400,235.191 86.202,235.688 86.650 C 235.901 86.843,236.155 87.000,236.252 87.000 C 236.481 87.000,237.000 87.519,237.000 87.748 C 237.000 87.845,237.157 88.104,237.350 88.322 C 237.845 88.885,238.200 89.543,238.200 89.897 C 238.200 90.064,238.290 90.200,238.400 90.200 C 238.510 90.200,238.600 90.560,238.600 91.000 C 238.600 91.440,238.690 91.800,238.800 91.800 C 238.911 91.800,239.000 92.333,239.000 93.000 L 239.000 94.200 237.312 94.200 C 236.383 94.200,235.568 94.290,235.500 94.400 C 235.421 94.527,232.831 94.600,228.388 94.600 C 223.863 94.600,221.400 94.670,221.400 94.800 C 221.400 94.917,220.733 95.000,219.800 95.000 C 218.867 95.000,218.200 95.083,218.200 95.200 C 218.200 95.310,217.710 95.400,217.112 95.400 C 216.513 95.400,215.968 95.490,215.900 95.600 C 215.832 95.710,215.472 95.800,215.100 95.800 C 214.728 95.800,214.368 95.890,214.300 96.000 C 214.232 96.110,213.912 96.200,213.588 96.200 C 213.265 96.200,213.000 96.290,213.000 96.400 C 213.000 96.510,212.780 96.600,212.512 96.600 C 212.243 96.600,211.968 96.690,211.900 96.800 C 211.832 96.910,211.602 97.000,211.388 97.000 C 211.175 97.000,211.000 97.090,211.000 97.200 C 211.000 97.310,210.820 97.400,210.600 97.400 C 210.380 97.400,210.200 97.490,210.200 97.600 C 210.200 97.710,210.020 97.800,209.800 97.800 C 209.580 97.800,209.400 97.890,209.400 98.000 C 209.400 98.110,209.282 98.200,209.138 98.200 C 208.993 98.200,208.682 98.380,208.446 98.600 C 208.210 98.820,207.940 99.000,207.845 99.000 C 207.594 99.000,205.800 100.836,205.800 101.093 C 205.800 101.213,205.620 101.441,205.400 101.600 C 205.180 101.759,205.000 102.097,205.000 102.353 C 205.000 102.816,204.806 103.710,203.884 107.500 C 203.388 109.538,203.239 111.800,203.600 111.800 C 203.710 111.800,203.800 112.160,203.800 112.600 C 203.800 113.040,203.890 113.400,204.000 113.400 C 204.110 113.400,204.200 113.571,204.200 113.781 C 204.200 114.235,205.004 115.800,205.237 115.800 C 205.327 115.800,205.400 115.931,205.400 116.091 C 205.400 116.471,208.729 119.800,209.109 119.800 C 209.269 119.800,209.400 119.890,209.400 120.000 C 209.400 120.110,209.580 120.200,209.800 120.200 C 210.020 120.200,210.200 120.290,210.200 120.400 C 210.200 120.510,210.380 120.600,210.600 120.600 C 210.820 120.600,211.000 120.690,211.000 120.800 C 211.000 120.910,211.180 121.000,211.400 121.000 C 211.620 121.000,211.800 121.090,211.800 121.200 C 211.800 121.310,211.975 121.400,212.188 121.400 C 212.402 121.400,212.632 121.490,212.700 121.600 C 212.768 121.710,213.038 121.800,213.300 121.800 C 213.562 121.800,213.832 121.890,213.900 122.000 C 213.968 122.110,214.328 122.200,214.700 122.200 C 215.072 122.200,215.432 122.290,215.500 122.400 C 215.568 122.510,216.203 122.600,216.912 122.600 C 217.637 122.600,218.200 122.687,218.200 122.800 C 218.200 122.926,219.629 123.000,222.088 123.000 C 224.465 123.000,226.024 122.922,226.100 122.800 C 226.168 122.690,226.798 122.600,227.500 122.600 C 228.202 122.600,228.832 122.510,228.900 122.400 C 228.968 122.290,229.328 122.200,229.700 122.200 C 230.072 122.200,230.432 122.110,230.500 122.000 C 230.568 121.890,230.888 121.800,231.212 121.800 C 231.535 121.800,231.800 121.710,231.800 121.600 C 231.800 121.490,232.020 121.400,232.288 121.400 C 232.557 121.400,232.832 121.310,232.900 121.200 C 232.968 121.090,233.198 121.000,233.412 121.000 C 233.625 121.000,233.800 120.910,233.800 120.800 C 233.800 120.690,233.980 120.600,234.200 120.600 C 234.420 120.600,234.600 120.510,234.600 120.400 C 234.600 120.290,234.718 120.200,234.862 120.200 C 235.007 120.200,235.318 120.020,235.554 119.800 C 235.790 119.580,236.066 119.400,236.168 119.400 C 236.269 119.400,236.723 119.040,237.176 118.600 C 237.630 118.160,238.073 117.800,238.161 117.800 C 238.249 117.800,238.632 117.480,239.011 117.088 L 239.700 116.376 239.800 118.838 L 239.900 121.300 244.686 121.354 C 249.442 121.407,250.197 121.317,249.640 120.760 C 249.458 120.578,249.400 117.018,249.400 105.960 C 249.400 96.387,249.332 91.400,249.200 91.400 C 249.090 91.400,249.000 91.131,249.000 90.802 C 249.000 90.067,248.180 87.983,247.163 86.132 C 246.743 85.369,246.400 84.701,246.400 84.648 C 246.400 84.168,243.744 81.001,243.342 81.000 C 243.255 81.000,242.990 80.820,242.754 80.600 C 242.518 80.380,242.207 80.200,242.062 80.200 C 241.918 80.200,241.800 80.110,241.800 80.000 C 241.800 79.890,241.668 79.800,241.506 79.800 C 241.344 79.800,240.892 79.620,240.500 79.400 C 240.108 79.180,239.616 79.000,239.406 79.000 C 239.196 79.000,238.968 78.910,238.900 78.800 C 238.832 78.690,238.562 78.600,238.300 78.600 C 238.038 78.600,237.768 78.510,237.700 78.400 C 237.632 78.290,237.272 78.200,236.900 78.200 C 236.528 78.200,236.168 78.110,236.100 78.000 C 236.032 77.890,235.492 77.800,234.900 77.800 C 234.308 77.800,233.768 77.710,233.700 77.600 C 233.622 77.474,231.502 77.400,228.000 77.400 C 224.498 77.400,222.378 77.474,222.300 77.600 M239.000 103.000 C 239.000 103.933,238.917 104.600,238.800 104.600 C 238.690 104.600,238.600 105.050,238.600 105.600 C 238.600 106.150,238.510 106.600,238.400 106.600 C 238.290 106.600,238.200 106.870,238.200 107.200 C 238.200 107.530,238.110 107.800,238.000 107.800 C 237.890 107.800,237.800 107.926,237.800 108.081 C 237.800 108.447,236.998 109.991,236.550 110.488 C 236.357 110.701,236.200 110.951,236.200 111.043 C 236.200 111.261,234.461 113.000,234.243 113.000 C 234.151 113.000,233.901 113.158,233.688 113.350 C 233.191 113.798,231.647 114.600,231.281 114.600 C 231.126 114.600,231.000 114.690,231.000 114.800 C 231.000 114.910,230.780 115.000,230.512 115.000 C 230.243 115.000,229.968 115.090,229.900 115.200 C 229.832 115.310,229.472 115.400,229.100 115.400 C 228.728 115.400,228.368 115.490,228.300 115.600 C 228.232 115.710,227.512 115.800,226.700 115.800 C 225.888 115.800,225.168 115.890,225.100 116.000 C 225.032 116.110,224.627 116.200,224.200 116.200 C 223.773 116.200,223.368 116.110,223.300 116.000 C 223.232 115.890,222.597 115.800,221.888 115.800 C 221.163 115.800,220.600 115.713,220.600 115.600 C 220.600 115.490,220.335 115.400,220.012 115.400 C 219.688 115.400,219.368 115.310,219.300 115.200 C 219.232 115.090,218.957 115.000,218.688 115.000 C 218.420 115.000,218.200 114.925,218.200 114.834 C 218.200 114.742,217.954 114.540,217.653 114.384 C 216.897 113.991,215.000 112.076,215.000 111.704 C 215.000 111.537,214.910 111.400,214.800 111.400 C 214.690 111.400,214.600 111.180,214.600 110.912 C 214.600 110.643,214.510 110.368,214.400 110.300 C 214.290 110.232,214.200 109.557,214.200 108.800 C 214.200 108.043,214.290 107.368,214.400 107.300 C 214.510 107.232,214.600 106.957,214.600 106.688 C 214.600 106.420,214.690 106.200,214.800 106.200 C 214.910 106.200,215.000 106.062,215.000 105.893 C 215.000 105.520,216.099 104.405,216.851 104.016 C 217.153 103.860,217.400 103.658,217.400 103.566 C 217.400 103.475,217.580 103.400,217.800 103.400 C 218.020 103.400,218.200 103.310,218.200 103.200 C 218.200 103.090,218.470 103.000,218.800 103.000 C 219.130 103.000,219.400 102.910,219.400 102.800 C 219.400 102.690,219.760 102.600,220.200 102.600 C 220.640 102.600,221.000 102.510,221.000 102.400 C 221.000 102.289,221.533 102.200,222.200 102.200 C 222.867 102.200,223.400 102.111,223.400 102.000 C 223.400 101.874,224.733 101.800,227.000 101.800 C 229.267 101.800,230.600 101.726,230.600 101.600 C 230.600 101.473,232.133 101.400,234.800 101.400 L 239.000 101.400 239.000 103.000 " stroke="none" fill="#fbac1b" fill-rule="evenodd"></path><path id="path1" d="M126.700 77.600 C 126.632 77.710,126.092 77.800,125.500 77.800 C 124.908 77.800,124.368 77.890,124.300 78.000 C 124.232 78.110,123.872 78.200,123.500 78.200 C 123.128 78.200,122.768 78.290,122.700 78.400 C 122.632 78.510,122.312 78.600,121.988 78.600 C 121.665 78.600,121.400 78.690,121.400 78.800 C 121.400 78.910,121.130 79.000,120.800 79.000 C 120.470 79.000,120.200 79.090,120.200 79.200 C 120.200 79.310,120.020 79.400,119.800 79.400 C 119.580 79.400,119.400 79.490,119.400 79.600 C 119.400 79.710,119.192 79.800,118.938 79.800 C 118.683 79.800,118.282 79.980,118.046 80.200 C 117.810 80.420,117.478 80.600,117.308 80.600 C 117.139 80.600,117.000 80.690,117.000 80.800 C 117.000 80.910,116.840 81.000,116.644 81.000 C 116.448 81.000,116.159 81.180,116.000 81.400 C 115.841 81.620,115.600 81.800,115.464 81.800 C 115.140 81.800,111.400 85.540,111.400 85.864 C 111.400 86.000,111.220 86.241,111.000 86.400 C 110.780 86.559,110.600 86.848,110.600 87.044 C 110.600 87.240,110.510 87.400,110.400 87.400 C 110.290 87.400,110.200 87.580,110.200 87.800 C 110.200 88.020,110.110 88.200,110.000 88.200 C 109.890 88.200,109.800 88.380,109.800 88.600 C 109.800 88.820,109.710 89.000,109.600 89.000 C 109.490 89.000,109.400 89.180,109.400 89.400 C 109.400 89.620,109.310 89.800,109.200 89.800 C 109.090 89.800,109.000 90.070,109.000 90.400 C 109.000 90.730,108.910 91.000,108.800 91.000 C 108.690 91.000,108.600 91.270,108.600 91.600 C 108.600 91.930,108.510 92.200,108.400 92.200 C 108.290 92.200,108.200 92.560,108.200 93.000 C 108.200 93.440,108.110 93.800,108.000 93.800 C 107.890 93.800,107.800 94.245,107.800 94.788 C 107.800 95.332,107.710 95.832,107.600 95.900 C 107.476 95.976,107.400 97.735,107.400 100.512 C 107.400 103.371,107.473 105.000,107.600 105.000 C 107.710 105.000,107.800 105.490,107.800 106.088 C 107.800 106.687,107.890 107.232,108.000 107.300 C 108.110 107.368,108.200 107.688,108.200 108.012 C 108.200 108.335,108.290 108.600,108.400 108.600 C 108.510 108.600,108.600 108.870,108.600 109.200 C 108.600 109.530,108.690 109.800,108.800 109.800 C 108.910 109.800,109.000 110.020,109.000 110.288 C 109.000 110.557,109.090 110.832,109.200 110.900 C 109.310 110.968,109.400 111.198,109.400 111.412 C 109.400 111.625,109.490 111.800,109.600 111.800 C 109.710 111.800,109.800 111.980,109.800 112.200 C 109.800 112.420,109.890 112.600,110.000 112.600 C 110.110 112.600,110.200 112.718,110.200 112.862 C 110.200 113.007,110.380 113.318,110.600 113.554 C 110.820 113.790,111.000 114.074,111.000 114.185 C 111.000 114.448,115.152 118.600,115.415 118.600 C 115.526 118.600,115.810 118.780,116.046 119.000 C 116.282 119.220,116.593 119.400,116.738 119.400 C 116.882 119.400,117.000 119.490,117.000 119.600 C 117.000 119.710,117.180 119.800,117.400 119.800 C 117.620 119.800,117.800 119.890,117.800 120.000 C 117.800 120.110,117.980 120.200,118.200 120.200 C 118.420 120.200,118.600 120.290,118.600 120.400 C 118.600 120.510,118.780 120.600,119.000 120.600 C 119.220 120.600,119.400 120.690,119.400 120.800 C 119.400 120.910,119.670 121.000,120.000 121.000 C 120.330 121.000,120.600 121.090,120.600 121.200 C 120.600 121.310,120.870 121.400,121.200 121.400 C 121.530 121.400,121.800 121.490,121.800 121.600 C 121.800 121.710,122.065 121.800,122.388 121.800 C 122.712 121.800,123.032 121.890,123.100 122.000 C 123.168 122.110,123.623 122.200,124.112 122.200 C 124.600 122.200,125.000 122.290,125.000 122.400 C 125.000 122.514,125.596 122.600,126.388 122.600 C 127.152 122.600,127.832 122.690,127.900 122.800 C 127.976 122.922,129.565 123.000,132.000 123.000 C 134.435 123.000,136.024 122.922,136.100 122.800 C 136.168 122.690,136.848 122.600,137.612 122.600 C 138.404 122.600,139.000 122.514,139.000 122.400 C 139.000 122.290,139.400 122.200,139.888 122.200 C 140.377 122.200,140.832 122.110,140.900 122.000 C 140.968 121.890,141.288 121.800,141.612 121.800 C 141.935 121.800,142.200 121.710,142.200 121.600 C 142.200 121.490,142.470 121.400,142.800 121.400 C 143.130 121.400,143.400 121.310,143.400 121.200 C 143.400 121.090,143.670 121.000,144.000 121.000 C 144.330 121.000,144.600 120.910,144.600 120.800 C 144.600 120.690,144.780 120.600,145.000 120.600 C 145.220 120.600,145.400 120.510,145.400 120.400 C 145.400 120.290,145.580 120.200,145.800 120.200 C 146.020 120.200,146.200 120.110,146.200 120.000 C 146.200 119.890,146.380 119.800,146.600 119.800 C 146.820 119.800,147.000 119.710,147.000 119.600 C 147.000 119.490,147.160 119.400,147.356 119.400 C 147.552 119.400,147.841 119.220,148.000 119.000 C 148.159 118.780,148.395 118.600,148.526 118.600 C 148.857 118.600,152.200 115.285,152.200 114.956 C 152.200 114.809,152.380 114.559,152.600 114.400 C 152.820 114.241,153.000 113.952,153.000 113.756 C 153.000 113.560,153.090 113.400,153.200 113.400 C 153.310 113.400,153.400 113.220,153.400 113.000 C 153.400 112.780,153.490 112.600,153.600 112.600 C 153.710 112.600,153.800 112.425,153.800 112.212 C 153.800 111.998,153.890 111.768,154.000 111.700 C 154.110 111.632,154.200 111.267,154.200 110.888 C 154.200 110.510,154.290 110.200,154.400 110.200 C 154.510 110.200,154.600 109.840,154.600 109.400 L 154.600 108.600 149.200 108.600 C 144.695 108.600,143.800 108.647,143.800 108.881 C 143.800 109.856,140.528 113.800,139.719 113.800 C 139.544 113.800,139.400 113.890,139.400 114.000 C 139.400 114.110,139.220 114.200,139.000 114.200 C 138.780 114.200,138.600 114.290,138.600 114.400 C 138.600 114.510,138.420 114.600,138.200 114.600 C 137.980 114.600,137.800 114.690,137.800 114.800 C 137.800 114.910,137.530 115.000,137.200 115.000 C 136.870 115.000,136.600 115.090,136.600 115.200 C 136.600 115.310,136.200 115.400,135.712 115.400 C 135.223 115.400,134.768 115.490,134.700 115.600 C 134.628 115.717,133.498 115.800,131.988 115.800 C 130.396 115.800,129.400 115.723,129.400 115.600 C 129.400 115.490,129.045 115.400,128.612 115.400 C 128.178 115.400,127.768 115.310,127.700 115.200 C 127.632 115.090,127.362 115.000,127.100 115.000 C 126.838 115.000,126.568 114.910,126.500 114.800 C 126.432 114.690,126.157 114.600,125.888 114.600 C 125.620 114.600,125.400 114.510,125.400 114.400 C 125.400 114.290,125.220 114.200,125.000 114.200 C 124.780 114.200,124.600 114.125,124.600 114.034 C 124.600 113.942,124.353 113.742,124.050 113.587 C 123.337 113.224,120.376 110.263,120.013 109.550 C 119.858 109.248,119.658 109.000,119.566 109.000 C 119.475 109.000,119.400 108.820,119.400 108.600 C 119.400 108.380,119.310 108.200,119.200 108.200 C 119.090 108.200,119.000 107.930,119.000 107.600 C 119.000 107.270,118.910 107.000,118.800 107.000 C 118.690 107.000,118.600 106.730,118.600 106.400 C 118.600 106.070,118.510 105.800,118.400 105.800 C 118.290 105.800,118.200 105.400,118.200 104.912 C 118.200 104.423,118.110 103.968,118.000 103.900 C 117.890 103.832,117.800 103.602,117.800 103.389 C 117.800 103.009,118.158 103.001,136.550 102.951 L 155.300 102.900 155.365 99.800 C 155.433 96.582,155.066 91.400,154.770 91.400 C 154.676 91.400,154.600 91.130,154.600 90.800 C 154.600 90.470,154.510 90.200,154.400 90.200 C 154.290 90.200,154.200 90.033,154.200 89.828 C 154.200 89.372,152.998 87.000,152.767 87.000 C 152.675 87.000,152.600 86.840,152.600 86.644 C 152.600 86.448,152.420 86.159,152.200 86.000 C 151.980 85.841,151.800 85.605,151.800 85.474 C 151.800 85.143,148.485 81.800,148.156 81.800 C 148.009 81.800,147.759 81.620,147.600 81.400 C 147.441 81.180,147.171 81.000,147.000 81.000 C 146.829 81.000,146.559 80.820,146.400 80.600 C 146.241 80.380,145.952 80.200,145.756 80.200 C 145.560 80.200,145.400 80.110,145.400 80.000 C 145.400 79.890,145.220 79.800,145.000 79.800 C 144.780 79.800,144.600 79.710,144.600 79.600 C 144.600 79.490,144.425 79.400,144.212 79.400 C 143.998 79.400,143.768 79.310,143.700 79.200 C 143.632 79.090,143.357 79.000,143.088 79.000 C 142.820 79.000,142.600 78.910,142.600 78.800 C 142.600 78.690,142.335 78.600,142.012 78.600 C 141.688 78.600,141.368 78.510,141.300 78.400 C 141.232 78.290,140.872 78.200,140.500 78.200 C 140.128 78.200,139.768 78.110,139.700 78.000 C 139.632 77.890,139.087 77.800,138.488 77.800 C 137.890 77.800,137.400 77.710,137.400 77.600 C 137.400 77.472,135.504 77.400,132.112 77.400 C 128.802 77.400,126.777 77.475,126.700 77.600 M135.400 84.800 C 135.400 84.910,135.760 85.000,136.200 85.000 C 136.640 85.000,137.000 85.090,137.000 85.200 C 137.000 85.310,137.270 85.400,137.600 85.400 C 137.930 85.400,138.200 85.490,138.200 85.600 C 138.200 85.710,138.380 85.800,138.600 85.800 C 138.820 85.800,139.000 85.890,139.000 86.000 C 139.000 86.110,139.160 86.200,139.356 86.200 C 139.552 86.200,139.841 86.380,140.000 86.600 C 140.159 86.820,140.406 87.000,140.549 87.000 C 140.834 87.000,142.600 88.685,142.600 88.957 C 142.600 89.049,142.758 89.304,142.950 89.522 C 143.445 90.085,143.800 90.743,143.800 91.097 C 143.800 91.264,143.890 91.400,144.000 91.400 C 144.110 91.400,144.200 91.580,144.200 91.800 C 144.200 92.020,144.290 92.200,144.400 92.200 C 144.510 92.200,144.600 92.560,144.600 93.000 C 144.600 93.440,144.690 93.800,144.800 93.800 C 144.910 93.800,145.000 94.250,145.000 94.800 L 145.000 95.800 131.600 95.800 L 118.200 95.800 118.200 95.212 C 118.200 94.888,118.290 94.568,118.400 94.500 C 118.510 94.432,118.600 94.067,118.600 93.688 C 118.600 93.310,118.690 93.000,118.800 93.000 C 118.910 93.000,119.000 92.878,119.000 92.728 C 119.000 91.535,122.925 86.600,123.874 86.600 C 124.053 86.600,124.201 86.533,124.202 86.450 C 124.203 86.270,125.172 85.800,125.540 85.800 C 125.683 85.800,125.800 85.710,125.800 85.600 C 125.800 85.490,126.020 85.400,126.288 85.400 C 126.557 85.400,126.832 85.310,126.900 85.200 C 126.968 85.090,127.288 85.000,127.612 85.000 C 127.935 85.000,128.200 84.910,128.200 84.800 C 128.200 84.674,129.533 84.600,131.800 84.600 C 134.067 84.600,135.400 84.674,135.400 84.800 " stroke="none" fill="#ec3c44" fill-rule="evenodd"></path><path id="path2" d="M243.400 79.662 C 243.400 80.048,243.567 80.504,243.800 80.754 C 244.020 80.990,244.200 81.315,244.200 81.475 C 244.200 81.635,244.272 81.797,244.360 81.833 C 244.531 81.904,246.400 84.484,246.400 84.648 C 246.400 84.701,246.749 85.380,247.176 86.157 C 247.603 86.933,248.199 88.228,248.501 89.034 C 249.217 90.946,250.611 93.800,250.829 93.800 C 250.923 93.800,251.000 93.980,251.000 94.200 C 251.000 94.420,251.090 94.600,251.200 94.600 C 251.310 94.600,251.400 94.780,251.400 95.000 C 251.400 95.220,251.490 95.400,251.600 95.400 C 251.710 95.400,251.800 95.580,251.800 95.800 C 251.800 96.020,251.890 96.200,252.000 96.200 C 252.110 96.200,252.200 96.373,252.200 96.583 C 252.200 96.794,252.268 96.997,252.352 97.033 C 252.435 97.070,252.898 97.888,253.381 98.850 C 253.863 99.813,254.335 100.600,254.429 100.600 C 254.523 100.600,254.600 100.780,254.600 101.000 C 254.600 101.220,254.690 101.400,254.800 101.400 C 254.910 101.400,255.000 101.580,255.000 101.800 C 255.000 102.020,255.090 102.200,255.200 102.200 C 255.310 102.200,255.400 102.380,255.400 102.600 C 255.400 102.820,255.490 103.000,255.600 103.000 C 255.710 103.000,255.800 103.172,255.800 103.383 C 255.800 103.594,255.868 103.797,255.952 103.833 C 256.035 103.870,256.498 104.688,256.981 105.650 C 257.463 106.613,257.935 107.400,258.029 107.400 C 258.123 107.400,258.200 107.580,258.200 107.800 C 258.200 108.020,258.290 108.200,258.400 108.200 C 258.510 108.200,258.600 108.380,258.600 108.600 C 258.600 108.820,258.690 109.000,258.800 109.000 C 258.910 109.000,259.000 109.172,259.000 109.383 C 259.000 109.594,259.068 109.797,259.152 109.833 C 259.235 109.870,259.698 110.688,260.181 111.650 C 260.663 112.613,261.135 113.400,261.229 113.400 C 261.323 113.400,261.400 113.580,261.400 113.800 C 261.400 114.020,261.490 114.200,261.600 114.200 C 261.710 114.200,261.800 114.380,261.800 114.600 C 261.800 114.820,261.890 115.000,262.000 115.000 C 262.110 115.000,262.200 115.180,262.200 115.400 C 262.200 115.620,262.290 115.800,262.400 115.800 C 262.510 115.800,262.600 115.972,262.600 116.183 C 262.600 116.394,262.668 116.597,262.752 116.633 C 262.835 116.670,263.298 117.488,263.781 118.450 C 264.263 119.413,264.735 120.200,264.829 120.200 C 265.295 120.200,264.492 122.726,263.950 122.967 C 263.868 123.003,263.800 123.206,263.800 123.417 C 263.800 123.628,263.710 123.800,263.600 123.800 C 263.490 123.800,263.400 123.980,263.400 124.200 C 263.400 124.420,263.310 124.600,263.200 124.600 C 263.090 124.600,263.000 124.780,263.000 125.000 C 263.000 125.220,262.910 125.400,262.800 125.400 C 262.690 125.400,262.600 125.580,262.600 125.800 C 262.600 126.020,262.523 126.200,262.428 126.200 C 262.334 126.200,261.773 127.168,261.181 128.350 C 260.589 129.532,260.036 130.530,259.952 130.567 C 259.869 130.603,259.800 130.806,259.800 131.017 C 259.800 131.228,259.710 131.400,259.600 131.400 C 259.490 131.400,259.400 131.580,259.400 131.800 C 259.400 132.020,259.310 132.200,259.200 132.200 C 259.090 132.200,259.000 132.380,259.000 132.600 C 259.000 132.820,258.910 133.000,258.800 133.000 C 258.690 133.000,258.600 133.180,258.600 133.400 C 258.600 133.620,258.525 133.800,258.433 133.800 C 258.148 133.800,257.000 136.226,257.000 136.828 L 257.000 137.400 262.514 137.400 C 268.286 137.400,268.600 137.354,268.600 136.514 C 268.600 136.341,268.690 136.200,268.800 136.200 C 268.910 136.200,269.000 136.020,269.000 135.800 C 269.000 135.580,269.090 135.400,269.200 135.400 C 269.310 135.400,269.400 135.220,269.400 135.000 C 269.400 134.780,269.490 134.600,269.600 134.600 C 269.710 134.600,269.800 134.420,269.800 134.200 C 269.800 133.980,269.878 133.800,269.974 133.800 C 270.069 133.800,271.350 131.393,272.819 128.450 C 274.289 125.508,275.561 123.070,275.646 123.033 C 275.731 122.997,275.800 122.794,275.800 122.583 C 275.800 122.373,275.890 122.200,276.000 122.200 C 276.110 122.200,276.200 122.020,276.200 121.800 C 276.200 121.580,276.290 121.400,276.400 121.400 C 276.510 121.400,276.600 121.220,276.600 121.000 C 276.600 120.780,276.690 120.600,276.800 120.600 C 276.910 120.600,277.000 120.420,277.000 120.200 C 277.000 119.980,277.090 119.800,277.200 119.800 C 277.310 119.800,277.400 119.620,277.400 119.400 C 277.400 119.180,277.490 119.000,277.600 119.000 C 277.710 119.000,277.800 118.820,277.800 118.600 C 277.800 118.380,277.890 118.200,278.000 118.200 C 278.110 118.200,278.200 118.020,278.200 117.800 C 278.200 117.580,278.290 117.400,278.400 117.400 C 278.510 117.400,278.600 117.220,278.600 117.000 C 278.600 116.780,278.690 116.600,278.800 116.600 C 278.910 116.600,279.000 116.420,279.000 116.200 C 279.000 115.980,279.090 115.800,279.200 115.800 C 279.310 115.800,279.400 115.620,279.400 115.400 C 279.400 115.180,279.490 115.000,279.600 115.000 C 279.710 115.000,279.800 114.820,279.800 114.600 C 279.800 114.380,279.890 114.200,280.000 114.200 C 280.110 114.200,280.200 114.020,280.200 113.800 C 280.200 113.580,280.290 113.400,280.400 113.400 C 280.510 113.400,280.600 113.220,280.600 113.000 C 280.600 112.780,280.678 112.600,280.774 112.600 C 280.869 112.600,282.240 110.013,283.819 106.850 C 285.399 103.688,286.761 101.070,286.846 101.033 C 286.931 100.997,287.000 100.794,287.000 100.583 C 287.000 100.373,287.090 100.200,287.200 100.200 C 287.310 100.200,287.400 100.020,287.400 99.800 C 287.400 99.580,287.490 99.400,287.600 99.400 C 287.710 99.400,287.800 99.220,287.800 99.000 C 287.800 98.780,287.890 98.600,288.000 98.600 C 288.110 98.600,288.200 98.420,288.200 98.200 C 288.200 97.980,288.290 97.800,288.400 97.800 C 288.510 97.800,288.600 97.620,288.600 97.400 C 288.600 97.180,288.690 97.000,288.800 97.000 C 288.910 97.000,289.000 96.820,289.000 96.600 C 289.000 96.380,289.090 96.200,289.200 96.200 C 289.310 96.200,289.400 96.020,289.400 95.800 C 289.400 95.580,289.490 95.400,289.600 95.400 C 289.710 95.400,289.800 95.220,289.800 95.000 C 289.800 94.780,289.890 94.600,290.000 94.600 C 290.110 94.600,290.200 94.420,290.200 94.200 C 290.200 93.980,290.290 93.800,290.400 93.800 C 290.510 93.800,290.600 93.620,290.600 93.400 C 290.600 93.180,290.690 93.000,290.800 93.000 C 290.910 93.000,291.000 92.820,291.000 92.600 C 291.000 92.380,291.090 92.200,291.200 92.200 C 291.310 92.200,291.400 92.020,291.400 91.800 C 291.400 91.580,291.490 91.400,291.600 91.400 C 291.710 91.400,291.800 91.228,291.800 91.017 C 291.800 90.806,291.889 90.603,291.997 90.567 C 292.275 90.473,297.809 79.377,297.681 79.170 C 297.421 78.748,286.600 78.973,286.600 79.400 C 286.600 79.620,286.510 79.800,286.400 79.800 C 286.290 79.800,286.200 79.980,286.200 80.200 C 286.200 80.420,286.110 80.600,286.000 80.600 C 285.890 80.600,285.800 80.780,285.800 81.000 C 285.800 81.220,285.710 81.400,285.600 81.400 C 285.490 81.400,285.400 81.580,285.400 81.800 C 285.400 82.020,285.310 82.200,285.200 82.200 C 285.090 82.200,285.000 82.380,285.000 82.600 C 285.000 82.820,284.910 83.000,284.800 83.000 C 284.690 83.000,284.600 83.180,284.600 83.400 C 284.600 83.620,284.510 83.800,284.400 83.800 C 284.290 83.800,284.200 83.980,284.200 84.200 C 284.200 84.420,284.110 84.600,284.000 84.600 C 283.890 84.600,283.800 84.780,283.800 85.000 C 283.800 85.220,283.710 85.400,283.600 85.400 C 283.490 85.400,283.400 85.580,283.400 85.800 C 283.400 86.020,283.310 86.200,283.200 86.200 C 283.090 86.200,283.000 86.380,283.000 86.600 C 283.000 86.820,282.910 87.000,282.800 87.000 C 282.690 87.000,282.600 87.180,282.600 87.400 C 282.600 87.620,282.510 87.800,282.400 87.800 C 282.290 87.800,282.200 87.980,282.200 88.200 C 282.200 88.420,282.110 88.600,282.000 88.600 C 281.890 88.600,281.800 88.780,281.800 89.000 C 281.800 89.220,281.710 89.400,281.600 89.400 C 281.490 89.400,281.400 89.580,281.400 89.800 C 281.400 90.020,281.310 90.200,281.200 90.200 C 281.090 90.200,281.000 90.380,281.000 90.600 C 281.000 90.820,280.910 91.000,280.800 91.000 C 280.690 91.000,280.600 91.180,280.600 91.400 C 280.600 91.620,280.510 91.800,280.400 91.800 C 280.290 91.800,280.200 91.980,280.200 92.200 C 280.200 92.420,280.110 92.600,280.000 92.600 C 279.890 92.600,279.800 92.780,279.800 93.000 C 279.800 93.220,279.710 93.400,279.600 93.400 C 279.490 93.400,279.400 93.580,279.400 93.800 C 279.400 94.020,279.310 94.200,279.200 94.200 C 279.090 94.200,279.000 94.380,279.000 94.600 C 279.000 94.820,278.910 95.000,278.800 95.000 C 278.690 95.000,278.600 95.180,278.600 95.400 C 278.600 95.620,278.510 95.800,278.400 95.800 C 278.290 95.800,278.200 95.980,278.200 96.200 C 278.200 96.420,278.110 96.600,278.000 96.600 C 277.890 96.600,277.800 96.780,277.800 97.000 C 277.800 97.220,277.710 97.400,277.600 97.400 C 277.490 97.400,277.400 97.580,277.400 97.800 C 277.400 98.020,277.310 98.200,277.200 98.200 C 277.090 98.200,277.000 98.380,277.000 98.600 C 277.000 98.820,276.910 99.000,276.800 99.000 C 276.690 99.000,276.600 99.180,276.600 99.400 C 276.600 99.620,276.510 99.800,276.400 99.800 C 276.290 99.800,276.200 99.980,276.200 100.200 C 276.200 100.420,276.110 100.600,276.000 100.600 C 275.890 100.600,275.800 100.780,275.800 101.000 C 275.800 101.220,275.710 101.400,275.600 101.400 C 275.490 101.400,275.400 101.580,275.400 101.800 C 275.400 102.020,275.310 102.200,275.200 102.200 C 275.090 102.200,275.000 102.380,275.000 102.600 C 275.000 102.820,274.910 103.000,274.800 103.000 C 274.690 103.000,274.600 103.180,274.600 103.400 C 274.600 103.620,274.510 103.800,274.400 103.800 C 274.290 103.800,274.200 103.980,274.200 104.200 C 274.200 104.420,274.110 104.600,274.000 104.600 C 273.890 104.600,273.800 104.780,273.800 105.000 C 273.800 105.220,273.710 105.400,273.600 105.400 C 273.490 105.400,273.400 105.580,273.400 105.800 C 273.400 106.020,273.310 106.200,273.200 106.200 C 273.090 106.200,273.000 106.380,273.000 106.600 C 273.000 106.820,272.910 107.000,272.800 107.000 C 272.690 107.000,272.600 107.180,272.600 107.400 C 272.600 107.620,272.510 107.800,272.400 107.800 C 272.290 107.800,272.200 107.980,272.200 108.200 C 272.200 108.420,272.110 108.600,272.000 108.600 C 271.890 108.600,271.800 108.780,271.800 109.000 C 271.800 109.220,271.710 109.400,271.600 109.400 C 271.490 109.400,271.400 109.570,271.400 109.779 C 271.400 111.348,270.629 109.964,262.994 94.687 L 255.153 79.000 249.276 79.000 L 243.400 79.000 243.400 79.662 M155.481 99.400 C 155.481 101.215,155.512 101.958,155.549 101.050 C 155.586 100.142,155.586 98.658,155.549 97.750 C 155.512 96.843,155.481 97.585,155.481 99.400 M204.525 103.708 C 204.456 103.886,204.408 104.228,204.418 104.466 C 204.431 104.774,204.492 104.704,204.629 104.228 C 204.829 103.536,204.747 103.129,204.525 103.708 M204.089 105.689 C 204.014 106.090,204.002 106.469,204.063 106.530 C 204.124 106.591,204.236 106.312,204.311 105.911 C 204.386 105.510,204.398 105.131,204.337 105.070 C 204.276 105.009,204.164 105.288,204.089 105.689 M203.737 107.076 C 203.662 107.272,203.608 107.673,203.618 107.966 C 203.635 108.464,203.649 108.455,203.829 107.832 C 204.036 107.109,203.961 106.491,203.737 107.076 " stroke="none" fill="#7cc343" fill-rule="evenodd"></path><path id="path3" d="M155.000 76.651 C 155.000 87.423,155.070 92.932,155.213 93.401 C 155.614 94.720,155.710 102.460,155.328 102.777 C 155.033 103.022,155.000 103.962,155.000 112.224 L 155.000 121.400 160.000 121.400 L 165.000 121.400 165.000 119.812 C 165.000 118.938,165.090 118.168,165.200 118.100 C 165.310 118.032,165.400 117.695,165.400 117.351 L 165.400 116.725 165.961 117.263 C 166.269 117.558,166.585 117.800,166.663 117.800 C 166.740 117.800,167.086 118.070,167.431 118.400 C 167.777 118.730,168.140 119.000,168.238 119.000 C 168.336 119.000,168.610 119.180,168.846 119.400 C 169.082 119.620,169.393 119.800,169.538 119.800 C 169.682 119.800,169.800 119.890,169.800 120.000 C 169.800 120.110,169.980 120.200,170.200 120.200 C 170.420 120.200,170.600 120.290,170.600 120.400 C 170.600 120.510,170.780 120.600,171.000 120.600 C 171.220 120.600,171.400 120.690,171.400 120.800 C 171.400 120.910,171.575 121.000,171.788 121.000 C 172.002 121.000,172.232 121.090,172.300 121.200 C 172.368 121.310,172.643 121.400,172.912 121.400 C 173.180 121.400,173.400 121.490,173.400 121.600 C 173.400 121.710,173.665 121.800,173.988 121.800 C 174.312 121.800,174.632 121.890,174.700 122.000 C 174.768 122.110,175.128 122.200,175.500 122.200 C 175.872 122.200,176.232 122.290,176.300 122.400 C 176.368 122.510,176.908 122.600,177.500 122.600 C 178.092 122.600,178.632 122.690,178.700 122.800 C 178.775 122.921,180.165 123.000,182.200 123.000 C 184.235 123.000,185.625 122.921,185.700 122.800 C 185.768 122.690,186.308 122.600,186.900 122.600 C 187.492 122.600,188.032 122.510,188.100 122.400 C 188.168 122.290,188.528 122.200,188.900 122.200 C 189.272 122.200,189.632 122.110,189.700 122.000 C 189.768 121.890,190.038 121.800,190.300 121.800 C 190.562 121.800,190.832 121.710,190.900 121.600 C 190.968 121.490,191.198 121.400,191.412 121.400 C 191.625 121.400,191.800 121.310,191.800 121.200 C 191.800 121.090,191.971 121.000,192.180 121.000 C 192.545 121.000,194.785 119.915,194.997 119.636 C 195.054 119.561,195.347 119.372,195.650 119.216 C 195.953 119.060,196.200 118.858,196.200 118.766 C 196.200 118.675,196.332 118.600,196.492 118.600 C 196.813 118.600,200.600 114.904,200.600 114.590 C 200.600 114.484,200.870 114.114,201.200 113.769 C 201.530 113.423,201.800 113.019,201.800 112.870 C 201.800 112.722,201.890 112.600,202.000 112.600 C 202.110 112.600,202.200 112.420,202.200 112.200 C 202.200 111.980,202.290 111.800,202.400 111.800 C 202.510 111.800,202.600 111.620,202.600 111.400 C 202.600 111.180,202.690 111.000,202.800 111.000 C 202.910 111.000,203.000 110.820,203.000 110.600 C 203.000 110.380,203.078 110.200,203.174 110.200 C 203.270 110.200,203.411 109.560,203.488 108.778 C 203.565 107.996,203.704 107.164,203.795 106.928 C 203.887 106.693,204.070 105.960,204.203 105.300 C 204.336 104.640,204.569 103.761,204.722 103.346 C 205.058 102.433,205.127 95.400,204.800 95.400 C 204.690 95.400,204.600 95.000,204.600 94.512 C 204.600 94.023,204.510 93.568,204.400 93.500 C 204.290 93.432,204.200 93.112,204.200 92.788 C 204.200 92.465,204.110 92.200,204.000 92.200 C 203.890 92.200,203.800 91.930,203.800 91.600 C 203.800 91.270,203.710 91.000,203.600 91.000 C 203.490 91.000,203.400 90.833,203.400 90.628 C 203.400 90.172,202.198 87.800,201.967 87.800 C 201.875 87.800,201.800 87.620,201.800 87.400 C 201.800 87.180,201.710 87.000,201.600 87.000 C 201.490 87.000,201.400 86.876,201.400 86.724 C 201.400 86.572,201.040 86.077,200.600 85.624 C 200.160 85.170,199.800 84.728,199.800 84.640 C 199.800 84.446,198.339 83.000,198.142 83.000 C 198.064 83.000,197.630 82.640,197.176 82.200 C 196.723 81.760,196.269 81.400,196.168 81.400 C 196.066 81.400,195.790 81.220,195.554 81.000 C 195.318 80.780,195.007 80.600,194.862 80.600 C 194.718 80.600,194.600 80.510,194.600 80.400 C 194.600 80.290,194.420 80.200,194.200 80.200 C 193.980 80.200,193.800 80.110,193.800 80.000 C 193.800 79.890,193.620 79.800,193.400 79.800 C 193.180 79.800,193.000 79.710,193.000 79.600 C 193.000 79.490,192.825 79.400,192.612 79.400 C 192.398 79.400,192.168 79.310,192.100 79.200 C 192.032 79.090,191.757 79.000,191.488 79.000 C 191.220 79.000,191.000 78.910,191.000 78.800 C 191.000 78.690,190.825 78.600,190.612 78.600 C 190.398 78.600,190.168 78.510,190.100 78.400 C 190.032 78.290,189.667 78.200,189.288 78.200 C 188.910 78.200,188.600 78.110,188.600 78.000 C 188.600 77.890,188.150 77.800,187.600 77.800 C 187.050 77.800,186.600 77.710,186.600 77.600 C 186.600 77.473,184.971 77.400,182.112 77.400 C 179.335 77.400,177.576 77.476,177.500 77.600 C 177.432 77.710,176.932 77.800,176.388 77.800 C 175.845 77.800,175.400 77.890,175.400 78.000 C 175.400 78.110,175.090 78.200,174.712 78.200 C 174.333 78.200,173.968 78.290,173.900 78.400 C 173.832 78.510,173.562 78.600,173.300 78.600 C 173.038 78.600,172.768 78.690,172.700 78.800 C 172.632 78.910,172.402 79.000,172.188 79.000 C 171.975 79.000,171.800 79.090,171.800 79.200 C 171.800 79.310,171.620 79.400,171.400 79.400 C 171.180 79.400,171.000 79.490,171.000 79.600 C 171.000 79.710,170.820 79.800,170.600 79.800 C 170.380 79.800,170.200 79.890,170.200 80.000 C 170.200 80.110,170.020 80.200,169.800 80.200 C 169.580 80.200,169.400 80.290,169.400 80.400 C 169.400 80.510,169.282 80.600,169.138 80.600 C 168.993 80.600,168.682 80.780,168.446 81.000 C 168.210 81.220,167.943 81.400,167.852 81.400 C 167.762 81.400,167.216 81.850,166.639 82.400 C 166.062 82.950,165.548 83.400,165.495 83.400 C 165.443 83.400,165.400 78.270,165.400 72.000 L 165.400 60.600 160.200 60.600 L 155.000 60.600 155.000 76.651 M182.300 84.800 C 182.368 84.910,182.823 85.000,183.312 85.000 C 183.800 85.000,184.200 85.090,184.200 85.200 C 184.200 85.310,184.470 85.400,184.800 85.400 C 185.130 85.400,185.400 85.490,185.400 85.600 C 185.400 85.710,185.580 85.800,185.800 85.800 C 186.020 85.800,186.200 85.890,186.200 86.000 C 186.200 86.110,186.380 86.200,186.600 86.200 C 186.820 86.200,187.000 86.290,187.000 86.400 C 187.000 86.510,187.136 86.600,187.302 86.600 C 187.468 86.600,187.886 86.870,188.231 87.200 C 188.577 87.530,188.938 87.800,189.035 87.800 C 189.259 87.800,191.000 89.534,191.000 89.757 C 191.000 89.849,191.158 90.099,191.350 90.312 C 191.543 90.526,191.828 90.948,191.984 91.250 C 192.140 91.553,192.342 91.800,192.434 91.800 C 192.525 91.800,192.600 91.980,192.600 92.200 C 192.600 92.420,192.690 92.600,192.800 92.600 C 192.910 92.600,193.000 92.820,193.000 93.088 C 193.000 93.357,193.090 93.632,193.200 93.700 C 193.310 93.768,193.400 94.038,193.400 94.300 C 193.400 94.562,193.490 94.832,193.600 94.900 C 193.710 94.968,193.800 95.328,193.800 95.700 C 193.800 96.072,193.890 96.432,194.000 96.500 C 194.121 96.575,194.200 98.035,194.200 100.212 C 194.200 102.471,194.126 103.800,194.000 103.800 C 193.890 103.800,193.800 104.160,193.800 104.600 C 193.800 105.040,193.710 105.400,193.600 105.400 C 193.490 105.400,193.400 105.670,193.400 106.000 C 193.400 106.330,193.310 106.600,193.200 106.600 C 193.090 106.600,193.000 106.726,193.000 106.881 C 193.000 107.214,192.166 108.871,191.950 108.967 C 191.868 109.003,191.800 109.169,191.800 109.335 C 191.800 109.728,188.128 113.400,187.735 113.400 C 187.569 113.400,187.403 113.468,187.367 113.550 C 187.271 113.766,185.614 114.600,185.281 114.600 C 185.126 114.600,185.000 114.690,185.000 114.800 C 185.000 114.910,184.690 115.000,184.312 115.000 C 183.933 115.000,183.568 115.090,183.500 115.200 C 183.432 115.310,182.892 115.400,182.300 115.400 C 181.708 115.400,181.168 115.490,181.100 115.600 C 181.032 115.710,180.442 115.800,179.788 115.800 C 179.129 115.800,178.600 115.711,178.600 115.600 C 178.600 115.489,178.067 115.400,177.400 115.400 C 176.733 115.400,176.200 115.311,176.200 115.200 C 176.200 115.090,175.935 115.000,175.612 115.000 C 175.288 115.000,174.968 114.910,174.900 114.800 C 174.832 114.690,174.557 114.600,174.288 114.600 C 174.020 114.600,173.800 114.510,173.800 114.400 C 173.800 114.290,173.661 114.200,173.492 114.200 C 173.322 114.200,172.990 114.020,172.754 113.800 C 172.518 113.580,172.207 113.400,172.062 113.400 C 171.918 113.400,171.800 113.325,171.800 113.234 C 171.800 113.142,171.554 112.940,171.252 112.784 C 170.635 112.464,169.000 110.904,169.000 110.635 C 169.000 110.538,168.730 110.177,168.400 109.831 C 168.070 109.486,167.800 109.068,167.800 108.902 C 167.800 108.736,167.733 108.599,167.650 108.598 C 167.470 108.597,167.000 107.628,167.000 107.260 C 167.000 107.117,166.910 107.000,166.800 107.000 C 166.690 107.000,166.600 106.780,166.600 106.512 C 166.600 106.243,166.510 105.968,166.400 105.900 C 166.290 105.832,166.200 105.512,166.200 105.188 C 166.200 104.865,166.110 104.600,166.000 104.600 C 165.890 104.600,165.800 104.110,165.800 103.512 C 165.800 102.913,165.710 102.368,165.600 102.300 C 165.486 102.230,165.400 101.231,165.400 99.988 C 165.400 98.663,165.479 97.800,165.600 97.800 C 165.710 97.800,165.800 97.355,165.800 96.812 C 165.800 96.268,165.890 95.768,166.000 95.700 C 166.110 95.632,166.200 95.267,166.200 94.888 C 166.200 94.510,166.290 94.200,166.400 94.200 C 166.510 94.200,166.600 94.078,166.600 93.928 C 166.600 93.561,167.813 91.196,168.250 90.712 C 168.442 90.499,168.600 90.250,168.600 90.159 C 168.600 89.942,171.142 87.400,171.359 87.400 C 171.450 87.400,171.699 87.243,171.912 87.050 C 172.409 86.602,173.953 85.800,174.319 85.800 C 174.474 85.800,174.600 85.710,174.600 85.600 C 174.600 85.490,174.820 85.400,175.088 85.400 C 175.357 85.400,175.632 85.310,175.700 85.200 C 175.768 85.090,176.178 85.000,176.612 85.000 C 177.045 85.000,177.400 84.910,177.400 84.800 C 177.400 84.678,178.329 84.600,179.788 84.600 C 181.165 84.600,182.229 84.685,182.300 84.800 " stroke="none" fill="#0474bc" fill-rule="evenodd"></path><path id="path4" d="M301.000 79.400 C 301.000 79.667,300.867 79.800,300.600 79.800 C 300.267 79.800,300.200 79.933,300.200 80.600 C 300.200 81.267,300.267 81.400,300.600 81.400 C 300.959 81.400,301.000 81.533,301.000 82.709 C 301.000 84.402,301.494 85.000,302.891 85.000 L 303.800 85.000 303.800 84.200 C 303.800 83.444,303.767 83.400,303.200 83.400 C 302.613 83.400,302.600 83.378,302.600 82.400 C 302.600 81.422,302.613 81.400,303.200 81.400 C 303.767 81.400,303.800 81.356,303.800 80.600 C 303.800 79.844,303.767 79.800,303.200 79.800 C 302.733 79.800,302.600 79.711,302.600 79.400 C 302.600 79.067,302.467 79.000,301.800 79.000 C 301.133 79.000,301.000 79.067,301.000 79.400 M304.200 82.400 L 304.200 85.000 305.000 85.000 L 305.800 85.000 305.800 83.486 C 305.800 81.818,306.017 81.400,306.886 81.400 C 307.400 81.400,307.400 81.400,307.400 83.200 L 307.400 85.000 308.200 85.000 L 309.000 85.000 309.000 83.800 C 309.000 83.133,309.089 82.600,309.200 82.600 C 309.310 82.600,309.400 82.330,309.400 82.000 C 309.400 81.489,309.476 81.400,309.914 81.400 C 310.783 81.400,311.000 81.818,311.000 83.486 L 311.000 85.000 311.800 85.000 L 312.600 85.000 312.600 83.000 C 312.600 81.800,312.520 81.000,312.400 81.000 C 312.290 81.000,312.200 80.859,312.200 80.686 C 312.200 80.051,311.666 79.800,310.314 79.800 C 309.571 79.800,309.000 79.887,309.000 80.000 C 309.000 80.110,308.820 80.200,308.600 80.200 C 308.380 80.200,308.200 80.110,308.200 80.000 C 308.200 79.880,307.400 79.800,306.200 79.800 L 304.200 79.800 304.200 82.400 " stroke="none" fill="#241f24" fill-rule="evenodd"></path></g></svg>