<?xml version="1.0" encoding="utf-8"?>
<!-- Generator: Adobe Illustrator 17.0.2, SVG Export Plug-In . SVG Version: 6.00 Build 0)  -->
<!DOCTYPE svg PUBLIC "-//W3C//DTD SVG 1.1//EN" "http://www.w3.org/Graphics/SVG/1.1/DTD/svg11.dtd">
<svg version="1.1" id="Layer_1" xmlns="http://www.w3.org/2000/svg" xmlns:xlink="http://www.w3.org/1999/xlink" x="0px" y="0px"
	 width="106px" height="100px" viewBox="0 0 106 100" enable-background="new 0 0 106 100" xml:space="preserve">
<path fill="#0077A6" d="M2.709,99.008H2.377c0-0.166-0.083-0.415-0.083-0.499c0-0.083,0-0.248-0.249-0.248H1.546v0.747H1.296v-1.745
	h0.748c0.333,0,0.581,0.084,0.581,0.415c0,0.249-0.083,0.333-0.166,0.415c0.083,0.084,0.166,0.167,0.166,0.333v0.332
	c0,0.084,0,0.084,0.083,0.084L2.709,99.008L2.709,99.008z M2.377,97.762c0-0.249-0.166-0.249-0.249-0.249H1.546v0.499h0.499
	C2.211,98.011,2.377,97.928,2.377,97.762z M3.79,98.094c0-0.997-0.831-1.829-1.912-1.829c-0.997,0-1.829,0.832-1.829,1.829
	c0,1.08,0.832,1.913,1.829,1.913C2.959,100.006,3.79,99.174,3.79,98.094z M3.541,98.094c0,0.915-0.748,1.579-1.662,1.579
	s-1.579-0.665-1.579-1.579c0-0.831,0.665-1.579,1.579-1.579S3.541,97.263,3.541,98.094z M105.95,64.512
	c0,2.494-1.579,3.656-4.406,3.656h-5.402v-2.494h5.402c0.499,0,0.915-0.083,1.082-0.248c0.166-0.167,0.332-0.416,0.332-0.748
	c0-0.333-0.166-0.665-0.332-0.831c-0.167-0.167-0.499-0.249-0.998-0.249c-2.576-0.084-5.818,0.083-5.818-3.574
	c0-1.663,1.08-3.492,3.99-3.492h5.569v2.494h-5.154c-0.498,0-0.831,0-1.08,0.166c-0.249,0.249-0.415,0.499-0.415,0.915
	s0.249,0.665,0.581,0.832c0.333,0.083,0.666,0.166,1.082,0.166h1.496c1.579,0,2.577,0.332,3.242,0.915
	C105.618,62.599,105.95,63.348,105.95,64.512z M94.23,62.018c-0.665-0.583-1.663-0.915-3.242-0.915h-1.496
	c-0.415,0-0.748-0.084-1.08-0.166c-0.333-0.167-0.581-0.416-0.581-0.832s0.083-0.665,0.415-0.915
	c0.249-0.166,0.581-0.166,1.08-0.166h5.154v-2.494H88.91c-2.993,0-3.991,1.829-3.991,3.492c0,3.656,3.242,3.491,5.82,3.574
	c0.498,0,0.831,0.083,0.997,0.249c0.166,0.166,0.333,0.498,0.333,0.831c0,0.332-0.167,0.581-0.333,0.748
	c-0.249,0.166-0.581,0.248-1.08,0.248h-5.403v2.494h5.403c2.825,0,4.405-1.163,4.405-3.656
	C95.061,63.348,94.729,62.599,94.23,62.018L94.23,62.018z M83.59,65.759h-6.566v-2.328h6.4v-2.327h-6.4v-2.162h6.566v-2.41H74.28
	v11.637h9.309L83.59,65.759L83.59,65.759z M71.287,57.114c-0.915-0.499-1.995-0.583-3.408-0.583h-6.4v11.637h2.825v-4.239h2.993
	c0.997,0,1.579,0.084,1.995,0.499c0.499,0.581,0.499,1.579,0.499,2.328v1.412h2.742v-2.245c0-1.08-0.083-1.579-0.415-2.161
	c-0.249-0.333-0.747-0.748-1.412-0.998c0.747-0.248,1.995-1.246,1.995-3.076C72.701,58.36,72.202,57.612,71.287,57.114z
	 M55.494,56.531h-8.895l-3.574,3.824l-3.408-3.824H28.395v11.637h11.056l3.574-3.824l3.408,3.824h5.403v-3.906h3.491
	c2.41,0,4.822-0.665,4.822-3.907C60.15,57.197,57.655,56.531,55.494,56.531L55.494,56.531z M69.043,61.353
	c-0.415,0.166-0.831,0.166-1.33,0.166l-3.408,0.084v-2.661h3.408c0.499,0,0.998,0,1.33,0.249c0.333,0.167,0.581,0.499,0.581,0.998
	S69.376,61.104,69.043,61.353z M55.494,61.935h-3.658v-2.993h3.658c0.998,0,1.663,0.416,1.663,1.414
	C57.157,61.353,56.491,61.935,55.494,61.935z M44.771,62.35l4.322-4.571v9.393L44.771,62.35z M38.038,65.759h-6.899v-2.328h6.151
	v-2.327h-6.151v-2.162h6.983l3.076,3.408L38.038,65.759L38.038,65.759z M98.219,48.136h-3.99l-5.237-8.728v8.728h-5.652
	l-1.082-2.577h-5.818l-1.08,2.577h-3.242c-1.33,0-3.076-0.333-4.072-1.33c-0.915-0.997-1.414-2.327-1.414-4.405
	c0-1.746,0.249-3.325,1.496-4.572c0.831-0.915,2.328-1.33,4.239-1.33h2.66v2.494h-2.66c-0.997,0-1.579,0.166-2.161,0.665
	c-0.499,0.499-0.748,1.413-0.748,2.66c0,1.247,0.249,2.161,0.748,2.744c0.415,0.415,1.164,0.581,1.911,0.581h1.247l3.99-9.143h4.157
	l4.655,10.972V36.498h4.323l4.904,8.063v-8.063h2.825L98.219,48.136L98.219,48.136L98.219,48.136z M65.22,36.498h-2.825v11.637
	h2.825V36.498L65.22,36.498z M59.317,36.997c-0.915-0.499-1.911-0.499-3.324-0.499h-6.401v11.637h2.743v-4.24h2.992
	c0.998,0,1.663,0.083,2.078,0.499c0.499,0.582,0.415,1.58,0.415,2.245v1.496h2.825v-2.328c0-0.997-0.083-1.496-0.498-2.078
	c-0.249-0.333-0.748-0.748-1.33-0.997c0.747-0.333,1.995-1.247,1.995-3.076C60.814,38.327,60.231,37.579,59.317,36.997
	L59.317,36.997z M47.597,45.726h-6.484v-2.328h6.401v-2.41h-6.401v-2.078h6.484v-2.41h-9.31v11.637h9.31L47.597,45.726
	L47.597,45.726z M36.209,36.498h-4.572l-3.408,7.897l-3.658-7.897h-4.489v10.972l-4.738-10.972h-4.156L6.201,48.136h2.992
	l1.08-2.577h5.818l1.08,2.577h5.653v-9.143l4.073,9.143h2.41l4.073-9.143v9.143h2.826L36.209,36.498L36.209,36.498L36.209,36.498z
	 M81.263,43.065l-1.913-4.572l-1.911,4.572H81.263z M57.157,41.237c-0.415,0.249-0.831,0.249-1.413,0.249h-3.409V38.91h3.408
	c0.499,0,1.08,0,1.413,0.166c0.332,0.249,0.499,0.582,0.499,1.08S57.489,41.07,57.157,41.237z M11.271,43.065l1.912-4.572
	l1.912,4.572H11.271z M105.286,0.006H6.117v41.895l3.408-7.73h7.231l0.998,1.912v-1.912h8.479l1.912,4.156l1.829-4.156H56.99
	c1.246,0,2.327,0.249,3.159,0.914v-0.914h7.398v0.914c1.246-0.665,2.825-0.914,4.655-0.914h10.723l0.998,1.912v-1.912h7.897
	l1.164,1.912v-1.912h7.73v16.292H92.9l-1.496-2.493v2.493h-9.726l-1.08-2.66h-2.411l-1.08,2.66h-5.07
	c-1.995,0-3.492-0.499-4.489-0.997v0.997H55.494v-3.741c0-0.499-0.083-0.582-0.416-0.582h-0.415v4.322H31.388v-2.078l-0.831,2.078
	h-4.904l-0.831-1.995v1.995h-9.394l-0.997-2.66H12.02l-1.08,2.66H6.117V99.59h99.168V69.748c-1.08,0.499-2.577,0.748-4.073,0.748
	H93.98v-0.998c-0.831,0.666-2.328,0.998-3.74,0.998H67.464v-3.74c0-0.499-0.083-0.499-0.499-0.499h-0.415v4.239h-7.482v-4.405
	c-1.246,0.581-2.66,0.581-3.906,0.581H54.33v3.824h-9.143l-2.161-2.494l-2.41,2.494H25.901V54.204h14.962l2.161,2.493l2.328-2.493
	h10.058c1.163,0,3.076,0.166,3.906,0.997v-0.997h8.977c0.915,0,2.661,0.166,3.824,0.997v-0.997h13.549v0.997
	c0.748-0.665,2.162-0.997,3.408-0.997h7.564v0.997c0.832-0.581,1.995-0.997,3.492-0.997h5.154V0.006L105.286,0.006z"/>
</svg>
