<?xml version="1.0" encoding="utf-8"?>
<!-- Generator: Adobe Illustrator 17.0.2, SVG Export Plug-In . SVG Version: 6.00 Build 0)  -->
<!DOCTYPE svg PUBLIC "-//W3C//DTD SVG 1.1//EN" "http://www.w3.org/Graphics/SVG/1.1/DTD/svg11.dtd">
<svg version="1.1" id="Layer_1" xmlns="http://www.w3.org/2000/svg" xmlns:xlink="http://www.w3.org/1999/xlink" x="0px" y="0px"
	 width="214px" height="100px" viewBox="0 0 214 100" enable-background="new 0 0 214 100" xml:space="preserve">
<path d="M54.925,41.417c0.113,11.796,10.683,15.721,10.8,15.772c-0.089,0.278-1.688,5.595-5.566,11.088
	c-3.356,4.748-6.837,9.479-12.321,9.578c-5.389,0.097-7.119-3.094-13.283-3.094c-6.159,0-8.085,2.995-13.186,3.191
	c-5.292,0.194-9.324-5.137-12.706-9.868C1.751,58.403-3.531,40.736,3.562,28.808c3.523-5.923,9.818-9.675,16.653-9.769
	c5.197-0.097,10.104,3.386,13.283,3.386c3.174,0,9.138-4.189,15.409-3.574c2.622,0.107,9.987,1.027,14.717,7.732
	C63.24,26.814,54.832,31.555,54.925,41.417 M44.796,12.448C47.606,9.152,49.5,4.566,48.983,0c-4.052,0.157-8.951,2.614-11.855,5.907
	c-2.606,2.916-4.885,7.583-4.27,12.059c4.518,0.339,9.128-2.223,11.94-5.52 M85.474,6.807c2.289-0.379,4.587-0.695,6.893-0.948
	c2.755-0.293,5.523-0.433,8.293-0.419c4.308,0,8.021,0.508,11.143,1.525c3.126,1.016,5.689,2.473,7.698,4.366
	c1.739,1.703,3.114,3.743,4.04,5.994c0.968,2.313,1.448,4.98,1.448,7.995c0,3.646-0.66,6.837-1.989,9.572
	c-1.277,2.672-3.135,5.026-5.437,6.889c-2.299,1.855-5.026,3.241-8.184,4.155c-3.16,0.91-6.605,1.365-10.34,1.365
	c-3.372,0-6.208-0.244-8.503-0.734v30.293h-5.062L85.474,6.807L85.474,6.807z M90.536,42.15c1.22,0.349,2.584,0.595,4.092,0.734
	c1.509,0.141,3.122,0.21,4.844,0.21c6.46,0,11.468-1.472,15.021-4.417c3.552-2.945,5.33-7.259,5.33-12.938
	c0-2.735-0.466-5.121-1.4-7.154c-0.886-1.974-2.256-3.692-3.983-4.996c-1.722-1.299-3.767-2.279-6.137-2.947
	c-2.372-0.666-4.992-0.998-7.866-0.998c-2.295,0-4.27,0.087-5.921,0.262c-1.65,0.175-2.979,0.369-3.983,0.579V42.15H90.536z
	 M165.249,64.871c0,2.033,0.034,4.068,0.107,6.101c0.071,2.033,0.284,3.993,0.645,5.889h-4.738l-0.752-7.154h-0.22
	c-0.645,0.984-1.47,1.964-2.475,2.945c-1.004,0.98-2.17,1.876-3.497,2.682c-1.329,0.807-2.836,1.456-4.524,1.946
	c-1.805,0.506-3.672,0.753-5.546,0.736c-2.511,0-4.719-0.403-6.625-1.21c-1.902-0.807-3.463-1.857-4.683-3.154
	c-1.211-1.286-2.145-2.808-2.743-4.471c-0.598-1.616-0.908-3.325-0.916-5.048c0-5.96,2.565-10.552,7.698-13.779
	c5.133-3.227,12.869-4.77,23.21-4.629v-1.367c0-1.335-0.127-2.862-0.377-4.578c-0.252-1.719-0.819-3.377-1.672-4.891
	c-0.861-1.541-2.152-2.838-3.874-3.888c-1.722-1.053-4.058-1.579-6.998-1.579c-2.229,0-4.433,0.333-6.623,0.998
	s-4.181,1.593-5.976,2.787l-1.615-3.683c2.295-1.541,4.667-2.644,7.105-3.31c2.493-0.672,5.064-1.008,7.646-0.998
	c3.59,0,6.514,0.595,8.777,1.787c2.261,1.192,4.038,2.735,5.33,4.627c1.304,1.92,2.201,4.086,2.638,6.365
	c0.462,2.303,0.697,4.646,0.702,6.994v19.882L165.249,64.871z M160.187,49.83c-2.858-0.067-5.718,0.038-8.563,0.315
	c-2.977,0.278-5.724,0.895-8.235,1.839c-2.515,0.948-4.594,2.331-6.244,4.155s-2.479,4.243-2.479,7.261
	c0,3.572,1.041,6.204,3.126,7.886c2.077,1.682,4.411,2.525,6.996,2.525c2.081,0,3.949-0.278,5.599-0.843
	c1.652-0.561,3.084-1.315,4.306-2.259c1.222-0.944,2.243-2.017,3.07-3.207c0.827-1.196,1.454-2.42,1.888-3.685
	c0.359-1.404,0.54-2.42,0.54-3.053V49.83L160.187,49.83z M175.147,26.37l13.134,32.818c0.732,1.857,1.416,3.734,2.049,5.627
	c0.645,1.928,1.22,3.701,1.722,5.312h0.216c0.504-1.541,1.077-3.277,1.722-5.207c0.647-1.926,1.365-3.909,2.154-5.946l12.278-32.606
	h5.381l-14.965,37.029c-1.37,3.577-2.789,7.136-4.255,10.675c-1.209,2.937-2.556,5.815-4.038,8.624
	c-1.235,2.349-2.621,4.616-4.149,6.787c-1.345,1.902-2.917,3.633-4.683,5.153c-2.007,1.751-3.858,3.033-5.546,3.84
	c-1.686,0.807-2.815,1.315-3.39,1.525l-1.726-4.102c1.477-0.655,2.916-1.392,4.31-2.208c1.686-0.994,3.241-2.195,4.629-3.576
	c1.295-1.263,2.713-2.924,4.255-4.998c1.543-2.067,2.924-4.574,4.147-7.521c0.43-1.121,0.645-1.86,0.645-2.21
	c0-0.488-0.214-1.226-0.645-2.208l-18.631-46.81h5.387L175.147,26.37z"/>
</svg>
