<?xml version="1.0" encoding="utf-8"?>
<!-- Generator: Adobe Illustrator 17.0.2, SVG Export Plug-In . SVG Version: 6.00 Build 0)  -->
<!DOCTYPE svg PUBLIC "-//W3C//DTD SVG 1.1//EN" "http://www.w3.org/Graphics/SVG/1.1/DTD/svg11.dtd">
<svg version="1.1" id="Layer_1" xmlns="http://www.w3.org/2000/svg" xmlns:xlink="http://www.w3.org/1999/xlink" x="0px" y="0px"
	 width="162px" height="100px" viewBox="0 0 162 100" enable-background="new 0 0 162 100" xml:space="preserve">
<g>
	<path fill="#005498" d="M144.034,17.527h-7.521h-34.799H94.13l-5.099,5.736L72.587,41.81l0,0l-5.099,5.736h-7.521H25.806h-7.521
		l4.971-5.8l2.358-2.741l4.971-5.8h-7.521h-9.688H7.96c-4.143,0-7.521,3.505-7.521,7.712l0,0v14.914v1.402
		c0,4.27,3.378,7.712,7.521,7.712h2.103h79.031h5.672c4.143,0,9.815-2.549,12.556-5.736l13.129-14.914L144.034,17.527z"/>
	<path fill="#FFD800" d="M154.04,0.127c4.143,0,7.521,3.505,7.521,7.712v16.252c0,4.27-3.378,7.712-7.521,7.712h-4.079h-10.962
		h-7.521l5.035-5.736l0,0l2.486-2.868l5.035-5.736H94.129L67.552,47.419H18.03l35.5-40.153l1.338-1.53
		C57.673,2.613,63.345,0,67.488,0h1.721h84.831V0.127z"/>
</g>
<path fill="#005498" d="M161.561,99.108V96.75c0-0.319-0.191-0.51-0.637-0.51h-1.53c-0.446,0-0.765-0.064-0.829-0.255
	c-0.127-0.191-0.127-0.574-0.127-1.211v-8.923h2.486c0.191,0,0.319-0.064,0.446-0.191s0.191-0.255,0.191-0.446v-2.486
	c0-0.191-0.064-0.319-0.191-0.446s-0.255-0.191-0.446-0.191h-2.486v-3.25c0-0.191-0.064-0.319-0.127-0.382
	c-0.127-0.064-0.255-0.127-0.382-0.127h-0.064l-3.697,0.637c-0.191,0.064-0.319,0.127-0.446,0.191
	c-0.127,0.127-0.191,0.255-0.191,0.382v2.486h-2.486c-0.191,0-0.319,0.064-0.446,0.191s-0.191,0.255-0.191,0.446v2.04
	c0,0.191,0.064,0.319,0.191,0.382c0.127,0.127,0.255,0.191,0.446,0.255l2.486,0.382v8.923c0,1.083,0.127,1.976,0.319,2.677
	c0.255,0.701,0.574,1.211,0.956,1.593c0.446,0.382,0.956,0.637,1.593,0.765c0.637,0.127,1.402,0.191,2.231,0.191
	c0.446,0,0.829,0,1.211-0.064c0.319-0.064,0.765-0.127,1.211-0.191C161.37,99.618,161.561,99.426,161.561,99.108 M148.304,98.789
	v-2.741c0-0.191-0.064-0.319-0.191-0.382c-0.127-0.064-0.255-0.127-0.382-0.127h-0.064c-0.574,0.064-1.147,0.127-1.657,0.127
	c-0.51,0.064-1.211,0.064-2.103,0.064c-0.319,0-0.701-0.064-0.956-0.191c-0.319-0.127-0.574-0.319-0.829-0.574
	s-0.382-0.637-0.51-1.083c-0.127-0.446-0.191-1.02-0.191-1.721v-2.549c0-0.701,0.064-1.275,0.191-1.721s0.319-0.829,0.51-1.083
	c0.255-0.255,0.51-0.446,0.829-0.574c0.319-0.127,0.637-0.191,0.956-0.191c0.892,0,1.593,0,2.103,0.064s1.083,0.064,1.657,0.127
	h0.064c0.191,0,0.319-0.064,0.382-0.127c0.127-0.064,0.191-0.191,0.191-0.382v-2.741c0-0.255-0.064-0.382-0.127-0.446
	c-0.127-0.064-0.255-0.191-0.51-0.255c-0.446-0.127-0.956-0.191-1.657-0.319c-0.701-0.127-1.466-0.127-2.422-0.127
	c-2.167,0-3.888,0.637-5.226,1.976c-1.275,1.338-1.976,3.25-1.976,5.8v2.549c0,2.486,0.637,4.461,1.976,5.8
	c1.275,1.338,3.059,1.976,5.226,1.976c0.892,0,1.721-0.064,2.422-0.127c0.701-0.127,1.275-0.191,1.657-0.319
	c0.255-0.064,0.382-0.127,0.51-0.255C148.304,99.171,148.304,98.98,148.304,98.789 M128.355,95.539
	c-0.382,0.191-0.765,0.319-1.211,0.446s-0.892,0.191-1.338,0.191c-0.637,0-1.147-0.064-1.466-0.255
	c-0.319-0.191-0.446-0.574-0.446-1.275v-0.255c0-0.382,0.064-0.701,0.127-0.956c0.064-0.255,0.255-0.51,0.446-0.701
	s0.51-0.319,0.829-0.382c0.319-0.064,0.765-0.127,1.338-0.127h1.721V95.539L128.355,95.539z M133.199,88.082
	c0-1.147-0.191-2.103-0.51-2.868s-0.829-1.402-1.402-1.912c-0.637-0.51-1.338-0.892-2.231-1.083
	c-0.892-0.255-1.912-0.382-2.996-0.382c-1.02,0-2.04,0.064-2.996,0.191s-1.721,0.255-2.294,0.446
	c-0.382,0.127-0.574,0.319-0.574,0.701v2.486c0,0.191,0.064,0.319,0.127,0.446c0.127,0.064,0.255,0.127,0.382,0.127h0.127
	c0.255,0,0.574-0.064,0.892-0.064c0.382,0,0.765-0.064,1.211-0.064s0.956-0.064,1.466-0.064s1.02,0,1.466,0
	c0.701,0,1.275,0.127,1.657,0.382c0.382,0.255,0.637,0.829,0.637,1.721v1.083h-1.657c-2.613,0-4.589,0.382-5.736,1.211
	c-1.211,0.829-1.785,2.167-1.785,3.952v0.255c0,1.02,0.127,1.848,0.446,2.486c0.319,0.701,0.701,1.211,1.211,1.657
	c0.51,0.382,1.02,0.701,1.657,0.892s1.275,0.255,1.976,0.255c0.892,0,1.721-0.127,2.358-0.382c0.637-0.255,1.275-0.574,1.912-1.02
	v0.51c0,0.191,0.064,0.319,0.191,0.446s0.255,0.191,0.446,0.191h3.442c0.191,0,0.319-0.064,0.446-0.191s0.191-0.255,0.191-0.446
	V88.082H133.199L133.199,88.082z M116.819,99.108V96.75c0-0.319-0.191-0.51-0.637-0.51h-1.53c-0.446,0-0.765-0.064-0.829-0.255
	c-0.127-0.191-0.127-0.574-0.127-1.211v-8.923h2.486c0.191,0,0.319-0.064,0.446-0.191s0.191-0.255,0.191-0.446v-2.486
	c0-0.191-0.064-0.319-0.191-0.446s-0.255-0.191-0.446-0.191h-2.486v-3.25c0-0.191-0.064-0.319-0.127-0.382
	c-0.127-0.064-0.255-0.127-0.382-0.127h-0.064l-3.697,0.637c-0.191,0.064-0.319,0.127-0.446,0.191
	c-0.127,0.127-0.191,0.255-0.191,0.382v2.486h-2.549c-0.191,0-0.319,0.064-0.446,0.191s-0.191,0.255-0.191,0.446v2.04
	c0,0.191,0.064,0.319,0.191,0.382c0.127,0.127,0.255,0.191,0.446,0.255l2.486,0.382v8.923c0,1.083,0.127,1.976,0.319,2.677
	c0.255,0.701,0.574,1.211,0.956,1.593c0.446,0.382,0.956,0.637,1.593,0.765c0.637,0.127,1.402,0.191,2.231,0.191
	c0.446,0,0.829,0,1.211-0.064c0.319-0.064,0.765-0.127,1.211-0.191C116.628,99.618,116.819,99.426,116.819,99.108 M103.435,99.044
	V88.846c0-0.956-0.064-1.848-0.255-2.741c-0.127-0.829-0.446-1.593-0.829-2.231c-0.382-0.637-0.956-1.147-1.657-1.466
	c-0.701-0.382-1.593-0.574-2.741-0.574c-0.956,0-1.848,0.127-2.613,0.382c-0.765,0.255-1.53,0.637-2.422,1.275v-0.765
	c0-0.191-0.064-0.319-0.191-0.446s-0.255-0.191-0.446-0.191h-3.442c-0.191,0-0.319,0.064-0.446,0.191s-0.191,0.255-0.191,0.446
	v16.316c0,0.191,0.064,0.319,0.191,0.446s0.255,0.191,0.446,0.191h3.697c0.191,0,0.319-0.064,0.446-0.191s0.191-0.255,0.191-0.446
	V86.998c0.51-0.255,1.02-0.51,1.53-0.701c0.446-0.191,0.956-0.255,1.402-0.255s0.829,0.064,1.147,0.127
	c0.319,0.064,0.51,0.255,0.701,0.446c0.191,0.255,0.255,0.51,0.319,0.892c0.064,0.382,0.064,0.829,0.064,1.338v10.198
	c0,0.191,0.064,0.319,0.191,0.446s0.255,0.191,0.446,0.191h3.697c0.191,0,0.319-0.064,0.446-0.191
	C103.371,99.363,103.435,99.171,103.435,99.044 M80.235,91.969c0,2.486-0.892,3.76-2.741,3.76c-0.892,0-1.593-0.319-2.04-0.956
	s-0.701-1.593-0.701-2.804v-2.167c0-1.275,0.255-2.167,0.701-2.804s1.147-0.956,2.04-0.956c1.785,0,2.741,1.275,2.741,3.76V91.969z
	 M85.206,89.802c0-1.211-0.191-2.358-0.51-3.314s-0.829-1.785-1.466-2.486s-1.466-1.211-2.422-1.593
	c-0.956-0.382-2.04-0.574-3.314-0.574s-2.358,0.191-3.314,0.574s-1.785,0.892-2.422,1.593c-0.637,0.701-1.147,1.53-1.466,2.486
	s-0.51,2.103-0.51,3.314v2.167c0,1.211,0.191,2.358,0.51,3.314s0.829,1.785,1.466,2.486s1.466,1.211,2.422,1.593
	c0.956,0.382,2.04,0.574,3.314,0.574s2.358-0.191,3.314-0.574c0.956-0.382,1.785-0.892,2.422-1.593
	c0.637-0.701,1.147-1.53,1.466-2.486s0.51-2.103,0.51-3.314V89.802z M68.189,98.789v-2.741c0-0.191-0.064-0.319-0.191-0.382
	c-0.127-0.064-0.255-0.127-0.446-0.127h-0.064c-0.574,0.064-1.147,0.127-1.657,0.127c-0.51,0.064-1.211,0.064-2.103,0.064
	c-0.319,0-0.701-0.064-0.956-0.191c-0.319-0.127-0.574-0.319-0.829-0.574c-0.255-0.255-0.382-0.637-0.51-1.083
	c-0.127-0.446-0.191-1.02-0.191-1.721v-2.549c0-0.701,0.064-1.275,0.191-1.721c0.127-0.446,0.319-0.829,0.51-1.083
	c0.255-0.255,0.51-0.446,0.829-0.574c0.319-0.127,0.637-0.191,0.956-0.191c0.892,0,1.593,0,2.103,0.064s1.083,0.064,1.657,0.127
	h0.064c0.191,0,0.319-0.064,0.446-0.127c0.127-0.064,0.191-0.191,0.191-0.382v-2.741c0-0.255-0.064-0.382-0.127-0.446
	c-0.127-0.064-0.255-0.191-0.51-0.255c-0.446-0.127-0.956-0.191-1.657-0.319s-1.466-0.127-2.422-0.127
	c-2.167,0-3.888,0.637-5.226,1.976c-1.275,1.338-1.976,3.25-1.976,5.8v2.549c0,2.486,0.637,4.461,1.976,5.8
	c1.275,1.338,3.059,1.976,5.226,1.976c0.892,0,1.721-0.064,2.422-0.127c0.701-0.127,1.211-0.191,1.657-0.319
	c0.255-0.064,0.382-0.127,0.51-0.255C68.126,99.171,68.189,98.98,68.189,98.789 M53.084,99.044V88.846
	c0-0.956-0.064-1.848-0.255-2.741c-0.127-0.829-0.446-1.593-0.829-2.231c-0.382-0.637-0.956-1.147-1.657-1.466
	c-0.701-0.382-1.593-0.574-2.741-0.574c-0.956,0-1.848,0.127-2.613,0.382c-0.765,0.255-1.53,0.637-2.422,1.275v-0.765
	c0-0.191-0.064-0.319-0.191-0.446c-0.127-0.127-0.255-0.191-0.446-0.191h-3.442c-0.191,0-0.319,0.064-0.446,0.191
	s-0.191,0.255-0.191,0.446v16.316c0,0.191,0.064,0.319,0.191,0.446c0.127,0.127,0.255,0.191,0.446,0.191h3.697
	c0.191,0,0.319-0.064,0.446-0.191s0.191-0.255,0.191-0.446V86.998c0.51-0.255,1.02-0.51,1.53-0.701
	c0.446-0.191,0.956-0.255,1.402-0.255s0.829,0.064,1.147,0.127c0.319,0.064,0.51,0.255,0.701,0.446
	c0.191,0.255,0.255,0.51,0.319,0.892c0.064,0.382,0.064,0.829,0.064,1.338v10.198c0,0.191,0.064,0.319,0.191,0.446
	c0.127,0.127,0.255,0.191,0.446,0.191h3.697c0.191,0,0.319-0.064,0.446-0.191C53.02,99.363,53.084,99.171,53.084,99.044
	 M29.375,95.539c-0.382,0.191-0.765,0.319-1.211,0.446c-0.446,0.127-0.892,0.191-1.338,0.191c-0.637,0-1.147-0.064-1.466-0.255
	s-0.446-0.574-0.446-1.275v-0.255c0-0.382,0.064-0.701,0.127-0.956s0.255-0.51,0.446-0.701c0.191-0.191,0.51-0.319,0.829-0.382
	c0.319-0.064,0.765-0.127,1.338-0.127h1.721C29.375,92.224,29.375,95.539,29.375,95.539z M34.282,88.082
	c0-1.147-0.191-2.103-0.51-2.868c-0.319-0.765-0.829-1.402-1.402-1.912c-0.637-0.51-1.338-0.892-2.231-1.083
	c-0.892-0.255-1.912-0.382-2.996-0.382c-1.02,0-2.04,0.064-2.996,0.191c-0.956,0.127-1.721,0.255-2.294,0.446
	c-0.382,0.127-0.574,0.319-0.574,0.701v2.486c0,0.191,0.064,0.319,0.127,0.446c0.127,0.064,0.255,0.127,0.382,0.127h0.127
	c0.255,0,0.574-0.064,0.892-0.064c0.382,0,0.765-0.064,1.275-0.064c0.446,0,0.956-0.064,1.466-0.064s1.02,0,1.466,0
	c0.701,0,1.275,0.127,1.657,0.382c0.382,0.255,0.637,0.829,0.637,1.721v1.083h-1.657c-2.613,0-4.589,0.382-5.736,1.211
	c-1.211,0.829-1.785,2.167-1.785,3.952v0.255c0,1.02,0.127,1.848,0.446,2.486c0.319,0.701,0.701,1.211,1.211,1.657
	c0.51,0.382,1.02,0.701,1.657,0.892s1.275,0.255,1.976,0.255c0.892,0,1.721-0.127,2.358-0.382c0.637-0.255,1.275-0.574,1.912-1.02
	v0.51c0,0.191,0.064,0.319,0.191,0.446s0.255,0.191,0.446,0.191h3.442c0.191,0,0.319-0.064,0.446-0.191s0.191-0.255,0.191-0.446
	V88.082H34.282L34.282,88.082z M12.358,92.925c0,0.829-0.319,1.53-0.892,1.976s-1.721,0.701-3.25,0.701h-0.51
	c-0.255,0-0.51,0-0.765,0c-0.255,0-0.51,0-0.765,0h-0.51v-5.736h3.442c1.211,0,2.103,0.255,2.549,0.829
	c0.446,0.574,0.701,1.211,0.701,1.912V92.925z M12.23,83.811c0,0.319-0.064,0.637-0.127,0.956c-0.127,0.319-0.255,0.574-0.51,0.765
	c-0.255,0.191-0.574,0.382-0.956,0.51c-0.382,0.127-0.892,0.191-1.53,0.191H5.665v-5.29c0.127,0,0.255,0,0.446,0s0.446,0,0.701,0
	h0.701h0.51c1.593,0,2.677,0.191,3.314,0.574c0.637,0.382,0.956,1.02,0.956,1.848L12.23,83.811L12.23,83.811z M17.456,92.607
	c0-1.083-0.255-1.976-0.765-2.741s-1.147-1.402-1.976-1.785c0.829-0.382,1.466-1.02,1.912-1.785
	c0.446-0.829,0.701-1.721,0.701-2.677v-0.574c0-1.211-0.255-2.231-0.701-3.059c-0.446-0.829-1.147-1.466-1.976-1.976
	c-0.829-0.51-1.848-0.829-3.059-1.083c-1.211-0.191-2.486-0.319-3.952-0.319c-0.51,0-1.02,0-1.53,0s-1.02,0.064-1.53,0.064
	s-0.956,0.064-1.402,0.127c-0.446,0.064-0.765,0.064-1.02,0.127c-0.574,0.127-1.02,0.255-1.275,0.574
	c-0.255,0.255-0.382,0.765-0.382,1.466V97.64c0,0.701,0.127,1.147,0.382,1.466c0.255,0.255,0.701,0.446,1.275,0.574
	c0.319,0.064,0.701,0.127,1.083,0.127c0.446,0.064,0.892,0.064,1.402,0.127S5.665,100,6.175,100s1.083,0,1.593,0
	c1.338,0,2.613-0.127,3.76-0.319c1.147-0.191,2.167-0.574,3.059-1.083c0.892-0.51,1.53-1.211,2.103-2.103
	c0.51-0.892,0.765-2.04,0.765-3.378L17.456,92.607L17.456,92.607z"/>
</svg>
