<svg width="817" height="504" xmlns="http://www.w3.org/2000/svg">
 <style type="text/css">.st0{fill:#71706F;}
	.st1{fill:#B90466;}</style>

 <g>
  <title>background</title>
  <rect fill="none" id="canvas_background" height="506" width="819" y="-1" x="-1"/>
 </g>
 <g>
  <title>Layer 1</title>
  <g id="svg_1">
   <path id="svg_2" d="m638.6,251.4l0,0l-64.8,0c-7.2,0 -13,-5.7 -13,-12.9c0,-7.2 5.8,-13.5 13,-13.5l98.6,0l0,-48.6l-98.6,0c-34.4,0 -62.4,28.1 -62.4,62.4s28,62.4 62.4,62.4l63.9,0c7.2,0 13,5.7 13,12.9c0,7.2 -5.8,12.5 -13,12.5l-137,0c-11.6,22.2 -22.9,41.2 -45.9,50.7l183.8,0c33.8,-0.5 61.5,-29.1 61.5,-63.1c0,-34.1 -27.7,-62.3 -61.5,-62.8" class="st0"/>
   <path id="svg_3" d="m390.3,176.4c-54.9,0 -99.6,45 -99.6,100.2l0,2.1l0,206.4l49.7,0l0,-107.8l49.8,0c54.9,0 99.4,-45.6 99.4,-100.8c0.1,-55.3 -44.4,-100.1 -99.3,-100.1m0,150.1l-49.9,0l0,-50.1c0,-28 22.3,-50.8 49.9,-50.8c27.6,0 50.1,22.8 50.1,50.8c0,28 -22.5,50.1 -50.1,50.1" class="st0"/>
   <path id="svg_4" d="m133.4,377.3c-47,0 -86.5,-33.5 -97.2,-77.2c0,0 -3.1,-14.5 -3.1,-24c0,-9.5 2.9,-24.1 2.9,-24.1c10.8,-43.6 50.2,-76.1 97.1,-76.1c55.2,0 100.5,44.8 100.5,100l0,24.3l-146.6,0c8.7,16.9 26.2,26.4 46.4,26.4l131.8,0l0.2,-143.1c0,-21.3 -17.4,-38.8 -38.8,-38.8l-186.8,0c-21.3,0 -38.8,16.9 -38.8,38.3l0,186.8c0,21.3 17.5,39.3 38.8,39.3l186.8,0c19.1,0 35.1,-13.7 38.2,-31.7l-131.4,0l0,-0.1z" class="st1"/>
   <path id="svg_5" d="m133.2,223.3c-20.1,0 -37.6,12.3 -46.3,28.2l92.6,0c-8.7,-15.9 -26.2,-28.2 -46.3,-28.2" class="st1"/>
   <path id="svg_6" d="m217.8,83.9c0,-45.6 -37.9,-82.5 -84.6,-82.5c-45.9,0 -83.3,35.8 -84.5,80.3c0,0.2 0,0.4 0,0.6l0,24.7c0,3 2.4,5.9 5.5,5.9l31.1,0c3,0 5.7,-2.9 5.7,-5.9l0,-23.1c0,-22.8 18.9,-41.3 42.3,-41.3s42.3,18.5 42.3,41.3l0,23.1c0,3 2.4,5.9 5.5,5.9l31.1,0c3,0 5.7,-2.9 5.7,-5.9l0,-23.1l-0.1,0z" class="st1"/>
   <path id="svg_7" d="m446.1,441.8l-4.5,25.5c-2.2,12.9 -10.7,18.8 -22.1,18.8c-9.7,0 -17.2,-6.3 -15,-18.8l4.5,-25.5l6.9,0l-4.5,25.5c-1.4,8 2.2,12.5 8.9,12.5c6.9,0 12.9,-4.1 14.3,-12.5l4.5,-25.5l7,0zm-27.3,-8c0,2.1 1.6,3.1 3.4,3.1c2.2,0 4.6,-1.5 4.6,-4.5c0,-2.1 -1.4,-3.1 -3.2,-3.1c-2.3,0 -4.8,1.4 -4.8,4.5m15,-0.1c0,2.2 1.7,3.2 3.5,3.2c1.9,0 4.5,-1.5 4.5,-4.4c0,-2.1 -1.5,-3.2 -3.2,-3.2c-2.2,0 -4.8,1.4 -4.8,4.4" class="st0"/>
   <path id="svg_8" d="m462.8,441.8l-3.1,17.6c2.7,-3.6 8.1,-5.5 11.8,-5.5c7.8,0 13.1,4.6 13.1,13c0,11.9 -8.3,19.1 -18.9,19.1c-4.1,0 -7.6,-1.5 -9.8,-5.4l-1.2,4.6l-6.1,0l7.7,-43.4l6.5,0zm-4.8,29.7c-0.3,5.1 3.1,8.4 7.9,8.4c6.1,0 11.9,-4.7 12.3,-11.8c0.3,-5.2 -3.1,-8.3 -7.8,-8.3c-6,0 -12.1,4.9 -12.4,11.7" class="st0"/>
   <path id="svg_9" d="m497.3,472.4c-0.2,4.2 3.1,7.7 8.7,7.7c3.1,0 7.2,-1.2 9.5,-3.3l3.5,4c-3.8,3.5 -9.4,5.3 -14.2,5.3c-8.9,0 -14.1,-5.3 -14.1,-13.5c0,-10.8 8.5,-18.9 19.4,-18.9c10,0 15.6,6 12.2,18.7l-25,0zm19.8,-5.3c0.5,-5.3 -2.6,-7.5 -7.8,-7.5c-4.7,0 -9,2.2 -10.9,7.5l18.7,0z" class="st0"/>
   <path id="svg_10" d="m539.5,454.4l-0.3,4.1c3,-3.9 6.6,-4.8 9.9,-4.8c3,0 5.7,1.1 7.1,2.6l-3.9,5.6c-1.4,-1.3 -2.8,-1.9 -5.1,-1.9c-4.4,0 -8.8,2.7 -9.8,8.4l-3,16.6l-6.4,0l5.5,-30.7l6,0l0,0.1z" class="st0"/>
   <polygon id="svg_11" points="587.2999877929688,454.3999938964844 590.5,478.70001220703125 602.2999877929688,454.3999938964844 609.4000244140625,454.3999938964844 593.2999877929688,485.0999755859375 585.7999877929688,485.0999755859375 582.7000122070312,464.8999938964844 577.7999877929688,474.8999938964844 572.4000244140625,485.0999755859375 564.9000244140625,485.0999755859375 559.5,454.3999938964844 566.7000122070312,454.3999938964844 569.9000244140625,478.70001220703125 581.7000122070312,454.3999938964844 " class="st0"/>
   <path id="svg_12" d="m617.7,472.4c-0.2,4.2 3.1,7.7 8.7,7.7c3.1,0 7.2,-1.2 9.5,-3.3l3.5,4c-3.8,3.5 -9.4,5.3 -14.2,5.3c-8.9,0 -14.1,-5.3 -14.1,-13.5c0,-10.8 8.5,-18.9 19.4,-18.9c10,0 15.6,6 12.2,18.7l-25,0zm19.8,-5.3c0.5,-5.3 -2.6,-7.5 -7.8,-7.5c-4.7,0 -9,2.2 -10.9,7.5l18.7,0z" class="st0"/>
   <path id="svg_13" d="m660.4,454.4l-5.4,30.7l-6.4,0l5.4,-30.7l6.4,0zm-5.7,-8.3c0,2.2 1.6,3.3 3.4,3.3c2.5,0 4.8,-1.6 4.8,-4.7c0,-2.1 -1.5,-3.3 -3.2,-3.3c-2.4,0.1 -5,1.6 -5,4.7" class="st0"/>
   <path id="svg_14" d="m688.9,462c-2,-2.2 -4.6,-2.9 -7.6,-2.9c-4.2,0 -7.3,1.4 -7.3,4.1c0,2.3 2.4,3.2 6.1,3.5c5.6,0.5 12.8,2.4 11.3,10.3c-1.1,5.7 -6.8,9.1 -14.8,9.1c-5,0 -9.8,-1.1 -13.1,-5.7l4.2,-4.6c2.3,3.2 6.4,4.5 10,4.6c3.1,0 6.7,-1.1 7.3,-4c0.6,-2.8 -1.9,-3.8 -6.4,-4.2c-5.3,-0.5 -11,-2.4 -11,-8.3c0,-7.7 8.3,-10.4 14.6,-10.4c4.8,0 8.2,1.1 11.1,4.1l-4.4,4.4z" class="st0"/>
   <path id="svg_15" d="m709.3,454.4l-2.9,16.5c-1,5.3 1.4,8.9 6.8,8.9c5.1,0 9.4,-4.2 10.2,-9.3l2.8,-16.1l6.4,0l-5.4,30.7l-5.8,0l0.4,-4.4c-3.6,3.4 -7.2,5.1 -11.5,5.1c-7.6,0 -12.1,-5.4 -10.4,-14.7l2.9,-16.6l6.5,0l0,-0.1z" class="st0"/>
   <path id="svg_16" d="m760.9,485.1l3,-16.4c0.9,-5.3 -0.9,-8.8 -6.8,-8.8c-5.1,0 -9.4,4.1 -10.3,9.2l-2.8,16.1l-6.4,0l5.4,-30.7l5.9,0l-0.5,4.5c3.6,-3.3 7.3,-4.9 11.3,-4.9c7.5,0 12.4,5.2 10.7,14.6l-3,16.5l-6.5,0l0,-0.1z" class="st0"/>
   <path id="svg_17" d="m782.7,489.3c-0.4,4.2 2.8,5.9 8.2,5.9c4.8,0 9.9,-2.6 11.1,-9.4l0.9,-5.3c-2.8,3.9 -7.9,5.5 -11.8,5.5c-7.9,0 -13.4,-4.7 -13.4,-13.2c0,-12.1 9,-19.1 19.2,-19.1c4.3,0 8.2,2.1 9.6,5.6l1.1,-4.9l6.2,0l-5.4,31.6c-2,11.7 -10.7,15.3 -18.6,15.3c-9.5,0 -14.7,-4.6 -13.4,-12l6.3,0zm1.8,-17.6c0,5.3 3.4,8.4 8.4,8.4c13.3,0 16.9,-20.4 3.6,-20.4c-6.3,0 -12,4.7 -12,12" class="st0"/>
  </g>
 </g>
</svg>