<?xml version="1.0" encoding="utf-8"?>
<!-- Generator: Adobe Illustrator 17.0.2, SVG Export Plug-In . SVG Version: 6.00 Build 0)  -->
<!DOCTYPE svg PUBLIC "-//W3C//DTD SVG 1.1//EN" "http://www.w3.org/Graphics/SVG/1.1/DTD/svg11.dtd">
<svg version="1.1" id="Layer_1" xmlns="http://www.w3.org/2000/svg" xmlns:xlink="http://www.w3.org/1999/xlink" x="0px" y="0px"
	 width="234px" height="100px" viewBox="0 0 234 100" enable-background="new 0 0 234 100" xml:space="preserve">
<g id="layer1">
	<path id="_92653320" fill="#000268" d="M0.726,17.942C0.726,8.034,8.801,0,18.756,0h196.489c9.959,0,18.029,8.034,18.029,17.942
		v64.12c0,9.903-8.07,17.938-18.029,17.938H18.756c-9.955,0-18.029-8.035-18.029-17.938v-64.12H0.726z"/>
	<path id="_92186184" fill="#FFFFFF" d="M8.126,18.556v62.898c0,6.191,5.047,11.212,11.272,11.212H122.34V7.345H19.398
		C13.173,7.345,8.126,12.365,8.126,18.556L8.126,18.556z M148.939,49.691c0,4.005-1.981,6.757-5.26,6.757
		c-2.897,0-5.312-2.752-5.312-6.42c0-3.764,2.124-6.563,5.312-6.563C147.06,43.465,148.939,46.361,148.939,49.691z M129.685,72.659
		h8.682V59.002h0.097c1.645,2.993,4.928,4.102,7.967,4.102c7.478,0,11.482-6.175,11.482-13.606c0-6.078-3.811-12.693-10.761-12.693
		c-3.954,0-7.621,1.594-9.363,5.118h-0.097v-4.534h-8.008v35.27H129.685z M169.773,54.563c0-2.411,2.314-3.324,5.261-3.324
		c1.302,0,2.558,0.091,3.667,0.143c0,2.942-2.075,5.934-5.358,5.934C171.316,57.316,169.773,56.304,169.773,54.563z M187.287,62.525
		c-0.384-1.976-0.481-3.958-0.481-5.934V47.23c0-7.672-5.546-10.425-11.966-10.425c-3.714,0-6.946,0.531-10.036,1.788l0.148,5.89
		c2.405-1.354,5.209-1.885,8.008-1.885c3.132,0,5.69,0.919,5.742,4.346c-1.109-0.194-2.657-0.342-4.055-0.342
		c-4.629,0-12.978,0.919-12.978,8.59c0,5.455,4.437,7.912,9.408,7.912c3.57,0,5.985-1.394,7.963-4.536h0.097
		c0,1.307,0.142,2.605,0.194,3.958L187.287,62.525L187.287,62.525z M191.194,72.659c1.787,0.388,3.57,0.584,5.403,0.584
		c7.963,0,9.842-6.13,12.303-12.452l9.219-23.402h-8.688l-5.163,16.405h-0.097l-5.405-16.405h-9.357l10.179,25.715
		c-0.628,2.221-2.267,3.478-4.393,3.478c-1.21,0-2.267-0.148-3.427-0.531L191.194,72.659z"/>
	<path id="_47303032" fill="#FF0007" d="M29.337,49.742c0-3.427,1.691-6.276,4.924-6.276c3.908,0,5.547,3.136,5.547,5.934
		c0,3.861-2.461,6.466-5.547,6.466C31.657,55.866,29.337,53.649,29.337,49.742z M48.205,37.388h-7.866v4.534h-0.091
		c-1.839-3.09-4.833-5.118-8.545-5.118c-7.815,0-11.339,5.603-11.339,13.081c0,7.431,4.296,12.641,11.19,12.641
		c3.479,0,6.375-1.354,8.448-4.296h0.097v1.354c0,4.92-2.702,7.284-7.717,7.284c-3.621,0-5.843-0.772-8.494-2.073l-0.434,6.854
		c2.023,0.725,5.45,1.594,9.603,1.594c10.133,0,15.148-3.331,15.148-13.658C48.205,59.585,48.205,37.388,48.205,37.388z
		 M62.884,26.917h-8.687v6.369h8.687V26.917z M54.202,62.525h8.682V37.388h-8.682V62.525z M87.068,37.095
		c-0.869-0.142-1.931-0.291-2.942-0.291c-3.764,0-5.934,2.028-7.431,5.215h-0.097v-4.631h-7.912v25.138h8.684V51.913
		c0-4.924,2.272-7.866,6.323-7.866c1.016,0,1.976,0,2.942,0.285L87.068,37.095z M102.022,57.025c-4.005,0-5.643-3.33-5.643-7.043
		c0-3.764,1.639-7.094,5.643-7.094c4.009,0,5.649,3.33,5.649,7.094C107.671,53.695,106.031,57.025,102.022,57.025z M102.022,63.103
		c8.3,0,14.623-4.821,14.623-13.121c0-8.351-6.323-13.178-14.623-13.178c-8.299,0-14.617,4.827-14.617,13.178
		C87.405,58.282,93.724,63.103,102.022,63.103z"/>
</g>
</svg>
