<?xml version="1.0" encoding="utf-8"?>
<!-- Generator: Adobe Illustrator 17.0.2, SVG Export Plug-In . SVG Version: 6.00 Build 0)  -->
<!DOCTYPE svg PUBLIC "-//W3C//DTD SVG 1.1//EN" "http://www.w3.org/Graphics/SVG/1.1/DTD/svg11.dtd">
<svg version="1.1" id="Layer_1" xmlns="http://www.w3.org/2000/svg" xmlns:xlink="http://www.w3.org/1999/xlink" x="0px" y="0px"
	 width="116px" height="100px" viewBox="0 0 116 100" enable-background="new 0 0 116 100" xml:space="preserve">
<path d="M0.301,0h59.517c40.396,0,55.88,22.06,55.88,49.888c0,33.369-21.622,50.112-55.88,50.112H0.301V0z M6.071,5.77v88.464
	h53.748c32.45,0,50.105-15.121,50.105-44.346c0-30.035-19.139-44.12-50.105-44.12H6.071L6.071,5.77z"/>
<path d="M13.282,56.393h17.206v30.622H13.282V56.393z"/>
<circle cx="21.883" cy="40.964" r="10.693"/>
<path fill="#D50072" d="M66.569,45.967v4.958H54.31V31.028h11.868v4.957h-6.911v2.304h6.535v4.958h-6.535v2.722L66.569,45.967
	L66.569,45.967z M68.714,50.929l5.999-19.908h7.052l5.997,19.908h-5.16l-1.125-3.851h-6.484l-1.127,3.851H68.714L68.714,50.929z
	 M76.447,42.125h3.588l-1.646-5.623h-0.3L76.447,42.125L76.447,42.125z M90.256,31.023h4.96v14.946h7.342
	C100.543,18.85,79.213,12.99,59.82,12.99H39.152v18.043h3.059c5.578,0,9.04,3.782,9.04,9.868c0,6.28-3.38,10.028-9.04,10.028h-3.059
	V87.03h20.67c31.515,0,42.49-14.637,42.878-36.104H90.256L90.256,31.023L90.256,31.023z M39.149,35.99v9.979h3.062
	c2.122,0,4.084-0.614,4.084-5.07c0-4.352-2.182-4.909-4.084-4.909H39.149z"/>
</svg>
