<?xml version="1.0" encoding="utf-8"?>
<!-- Generator: Adobe Illustrator 17.0.2, SVG Export Plug-In . SVG Version: 6.00 Build 0)  -->
<!DOCTYPE svg PUBLIC "-//W3C//DTD SVG 1.1//EN" "http://www.w3.org/Graphics/SVG/1.1/DTD/svg11.dtd">
<svg version="1.1" id="Layer_1" xmlns="http://www.w3.org/2000/svg" xmlns:xlink="http://www.w3.org/1999/xlink" x="0px" y="0px"
	 width="130px" height="100px" viewBox="0 0 130 100" enable-background="new 0 0 130 100" xml:space="preserve">
<g>
	<g>
		<path id="XMLID_1775_" d="M23.982,99.734v-6.641c0-2.501-1.594-4.184-4.161-4.206c-1.35-0.022-2.745,0.398-3.719,1.881
			c-0.73-1.173-1.882-1.881-3.497-1.881c-1.129,0-2.236,0.332-3.099,1.572v-1.306H7.204v10.58h2.324v-5.866
			c0-1.837,1.018-2.811,2.59-2.811c1.527,0,2.302,0.996,2.302,2.789v5.888h2.324v-5.866c0-1.837,1.063-2.811,2.59-2.811
			c1.571,0,2.324,0.996,2.324,2.789v5.888L23.982,99.734L23.982,99.734z M58.38,89.154h-3.763v-3.21h-2.324v3.21h-2.147v2.103h2.147
			v4.825c0,2.457,0.952,3.918,3.674,3.918c0.996,0,2.147-0.31,2.877-0.819l-0.664-1.97c-0.686,0.398-1.439,0.598-2.036,0.598
			c-1.151,0-1.527-0.709-1.527-1.771v-4.781h3.763C58.38,91.257,58.38,89.154,58.38,89.154z M78.014,88.888
			c-1.328,0-2.191,0.62-2.789,1.549v-1.284h-2.28v10.58h2.302v-5.932c0-1.749,0.753-2.723,2.258-2.723
			c0.465,0,0.952,0.066,1.439,0.266l0.708-2.169C79.143,88.977,78.479,88.888,78.014,88.888L78.014,88.888z M48.331,89.995
			c-1.107-0.73-2.634-1.107-4.316-1.107c-2.678,0-4.405,1.284-4.405,3.387c0,1.727,1.284,2.789,3.652,3.121l1.085,0.155
			c1.262,0.177,1.859,0.509,1.859,1.107c0,0.819-0.841,1.284-2.413,1.284c-1.594,0-2.745-0.509-3.519-1.107l-1.085,1.793
			c1.262,0.93,2.855,1.373,4.582,1.373c3.055,0,4.825-1.439,4.825-3.453c0-1.859-1.394-2.833-3.696-3.165l-1.085-0.155
			c-0.996-0.133-1.793-0.332-1.793-1.04c0-0.775,0.752-1.24,2.014-1.24c1.35,0,2.656,0.509,3.298,0.908L48.331,89.995z
			 M109.999,88.888c-1.328,0-2.191,0.62-2.789,1.549v-1.284h-2.28v10.58h2.302v-5.932c0-1.749,0.753-2.723,2.258-2.723
			c0.465,0,0.952,0.066,1.439,0.266l0.708-2.169C111.128,88.977,110.464,88.888,109.999,88.888L109.999,88.888z M80.338,94.444
			c0,3.21,2.236,5.556,5.645,5.556c1.594,0,2.656-0.354,3.807-1.262l-1.107-1.859c-0.863,0.62-1.771,0.952-2.767,0.952
			c-1.837-0.022-3.187-1.35-3.187-3.387c0-2.036,1.35-3.364,3.187-3.386c0.996,0,1.904,0.332,2.767,0.952l1.107-1.859
			c-1.151-0.907-2.213-1.262-3.807-1.262C82.574,88.888,80.338,91.234,80.338,94.444L80.338,94.444z M101.897,94.444v-5.29h-2.302
			v1.284c-0.73-0.952-1.837-1.549-3.342-1.549c-2.966,0-5.29,2.324-5.29,5.556s2.324,5.556,5.29,5.556
			c1.505,0,2.612-0.598,3.342-1.55v1.284h2.302V94.444z M93.331,94.444c0-1.859,1.217-3.386,3.21-3.386
			c1.903,0,3.187,1.461,3.187,3.386c0,1.926-1.284,3.387-3.187,3.387C94.549,97.831,93.331,96.303,93.331,94.444L93.331,94.444z
			 M65.552,88.888c-3.099,0-5.268,2.258-5.268,5.556c0,3.365,2.258,5.556,5.423,5.556c1.594,0,3.055-0.399,4.338-1.483l-1.129-1.704
			c-0.885,0.708-2.014,1.107-3.077,1.107c-1.483,0-2.833-0.686-3.165-2.59h7.858c0.022-0.288,0.044-0.575,0.044-0.885
			C70.554,91.146,68.518,88.888,65.552,88.888L65.552,88.888z M65.508,90.947c1.483,0,2.435,0.93,2.678,2.568h-5.489
			C62.94,91.987,63.87,90.947,65.508,90.947L65.508,90.947z M123.258,94.444v-9.54h-2.302v5.534
			c-0.73-0.952-1.837-1.549-3.342-1.549c-2.966,0-5.29,2.324-5.29,5.556s2.324,5.556,5.29,5.556c1.505,0,2.612-0.598,3.342-1.55
			v1.284h2.302V94.444z M114.691,94.444c0-1.859,1.217-3.386,3.209-3.386c1.904,0,3.187,1.461,3.187,3.386
			c0,1.926-1.284,3.387-3.187,3.387C115.909,97.831,114.691,96.303,114.691,94.444L114.691,94.444z M36.954,94.444v-5.29h-2.302
			v1.284c-0.73-0.952-1.837-1.549-3.342-1.549c-2.966,0-5.29,2.324-5.29,5.556s2.324,5.556,5.29,5.556
			c1.505,0,2.612-0.598,3.342-1.55v1.284h2.302C36.954,99.735,36.954,94.444,36.954,94.444z M28.387,94.444
			c0-1.859,1.217-3.386,3.209-3.386c1.904,0,3.187,1.461,3.187,3.386c0,1.926-1.284,3.387-3.187,3.387
			C29.605,97.831,28.387,96.303,28.387,94.444z"/>
	</g>
	<g id="XMLID_328_">
		<rect x="47.566" y="8.52" fill="#FF5F00" width="34.867" height="62.657"/>
		<path id="XMLID_330_" fill="#EB001B" d="M49.78,39.848c0-12.711,5.952-24.032,15.22-31.329C58.222,3.184,49.669,0,40.374,0
			C18.368,0,0.528,17.841,0.528,39.848s17.839,39.848,39.845,39.848c9.296,0,17.848-3.184,24.626-8.52
			C55.732,63.88,49.78,52.56,49.78,39.848z"/>
		<path fill="#F79E1B" d="M129.471,39.848c0,22.007-17.839,39.848-39.845,39.848c-9.296,0-17.848-3.184-24.626-8.52
			c9.268-7.297,15.22-18.617,15.22-31.329S74.268,15.816,65,8.52C71.778,3.184,80.33,0,89.626,0
			C111.632,0,129.471,17.841,129.471,39.848z"/>
	</g>
</g>
</svg>
