<?xml version="1.0" encoding="utf-8"?>
<!-- Generator: Adobe Illustrator 17.0.2, SVG Export Plug-In . SVG Version: 6.00 Build 0)  -->
<!DOCTYPE svg PUBLIC "-//W3C//DTD SVG 1.1//EN" "http://www.w3.org/Graphics/SVG/1.1/DTD/svg11.dtd">
<svg version="1.1" id="Layer_1" xmlns="http://www.w3.org/2000/svg" xmlns:xlink="http://www.w3.org/1999/xlink" x="0px" y="0px"
	 width="324px" height="100px" viewBox="0 0 324 100" enable-background="new 0 0 324 100" xml:space="preserve">
<g id="layer1" transform="translate(85.788367,-282.23124)">
	<path id="path66" fill="#EE7F00" d="M21.607,282.231c-4.412,0-8.691,1.014-12.709,2.906c-5.739,2.718-10.945,7.251-15.194,13.266
		c-2.76,3.905-5.124,8.431-6.974,13.494c-3.489,9.556-3.45,17.307,0.117,22.415c2.022,2.887,6.226,6.337,14.774,6.346h0.033
		c15.571,0,27.194-10.206,34.555-30.335c1.944-5.326,4.51-15.266-0.179-21.973C33.198,284.295,28.353,282.238,21.607,282.231
		L21.607,282.231z M115.559,282.231c-4.409,0-8.691,1.014-12.706,2.906c-5.742,2.718-10.944,7.251-15.193,13.266
		c-2.764,3.905-5.125,8.431-6.975,13.494c-3.492,9.556-3.45,17.307,0.12,22.415c2.019,2.887,6.22,6.337,14.774,6.346h0.027
		c15.574,0,27.201-10.206,34.555-30.335c1.951-5.326,4.51-15.266-0.176-21.973C127.15,284.295,122.306,282.238,115.559,282.231z
		 M-28.399,283.041c-5.124,0-10.102,0-14.563,2.262c-4.458,2.263-8.395,6.792-11.426,15.851c-0.657,1.948-1.004,3.626-1.05,5.082
		c-0.046,1.46,0.208,2.702,0.761,3.781c0.683,1.317,1.788,2.556,3.17,3.599c1.385,1.047,3.04,1.896,4.825,2.439
		c0.068,0.02,1.005,0.286,2.143,0.611c1.131,0.325,2.455,0.715,3.293,0.969c0.491,0.15,1.03,0.345,1.518,0.641
		c0.491,0.289,0.93,0.679,1.207,1.219c0.182,0.358,0.28,0.751,0.29,1.171c0.013,0.423-0.059,0.878-0.225,1.359
		c-0.416,1.229-1.047,2.022-2.25,2.507c-1.197,0.484-2.962,0.64-5.641,0.659h-33.444l-5.287,14.524h35.798
		c3.368,0,9.526,0,15.444-2.516c5.918-2.513,11.595-7.537,13.998-17.593c0.904-3.778,0.624-6.857-0.855-9.276
		c-1.486-2.416-4.172-4.171-8.083-5.293c0,0-0.874-0.254-1.905-0.55c-1.024-0.296-2.211-0.634-2.816-0.809
		c-1.001-0.286-1.772-0.865-2.227-1.603c-0.452-0.735-0.589-1.629-0.332-2.543c0.27-0.949,0.92-1.707,1.857-2.23
		c0.943-0.52,2.178-0.806,3.622-0.806h20.809c0.146-0.211,0.28-0.442,0.426-0.653c3.801-5.378,8.402-9.728,13.441-12.801H-28.399z
		 M65.13,283.041c-9.26,0-16.153,4.685-19.408,13.454l-15.73,43.22h17.233l8.083-22.217l15.229,0.01l4.334-11.9l-15.18-0.01
		l2.445-6.89c0.507-1.236,1.726-2.217,3.508-2.217c0.992,0,12.173,0.003,17.957,0.006c0.15-0.215,0.283-0.445,0.429-0.656
		c3.801-5.378,9.182-9.728,14.222-12.801H65.13L65.13,283.041z M145.075,283.072l-20.637,56.678h17.529l7.501-19.95
		c0.367,0.823,4.793,19.95,4.793,19.95h18.429c0,0-3.352-14.056-5.817-19.732c-0.634-1.46-1.295-3.095-2.179-4.464
		c5.205-1.935,12.749-6.087,15.873-14.501c1.918-5.173,1.808-9.355-0.325-12.421c-2.585-3.723-7.846-5.55-16.088-5.56H145.075
		L145.075,283.072z M181.028,283.073c1.109,0.878,2.064,1.879,2.861,3.023c2.039,2.939,2.819,6.432,2.354,10.434h10.438
		l-15.73,43.234h15.717l15.74-43.234h20.194l4.9-13.458H181.028z M156.624,294.774h2.894c5.29,0.004,7.263,1.551,5.472,6.379
		c-1.681,4.532-4.705,7.332-10.453,7.332h-0.023l-2.975-0.003L156.624,294.774L156.624,294.774z M17.471,295.055h0.003
		c5.384,0.007,6.617,3.128,1.889,16.062h-0.001c-4.858,13.295-8.382,16.64-13.688,16.64h-0.01c-5.17-0.003-6.983-3.275-2.145-16.508
		C7.132,301.372,11.811,295.055,17.471,295.055L17.471,295.055z M111.424,295.055h0.006c5.381,0.007,6.616,3.128,1.886,16.062
		c-4.854,13.295-8.382,16.64-13.685,16.64h-0.012c-5.173-0.003-6.978-3.275-2.143-16.508
		C101.084,301.372,105.766,295.055,111.424,295.055L111.424,295.055z"/>
	<path id="path98" fill="#383A41" d="M-68.035,345.721c-1.102,0-1.928,0.201-2.481,0.595c-0.549,0.403-1.011,1.116-1.385,2.146
		c-0.361,0.988-0.416,1.674-0.165,2.064c0.25,0.393,0.929,0.588,2.048,0.588c1.115,0,1.948-0.201,2.494-0.611
		c0.546-0.406,1.005-1.115,1.372-2.13c0.364-1.001,0.426-1.691,0.179-2.078C-66.215,345.912-66.904,345.721-68.035,345.721z
		 M-58.532,345.721c-1.118,0-1.947,0.201-2.49,0.595c-0.546,0.403-1.004,1.116-1.378,2.146c-0.358,0.988-0.416,1.674-0.176,2.064
		c0.244,0.393,0.92,0.588,2.038,0.588c1.115,0,1.948-0.201,2.504-0.611c0.553-0.406,1.014-1.115,1.384-2.13
		c0.364-1.001,0.42-1.691,0.169-2.078C-56.734,345.912-57.417,345.721-58.532,345.721z M118.874,353.094
		c-1.294,0-2.575,0.166-3.849,0.498c-1.275,0.335-2.458,0.839-3.551,1.512c-1.096,0.676-2.074,1.522-2.948,2.543
		c-0.871,1.024-1.551,2.211-2.042,3.557c-0.429,1.177-0.621,2.181-0.578,3.023c0.039,0.839,0.227,1.571,0.562,2.185
		c0.332,0.618,0.774,1.144,1.327,1.587c0.549,0.442,1.135,0.838,1.762,1.183c0.628,0.348,1.239,0.683,1.84,0.992
		c0.595,0.312,1.109,0.644,1.535,1.001c0.432,0.354,0.734,0.761,0.916,1.216c0.182,0.458,0.157,1.005-0.074,1.642
		c-0.202,0.549-0.485,1.051-0.852,1.499c-0.367,0.452-0.8,0.829-1.291,1.132c-0.497,0.306-1.047,0.543-1.662,0.709
		c-0.611,0.166-1.265,0.251-1.96,0.251c-1.06,0-1.948-0.121-2.663-0.361c-0.715-0.237-1.313-0.504-1.788-0.793
		c-0.471-0.289-0.852-0.553-1.132-0.794c-0.286-0.237-0.53-0.357-0.735-0.357c-0.143,0-0.282,0.039-0.422,0.12
		c-0.137,0.078-0.273,0.211-0.407,0.4s-0.27,0.436-0.41,0.741c-0.14,0.302-0.296,0.683-0.455,1.129
		c-0.244,0.67-0.391,1.18-0.439,1.534c-0.052,0.354-0.013,0.628,0.108,0.816c0.114,0.189,0.348,0.406,0.686,0.653
		c0.335,0.244,0.783,0.481,1.339,0.706c0.556,0.224,1.223,0.417,1.996,0.576c0.777,0.159,1.652,0.237,2.624,0.237
		c1.434,0,2.852-0.189,4.25-0.563c1.398-0.377,2.705-0.939,3.918-1.687c1.216-0.745,2.298-1.675,3.258-2.793
		c0.956-1.115,1.704-2.413,2.244-3.892c0.41-1.132,0.595-2.113,0.549-2.945c-0.046-0.832-0.238-1.561-0.579-2.175
		c-0.341-0.618-0.793-1.144-1.359-1.59c-0.562-0.439-1.161-0.836-1.789-1.184c-0.624-0.348-1.245-0.676-1.856-0.988
		s-1.138-0.648-1.58-1.002c-0.445-0.354-0.755-0.761-0.93-1.216c-0.172-0.455-0.146-0.998,0.081-1.623
		c0.153-0.419,0.375-0.816,0.667-1.196c0.286-0.377,0.634-0.699,1.043-0.965c0.41-0.267,0.871-0.478,1.392-0.631
		c0.52-0.153,1.093-0.228,1.717-0.228c0.797,0,1.496,0.094,2.091,0.293c0.595,0.195,1.102,0.409,1.521,0.653
		c0.419,0.237,0.767,0.459,1.04,0.663c0.276,0.205,0.495,0.303,0.651,0.303c0.163,0,0.302-0.043,0.429-0.13
		c0.127-0.088,0.25-0.224,0.371-0.413c0.117-0.189,0.237-0.429,0.367-0.719c0.127-0.286,0.27-0.644,0.423-1.063
		c0.137-0.377,0.244-0.696,0.318-0.946c0.081-0.257,0.13-0.466,0.156-0.631c0.023-0.166,0.029-0.302,0.016-0.403
		c-0.016-0.101-0.068-0.228-0.159-0.371c-0.091-0.143-0.322-0.325-0.693-0.543c-0.374-0.218-0.816-0.413-1.333-0.588
		c-0.514-0.172-1.089-0.309-1.716-0.41C120.185,353.143,119.538,353.094,118.874,353.094L118.874,353.094z M209.177,353.112
		c-2.217,0-4.35,0.341-6.405,1.024c-2.055,0.683-3.95,1.661-5.696,2.945c-1.739,1.284-3.297,2.842-4.659,4.676
		c-1.362,1.837-2.461,3.905-3.304,6.211c-0.81,2.23-1.213,4.23-1.196,5.989c0.007,1.762,0.407,3.258,1.19,4.48
		c0.787,1.226,1.95,2.159,3.495,2.806c1.538,0.644,3.433,0.965,5.68,0.965c0.771,0,1.548-0.035,2.335-0.107
		c0.787-0.075,1.58-0.182,2.38-0.325c0.803-0.146,1.584-0.319,2.355-0.524c0.771-0.205,1.424-0.396,1.964-0.585
		c0.54-0.192,0.946-0.449,1.219-0.774c0.267-0.325,0.485-0.705,0.641-1.141l4.077-11.198c0.104-0.293,0.163-0.55,0.169-0.774
		c0.01-0.224-0.022-0.416-0.104-0.575c-0.081-0.159-0.195-0.28-0.348-0.358c-0.153-0.081-0.345-0.123-0.576-0.123h-9.503
		c-0.13,0-0.26,0.042-0.39,0.123c-0.13,0.078-0.26,0.202-0.396,0.371c-0.13,0.166-0.267,0.384-0.403,0.663
		c-0.137,0.273-0.28,0.615-0.426,1.018c-0.286,0.787-0.416,1.34-0.39,1.665c0.029,0.328,0.172,0.491,0.432,0.491h5.33l-2.377,6.523
		c-0.641,0.289-1.301,0.507-1.977,0.653c-0.673,0.143-1.333,0.218-1.97,0.218c-1.307,0-2.423-0.211-3.35-0.631
		c-0.927-0.423-1.625-1.044-2.09-1.873c-0.468-0.823-0.693-1.85-0.677-3.073c0.02-1.226,0.322-2.646,0.907-4.253
		c0.533-1.466,1.232-2.803,2.094-4.012c0.858-1.21,1.837-2.247,2.933-3.112c1.099-0.862,2.286-1.528,3.557-1.999
		c1.275-0.468,2.591-0.706,3.954-0.706c1.275,0,2.347,0.13,3.218,0.39c0.865,0.26,1.594,0.546,2.182,0.848
		c0.582,0.306,1.038,0.588,1.363,0.848c0.325,0.26,0.582,0.39,0.773,0.39c0.127,0,0.254-0.035,0.374-0.107
		c0.124-0.075,0.248-0.202,0.381-0.381c0.13-0.182,0.267-0.426,0.413-0.731c0.15-0.302,0.299-0.664,0.452-1.086
		c0.263-0.725,0.42-1.271,0.465-1.641c0.052-0.367,0.013-0.654-0.108-0.858c-0.124-0.205-0.38-0.442-0.77-0.719
		c-0.393-0.273-0.923-0.533-1.583-0.77c-0.657-0.241-1.457-0.442-2.397-0.608C211.473,353.197,210.393,353.112,209.177,353.112z
		 M31.408,353.46c-0.741,0-1.323,0.02-1.749,0.059c-0.426,0.036-0.758,0.133-0.998,0.293c-0.241,0.159-0.406,0.387-0.497,0.686
		c-0.094,0.296-0.169,0.706-0.231,1.229l-2.543,24.548c-0.042,0.351-0.033,0.628,0.019,0.839c0.055,0.208,0.208,0.367,0.458,0.478
		c0.25,0.107,0.618,0.182,1.106,0.218c0.488,0.036,1.151,0.052,1.99,0.052c0.8,0,1.447-0.017,1.944-0.052
		c0.497-0.036,0.913-0.113,1.239-0.23c0.322-0.114,0.589-0.276,0.797-0.488c0.205-0.208,0.407-0.481,0.602-0.816l10.752-17.831
		h0.042l-1.986,17.831c-0.055,0.351-0.055,0.628,0,0.839c0.052,0.208,0.205,0.367,0.455,0.478c0.25,0.107,0.617,0.182,1.105,0.218
		c0.488,0.036,1.145,0.052,1.971,0.052c0.738,0,1.356-0.017,1.847-0.052c0.491-0.036,0.91-0.11,1.252-0.218
		c0.345-0.111,0.634-0.27,0.858-0.478c0.231-0.211,0.455-0.488,0.666-0.839l15.37-24.483c0.325-0.536,0.556-0.962,0.692-1.271
		c0.133-0.315,0.149-0.549,0.048-0.709c-0.104-0.159-0.321-0.257-0.663-0.293c-0.345-0.039-0.836-0.059-1.47-0.059
		c-0.683,0-1.22,0.02-1.61,0.059c-0.39,0.036-0.705,0.101-0.943,0.195c-0.234,0.094-0.422,0.224-0.553,0.39
		c-0.133,0.169-0.267,0.367-0.393,0.598l-12.755,21.485h-0.042l2.481-21.4c0.046-0.286,0.051-0.521,0.016-0.696
		c-0.039-0.169-0.152-0.305-0.344-0.4c-0.192-0.094-0.485-0.156-0.888-0.186c-0.406-0.029-0.952-0.045-1.648-0.045
		c-0.654,0-1.183,0.02-1.587,0.059c-0.406,0.036-0.738,0.101-0.995,0.195c-0.26,0.094-0.468,0.227-0.624,0.4
		c-0.159,0.176-0.315,0.404-0.475,0.673l-12.918,21.4h-0.023l2.907-21.55c0.059-0.276,0.077-0.488,0.058-0.641
		c-0.016-0.153-0.11-0.269-0.286-0.347c-0.176-0.081-0.455-0.13-0.845-0.153C32.625,353.473,32.091,353.46,31.408,353.46
		L31.408,353.46z M99.268,353.461c-0.553,0-1.018,0.022-1.395,0.065c-0.377,0.046-0.692,0.104-0.943,0.176
		c-0.25,0.072-0.445,0.166-0.581,0.283c-0.137,0.117-0.231,0.247-0.286,0.39l-9.67,26.573c-0.052,0.146-0.055,0.277,0,0.394
		c0.049,0.114,0.169,0.208,0.361,0.279c0.195,0.075,0.465,0.133,0.819,0.176c0.351,0.042,0.806,0.065,1.356,0.065
		c0.566,0,1.038-0.022,1.418-0.065c0.377-0.042,0.689-0.101,0.929-0.176c0.247-0.072,0.436-0.166,0.576-0.279
		c0.133-0.117,0.227-0.248,0.279-0.394l9.673-26.573c0.056-0.143,0.055-0.273,0.003-0.39c-0.052-0.117-0.175-0.212-0.367-0.283
		c-0.189-0.072-0.458-0.13-0.803-0.176C100.289,353.484,99.831,353.461,99.268,353.461L99.268,353.461z M-74.701,353.462
		c-0.566,0-1.037,0.023-1.417,0.066c-0.377,0.046-0.693,0.104-0.944,0.176c-0.25,0.072-0.442,0.165-0.569,0.283
		c-0.13,0.114-0.221,0.244-0.276,0.39l-6.226,17.115c-0.654,1.798-0.969,3.366-0.943,4.705c0.029,1.343,0.361,2.461,1.008,3.358
		c0.644,0.901,1.59,1.571,2.835,2.013c1.242,0.442,2.751,0.663,4.519,0.663c1.886,0,3.641-0.247,5.27-0.738
		c1.629-0.494,3.109-1.209,4.435-2.152c1.33-0.94,2.497-2.094,3.499-3.46c1.005-1.362,1.821-2.904,2.448-4.63l6.142-16.875
		c0.055-0.146,0.055-0.276,0.009-0.39c-0.042-0.117-0.159-0.211-0.351-0.283s-0.455-0.13-0.796-0.176
		c-0.338-0.042-0.784-0.066-1.337-0.066c-0.549,0-1.017,0.023-1.404,0.066c-0.384,0.046-0.696,0.104-0.944,0.176
		c-0.244,0.072-0.429,0.165-0.559,0.283c-0.13,0.114-0.218,0.244-0.273,0.39l-6.165,16.94c-0.358,0.985-0.816,1.866-1.363,2.643
		c-0.553,0.777-1.171,1.427-1.857,1.953c-0.686,0.53-1.433,0.93-2.246,1.21c-0.806,0.273-1.662,0.413-2.559,0.413
		c-0.888,0-1.639-0.133-2.26-0.403c-0.618-0.27-1.086-0.67-1.408-1.207c-0.319-0.536-0.468-1.213-0.445-2.035
		c0.023-0.816,0.237-1.785,0.644-2.903l6.048-16.612c0.052-0.146,0.052-0.276,0-0.39c-0.052-0.117-0.173-0.211-0.364-0.283
		c-0.192-0.072-0.462-0.13-0.806-0.176C-73.703,353.485-74.151,353.462-74.701,353.462L-74.701,353.462z M136.273,353.463
		c-0.566,0-1.037,0.022-1.417,0.065c-0.377,0.042-0.692,0.101-0.943,0.172c-0.25,0.075-0.443,0.169-0.573,0.283
		c-0.13,0.117-0.218,0.247-0.273,0.393l-6.226,17.112c-0.654,1.798-0.969,3.369-0.94,4.708c0.023,1.343,0.358,2.461,1.001,3.358
		c0.647,0.901,1.591,1.571,2.839,2.013c1.242,0.442,2.75,0.663,4.519,0.663c1.883,0,3.639-0.247,5.271-0.738
		c1.629-0.494,3.105-1.21,4.434-2.152s2.494-2.093,3.499-3.459c1.005-1.362,1.817-2.907,2.448-4.63l6.142-16.875
		c0.055-0.146,0.055-0.276,0.009-0.393c-0.046-0.114-0.159-0.209-0.35-0.283c-0.192-0.072-0.455-0.13-0.797-0.172
		c-0.338-0.042-0.787-0.065-1.336-0.065c-0.549,0-1.018,0.023-1.405,0.065c-0.384,0.042-0.696,0.101-0.943,0.172
		c-0.244,0.075-0.433,0.169-0.56,0.283c-0.13,0.117-0.218,0.247-0.273,0.393l-6.165,16.939c-0.361,0.985-0.816,1.866-1.363,2.643
		c-0.553,0.777-1.17,1.424-1.856,1.954c-0.686,0.53-1.434,0.93-2.247,1.207c-0.81,0.276-1.668,0.416-2.562,0.416
		c-0.884,0-1.635-0.136-2.256-0.403c-0.618-0.27-1.089-0.67-1.411-1.207c-0.319-0.536-0.469-1.216-0.443-2.035
		c0.02-0.816,0.237-1.785,0.644-2.903l6.044-16.611c0.055-0.146,0.052-0.276,0-0.393c-0.049-0.114-0.173-0.209-0.361-0.283
		c-0.192-0.072-0.462-0.13-0.806-0.172C137.271,353.485,136.822,353.463,136.273,353.463L136.273,353.463z M185.168,353.505
		c-0.523,0-0.956,0.02-1.307,0.055c-0.345,0.036-0.634,0.097-0.871,0.185c-0.234,0.088-0.416,0.189-0.543,0.303
		c-0.13,0.117-0.221,0.247-0.273,0.393l-4.809,13.2c-0.361,1.001-0.731,2.052-1.111,3.151c-0.38,1.102-0.735,2.162-1.057,3.176
		h-0.023c-0.052-0.582-0.103-1.16-0.172-1.739c-0.065-0.582-0.131-1.171-0.202-1.772c-0.072-0.605-0.156-1.203-0.247-1.804
		c-0.094-0.605-0.185-1.216-0.276-1.84l-1.736-10.285c-0.068-0.566-0.166-1.04-0.286-1.424c-0.124-0.384-0.293-0.683-0.507-0.901
		c-0.221-0.218-0.501-0.378-0.842-0.472c-0.341-0.094-0.79-0.14-1.339-0.14h-3.066c-0.579,0-1.131,0.172-1.655,0.51
		c-0.523,0.341-0.907,0.852-1.154,1.535l-9.205,25.289c-0.055,0.143-0.065,0.276-0.039,0.393c0.036,0.114,0.13,0.211,0.286,0.29
		c0.163,0.081,0.4,0.143,0.719,0.189c0.319,0.042,0.728,0.065,1.235,0.065c0.52,0,0.956-0.022,1.31-0.065
		c0.348-0.046,0.634-0.108,0.858-0.189c0.224-0.078,0.396-0.176,0.523-0.29c0.117-0.117,0.206-0.25,0.258-0.393l5.362-14.722
		c0.4-1.102,0.777-2.172,1.121-3.206c0.351-1.037,0.686-2.078,1.008-3.122h0.042c0.02,0.855,0.078,1.737,0.169,2.644
		c0.088,0.904,0.195,1.749,0.315,2.533l2.214,13.155c0.101,0.725,0.211,1.317,0.332,1.772c0.127,0.455,0.296,0.819,0.507,1.086
		c0.218,0.27,0.488,0.456,0.819,0.556c0.335,0.104,0.755,0.152,1.265,0.152h2.432c0.276,0,0.562-0.039,0.862-0.12
		c0.296-0.078,0.576-0.208,0.836-0.38c0.257-0.176,0.491-0.393,0.702-0.65c0.211-0.263,0.377-0.559,0.497-0.894l9.208-25.289
		c0.052-0.146,0.065-0.276,0.033-0.393c-0.029-0.114-0.12-0.215-0.27-0.303c-0.15-0.088-0.384-0.149-0.706-0.185
		C186.065,353.525,185.659,353.505,185.168,353.505L185.168,353.505z M-17.857,353.592c-0.481,0-0.933,0.14-1.366,0.423
		c-0.429,0.286-0.757,0.744-0.991,1.381l-8.928,24.528c-0.231,0.641-0.234,1.099-0.01,1.382c0.224,0.283,0.576,0.426,1.05,0.426
		h14.134c0.133,0,0.267-0.043,0.407-0.124c0.133-0.078,0.273-0.201,0.407-0.377c0.14-0.176,0.273-0.403,0.416-0.686
		c0.137-0.283,0.283-0.634,0.435-1.054c0.153-0.419,0.26-0.774,0.332-1.054c0.065-0.283,0.094-0.514,0.084-0.689
		c-0.007-0.172-0.055-0.299-0.133-0.38c-0.078-0.075-0.185-0.117-0.315-0.117h-10.131l2.887-7.937h8.503
		c0.13,0,0.263-0.035,0.4-0.11c0.133-0.072,0.267-0.192,0.4-0.358c0.133-0.166,0.269-0.386,0.403-0.663
		c0.14-0.276,0.283-0.625,0.435-1.044c0.15-0.406,0.257-0.751,0.322-1.034c0.068-0.28,0.094-0.504,0.081-0.673
		c-0.01-0.166-0.055-0.293-0.137-0.371c-0.081-0.078-0.182-0.12-0.315-0.12h-8.499l2.497-6.87h10.047
		c0.133,0,0.263-0.039,0.393-0.12c0.13-0.081,0.263-0.205,0.4-0.381c0.137-0.172,0.27-0.403,0.41-0.686
		c0.14-0.28,0.283-0.624,0.432-1.034c0.159-0.432,0.27-0.79,0.338-1.076c0.065-0.28,0.098-0.513,0.091-0.695
		c-0.01-0.179-0.048-0.305-0.126-0.377c-0.072-0.072-0.176-0.111-0.306-0.111H-17.857L-17.857,353.592z M5.74,353.592
		c-0.478,0-0.933,0.14-1.362,0.423c-0.429,0.286-0.761,0.744-0.992,1.381l-9.299,25.553c-0.052,0.146-0.059,0.276-0.013,0.39
		c0.046,0.117,0.162,0.211,0.357,0.283c0.189,0.072,0.462,0.133,0.816,0.176c0.351,0.042,0.803,0.065,1.356,0.065
		c0.562,0,1.038-0.022,1.415-0.065c0.38-0.042,0.692-0.104,0.933-0.176c0.244-0.072,0.435-0.165,0.572-0.283
		c0.133-0.114,0.231-0.244,0.283-0.39l3.901-10.723h1.786c0.605,0,1.108,0.094,1.505,0.286c0.393,0.189,0.703,0.465,0.924,0.836
		c0.221,0.371,0.373,0.829,0.464,1.382c0.091,0.549,0.156,1.18,0.205,1.892l0.234,6.282c-0.007,0.176,0.013,0.325,0.052,0.446
		c0.046,0.124,0.157,0.228,0.339,0.306c0.179,0.081,0.445,0.133,0.796,0.162c0.354,0.029,0.833,0.045,1.444,0.045
		c0.725,0,1.304-0.016,1.733-0.045c0.432-0.029,0.767-0.078,1.011-0.15c0.247-0.075,0.417-0.166,0.514-0.273
		c0.098-0.107,0.176-0.243,0.234-0.403c0.052-0.143,0.087-0.345,0.107-0.599c0.019-0.254,0.022-0.656,0.006-1.206l-0.354-5.544
		c-0.033-0.667-0.098-1.264-0.195-1.794c-0.094-0.527-0.234-1.002-0.41-1.415c-0.176-0.413-0.393-0.763-0.659-1.053
		c-0.263-0.293-0.566-0.537-0.917-0.738c0.972-0.276,1.879-0.641,2.724-1.089c0.845-0.449,1.609-0.978,2.295-1.59
		c0.686-0.608,1.288-1.297,1.811-2.074c0.52-0.774,0.952-1.633,1.297-2.575c0.406-1.118,0.598-2.106,0.582-2.971
		c-0.023-0.862-0.234-1.607-0.634-2.238c-0.4-0.631-0.982-1.141-1.75-1.531c-0.761-0.393-1.678-0.669-2.754-0.829
		c-0.374-0.042-0.793-0.078-1.264-0.108c-0.468-0.029-1.07-0.045-1.808-0.045H5.74L5.74,353.592z M74.445,353.592
		c-0.478,0-0.933,0.14-1.363,0.423c-0.429,0.286-0.761,0.744-0.992,1.381l-8.928,24.528c-0.231,0.641-0.237,1.099-0.016,1.382
		c0.228,0.283,0.579,0.426,1.057,0.426h14.134c0.133,0,0.267-0.043,0.403-0.124c0.14-0.078,0.273-0.201,0.407-0.377
		c0.143-0.176,0.279-0.403,0.416-0.686c0.14-0.283,0.286-0.634,0.439-1.054h0.001c0.153-0.419,0.263-0.774,0.331-1.054
		c0.062-0.283,0.095-0.514,0.082-0.689c-0.007-0.172-0.052-0.299-0.133-0.38c-0.078-0.075-0.185-0.117-0.315-0.117H69.834
		l2.888-7.937h8.502c0.133,0,0.263-0.035,0.4-0.11c0.137-0.072,0.27-0.192,0.403-0.358c0.133-0.166,0.267-0.386,0.403-0.663
		c0.137-0.276,0.283-0.625,0.435-1.044c0.146-0.406,0.253-0.751,0.318-1.034c0.068-0.28,0.097-0.504,0.084-0.673
		c-0.01-0.166-0.058-0.293-0.136-0.371c-0.081-0.078-0.186-0.12-0.316-0.12h-8.502l2.501-6.87h10.043c0.13,0,0.263-0.039,0.396-0.12
		c0.127-0.081,0.263-0.205,0.396-0.381c0.137-0.172,0.276-0.403,0.41-0.686c0.143-0.28,0.287-0.624,0.436-1.034
		c0.159-0.432,0.267-0.79,0.335-1.076c0.068-0.28,0.097-0.513,0.091-0.695c-0.007-0.179-0.049-0.305-0.123-0.377
		c-0.075-0.072-0.176-0.111-0.309-0.111H74.445L74.445,353.592z M-44.843,353.594c-0.478,0-0.933,0.14-1.363,0.423
		c-0.429,0.283-0.758,0.741-0.992,1.381l-8.928,24.528c-0.231,0.637-0.238,1.096-0.013,1.379c0.224,0.283,0.576,0.426,1.054,0.426
		h7.482c1.128,0,2.182-0.069,3.151-0.208c0.972-0.137,1.915-0.351,2.831-0.641s1.795-0.66,2.634-1.108
		c0.839-0.449,1.61-0.985,2.325-1.606c0.712-0.624,1.352-1.347,1.925-2.156c0.572-0.813,1.041-1.716,1.405-2.717
		c0.348-0.956,0.517-1.821,0.507-2.589c-0.013-0.767-0.163-1.437-0.456-2.009c-0.293-0.572-0.709-1.041-1.252-1.405
		c-0.543-0.361-1.183-0.618-1.928-0.761c0.706-0.231,1.372-0.537,1.996-0.914c0.624-0.377,1.19-0.812,1.704-1.303
		c0.51-0.494,0.962-1.041,1.356-1.642s0.712-1.242,0.962-1.925c0.445-1.216,0.611-2.277,0.504-3.174
		c-0.107-0.901-0.465-1.645-1.07-2.23c-0.605-0.589-1.453-1.027-2.546-1.317c-1.089-0.289-2.497-0.432-4.22-0.432
		C-37.775,353.594-44.843,353.594-44.843,353.594z M-42.486,357.876h2.891c0.884,0,1.561,0.081,2.032,0.24
		c0.471,0.159,0.825,0.387,1.066,0.686c0.241,0.296,0.364,0.67,0.374,1.118c0.01,0.452-0.085,0.956-0.29,1.522
		c-0.185,0.51-0.442,0.988-0.767,1.447c-0.328,0.455-0.715,0.855-1.167,1.196c-0.449,0.341-0.956,0.608-1.519,0.803
		c-0.566,0.195-1.259,0.296-2.088,0.296h-3.193C-45.146,365.185-42.486,357.876-42.486,357.876z M8.172,357.962h2.565
		c0.654,0,1.158,0.026,1.512,0.069c0.354,0.042,0.66,0.1,0.923,0.169c0.862,0.267,1.388,0.712,1.576,1.352
		c0.189,0.637,0.111,1.421-0.224,2.348c-0.224,0.608-0.523,1.161-0.907,1.652c-0.38,0.494-0.843,0.92-1.376,1.274
		c-0.536,0.354-1.141,0.627-1.824,0.826c-0.68,0.195-1.424,0.293-2.237,0.293H5.268L8.172,357.962z M-46.668,369.36h3.392
		c1.044,0,1.856,0.094,2.441,0.283c0.582,0.189,1.025,0.455,1.32,0.803c0.289,0.348,0.451,0.78,0.481,1.294
		c0.033,0.514-0.071,1.096-0.308,1.75c-0.228,0.628-0.54,1.18-0.94,1.665c-0.406,0.484-0.865,0.891-1.382,1.216
		c-0.517,0.328-1.079,0.572-1.684,0.741c-0.605,0.169-1.304,0.247-2.097,0.247h-4.132C-49.577,377.358-46.668,369.36-46.668,369.36z
		"/>
</g>
</svg>
