<?xml version="1.0" encoding="utf-8"?>
<!-- Generator: Adobe Illustrator 17.0.2, SVG Export Plug-In . SVG Version: 6.00 Build 0)  -->
<!DOCTYPE svg PUBLIC "-//W3C//DTD SVG 1.1//EN" "http://www.w3.org/Graphics/SVG/1.1/DTD/svg11.dtd">
<svg version="1.1" id="Layer_1" xmlns="http://www.w3.org/2000/svg" xmlns:xlink="http://www.w3.org/1999/xlink" x="0px" y="0px"
	 width="310px" height="100px" viewBox="0 0 310 100" enable-background="new 0 0 310 100" xml:space="preserve">
<path fill="#055198" d="M88.333,1.852L63.642,67.901l-2.469-13.58C55,38.272,43.889,23.457,26.605,14.198l22.222,84.568H75.37
	l39.506-96.914H88.333 M109.321,98.765l15.432-96.914h25.309L134.63,98.765H109.321 M224.753,4.321
	C219.815,2.469,211.79,0,202.531,0c-24.691,0-41.975,12.963-41.975,32.099c0,14.198,12.346,21.605,21.605,26.543
	c9.877,4.938,12.963,8.025,12.963,11.728c0,6.173-8.025,9.259-14.815,9.259c-9.877,0-15.432-1.235-23.457-4.938l-3.086-1.235
	l-3.704,21.605c5.556,2.469,16.667,4.938,27.778,4.938c26.543,0,43.21-12.963,43.21-33.333c0-11.111-6.79-19.136-20.988-26.543
	c-8.642-4.321-14.198-7.407-14.198-11.728s4.321-8.025,14.198-8.025c8.025,0,14.198,1.852,18.519,3.704l2.469,1.235L224.753,4.321"
	/>
<path fill="#055198" d="M288.951,1.852h-19.136c-6.173,0-10.494,1.852-12.963,8.025l-37.037,88.889h26.543
	c0,0,4.321-11.728,5.556-14.815h32.099c0.617,3.086,3.086,14.198,3.086,14.198h22.222L288.951,1.852 M258.086,64.198
	c1.852-5.556,9.877-27.16,9.877-27.16l3.086-9.259l1.852,8.642c0,0,4.938,22.84,5.556,27.778H258.086z"/>
<path fill="#F7A608" d="M41.42,1.852H0.679v1.852c31.481,8.025,51.852,27.778,60.494,51.235L52.531,9.877
	C51.296,3.704,46.358,1.852,41.42,1.852z"/>
</svg>
