<?xml version="1.0" encoding="UTF-8"?>
<svg width="24px" height="24px" viewBox="0 0 24 24" version="1.1" xmlns="http://www.w3.org/2000/svg" xmlns:xlink="http://www.w3.org/1999/xlink">
    <title>AEA4FBAB-E5CA-4A5A-9815-8F95E156775F@1x</title>
    <g id="Overviews" stroke="none" stroke-width="1" fill="none" fill-rule="evenodd">
        <g id="Font-Family" transform="translate(-249.000000, -735.000000)" fill="#1F2E3D">
            <g id="Combined-Shape" transform="translate(249.000000, 735.000000)">
                <path d="M12.6133481,0.210039414 L12.7090274,0.294819055 L23.7090274,11.3548191 C24.0984881,11.7464041 24.096766,12.3795667 23.7051809,12.7690274 C23.3437179,13.1285296 22.7764135,13.1547162 22.3849533,12.8486255 L22.2909726,12.7651809 L12.9999985,3.42399968 L13,23 C13,23.5522847 12.5522847,24 12,24 C11.4871642,24 11.0644928,23.6139598 11.0067277,23.1166211 L11,23 L10.9999985,3.49099968 L1.72264186,13.1912226 C1.37025565,13.5596264 0.803780657,13.5999511 0.404809619,13.303717 L0.308777354,13.2226419 C-0.0596264096,12.8702556 -0.0999511242,12.3037807 0.196283049,11.9048096 L0.277358143,11.8087774 L11.2773581,0.308777354 C11.6359745,-0.0661397912 12.2146985,-0.100352985 12.6133481,0.210039414 Z"></path>
            </g>
        </g>
    </g>
</svg>