<?xml version="1.0" encoding="UTF-8"?>
<svg width="24px" height="19px" viewBox="0 0 24 19" version="1.1" xmlns="http://www.w3.org/2000/svg" xmlns:xlink="http://www.w3.org/1999/xlink">
    <title>A105C559-934E-4019-A37E-7CE3FE8497E3@2x</title>
    <g id="Overviews" stroke="none" stroke-width="1" fill="none" fill-rule="evenodd">
        <g id="Font-Family" transform="translate(-349.000000, -518.000000)" fill="#344254">
            <g id="4_Icons/Default/Shopping-Paper-Bag" transform="translate(349.000000, 518.000000)">
                <path d="M11.5,15 C12.6045695,15 13.5,15.8954305 13.5,17 C13.5,18.1045695 12.6045695,19 11.5,19 C10.3954305,19 9.5,18.1045695 9.5,17 C9.5,15.8954305 10.3954305,15 11.5,15 Z M18.5,15 C19.6045695,15 20.5,15.8954305 20.5,17 C20.5,18.1045695 19.6045695,19 18.5,19 C17.3954305,19 16.5,18.1045695 16.5,17 C16.5,15.8954305 17.3954305,15 18.5,15 Z M6.16827831,0 L9.101,11 L20.855,11 L22.0715233,7.96194266 C22.2619858,7.48578653 22.7773913,7.23671779 23.2606121,7.36779119 L23.3713907,7.40485664 C23.8475468,7.59531909 24.0966155,8.1107246 23.9655421,8.5939454 L23.9284767,8.70472401 L22.2103663,13 L7.56505502,13 L4.631,2 L1,2 C0.487164161,2 0.0644928393,1.61395981 0.00672773133,1.11662113 L1.95399252e-14,1 C1.95399252e-14,0.487164161 0.38604019,0.0644928393 0.883378875,0.00672773133 L1,0 L6.16827831,0 Z" id="Combined-Shape"></path>
            </g>
        </g>
    </g>
</svg>