<?xml version="1.0" encoding="UTF-8"?>
<svg width="11px" height="10px" viewBox="0 0 11 10" version="1.1" xmlns="http://www.w3.org/2000/svg" xmlns:xlink="http://www.w3.org/1999/xlink">
    <title>C56A0439-169D-4AB6-95B1-3031A8CBDE87@1x</title>
    <defs>
        <path d="M13.6047375,3.17443332 C13.2047375,2.87443332 12.5047375,2.97443332 12.2047375,3.37443332 L6.80473751,10.5744333 L4.7,8.9 C4.3,8.6 3.6,8.6 3.3,9.1 C3,9.5 3,10.2 3.5,10.5 L6.40473751,12.7744333 C6.50473751,12.7744333 6.50473751,12.8744333 6.60473751,12.8744333 C6.60473751,12.8744333 6.70473751,12.8744333 6.70473751,12.9744333 L7.00473751,12.9744333 C7.10473751,12.9744333 7.30473751,12.9744333 7.40473751,12.8744333 L7.50473751,12.7744333 C7.60473751,12.6744333 7.70473751,12.6744333 7.70473751,12.5744333 L13.7047375,4.57443332 C14.1047375,4.17443332 14.0047375,3.47443332 13.6047375,3.17443332 Z" id="path-1"></path>
    </defs>
    <g id="Overviews" stroke="none" stroke-width="1" fill="none" fill-rule="evenodd">
        <g id="Font-Family" transform="translate(-376.000000, -682.000000)">
            <g id="Group" transform="translate(373.000000, 679.000000)">
                <mask id="mask-2" fill="white">
                    <use xlink:href="#path-1"></use>
                </mask>
                <use id="Shape" fill="#1F2E3D" xlink:href="#path-1"></use>
            </g>
        </g>
    </g>
</svg>