<?xml version="1.0" encoding="UTF-8"?>
<svg width="14px" height="14px" viewBox="0 0 14 14" version="1.1" xmlns="http://www.w3.org/2000/svg" xmlns:xlink="http://www.w3.org/1999/xlink">
    <title>ED711BBA-4336-479F-9BED-A201DD8FE0A1@1x</title>
    <g id="Overviews" stroke="none" stroke-width="1" fill="none" fill-rule="evenodd">
        <g id="Font-Family" transform="translate(-728.000000, -680.000000)" fill="#1F2E3D" fill-rule="nonzero">
            <g id="Combined-Shape" transform="translate(721.000000, 673.000000)">
                <path d="M7.38892263,7.21152321 C7.7827103,6.9044257 8.34565739,6.93251108 8.70376133,7.29061501 L8.70376133,7.29061501 L13.658,12.245 L18.6125933,7.29061501 C18.9706973,6.93251108 19.5336444,6.9044257 19.927432,7.21152321 L20.0221384,7.29528356 C20.4126627,7.68580785 20.4146206,8.31701488 20.0268069,8.70482858 L15.072,13.659 L20.0268069,18.6136606 C20.3847888,18.9716425 20.4106575,19.5370128 20.1053612,19.9290325 L20.0221384,20.0232056 L19.927432,20.106966 C19.5336444,20.4140635 18.9706973,20.3859781 18.6125933,20.0278742 L18.6125933,20.0278742 L13.658,15.073 L8.70376133,20.0278742 C8.34565739,20.3859781 7.7827103,20.4140635 7.38892263,20.106966 L7.29421631,20.0232056 C6.90369202,19.6326813 6.90173406,19.0014743 7.28954776,18.6136606 L12.244,13.659 L7.28954776,8.70482858 C6.93156589,8.3468467 6.90569713,7.78147643 7.21099349,7.38945669 L7.29421631,7.29528356 Z"></path>
            </g>
        </g>
    </g>
</svg>