<svg width="220" height="209" xmlns="http://www.w3.org/2000/svg">
    <g transform="translate(3 1)" fill="none" fill-rule="evenodd">
        <path d="M168.487 198.374H36.11a12.109 12.109 0 01-11.962-10.224l-13.682-86.84H194.13l-13.683 86.84a12.108 12.108 0 01-11.961 10.224"
              fill="#FFF"/>
        <path d="M168.487 198.374H36.11a12.109 12.109 0 01-11.962-10.224l-13.682-86.84H194.13l-13.683 86.84a12.108 12.108 0 01-11.961 10.224z"
              stroke="#C4C4C4" stroke-width="1.6" stroke-linecap="round"/>
        <path d="M13.315 124.356h159.36c3.867 0 7 3.496 7 7.81v45.101l11.887-70h-181l2.753 17.09z" fill="#CFD2D5"/>
        <path d="M168.487 198.374H36.11a12.109 12.109 0 01-11.962-10.224l-13.682-86.84H194.13l-13.683 86.84a12.108 12.108 0 01-11.961 10.224z"
              stroke="#1F2E3D" stroke-width="5" stroke-linecap="round"/>
        <path d="M193.403 110.474H11.193C5.013 110.474 0 105.462 0 99.281c0-6.182 5.012-11.194 11.194-11.194h182.209c6.182 0 11.193 5.012 11.193 11.194 0 6.181-5.011 11.193-11.193 11.193"
              fill="#FFF"/>
        <path d="M193.403 110.474H11.193C5.013 110.474 0 105.462 0 99.281c0-6.182 5.012-11.194 11.194-11.194h182.209c6.182 0 11.193 5.012 11.193 11.194 0 6.181-5.011 11.193-11.193 11.193z"
              stroke="#1F2E3D" stroke-width="4" stroke-linecap="round"/>
        <rect fill="#CFD2D5" x="134" y="131" width="14" height="47" rx="7"/>
        <rect fill="#CFD2D5" x="97" y="131" width="14" height="47" rx="7"/>
        <rect fill="#CFD2D5" x="60" y="131" width="14" height="47" rx="7"/>
        <path d="M216.753 98.739a7.236 7.236 0 01-7.184 7.285l-107.701.752a7.236 7.236 0 01-.102-14.469l107.701-.752a7.234 7.234 0 017.286 7.184"
              fill="#B2BCD2"/>
        <path d="M216.753 98.739a7.236 7.236 0 01-7.184 7.285l-107.701.752a7.236 7.236 0 01-.102-14.469l107.701-.752a7.234 7.234 0 017.286 7.184z"
              fill="#1F2E3D"/>
        <path d="M106.826 99.28a3.278 3.278 0 11-6.555 0 3.278 3.278 0 016.555 0" fill="#FFF"/>
        <path d="M106.826 99.28a3.278 3.278 0 11-6.555 0 3.278 3.278 0 016.555 0z"/>
        <path d="M103.421 49.447a2.903 2.903 0 01-2.903-2.903V2.903a2.903 2.903 0 015.806 0v43.641c0 1.604-1.3 2.903-2.903 2.903"
              fill="#F3F3F3"/>
        <path d="M103.421 49.447a2.903 2.903 0 01-2.903-2.903V2.903a2.903 2.903 0 015.806 0v43.641c0 1.604-1.3 2.903-2.903 2.903z"
              stroke="#CFD2D5" stroke-width="2" fill="#CFD2D5" stroke-linecap="round"/>
        <path d="M76.83 52.718a2.903 2.903 0 001.266-3.905L60.352 14.054a2.902 2.902 0 10-5.17 2.639l17.743 34.76a2.903 2.903 0 003.905 1.265"
              fill="#F3F3F3"/>
        <path d="M76.83 52.718a2.903 2.903 0 001.266-3.905L60.352 14.054a2.902 2.902 0 10-5.17 2.639l17.743 34.76a2.903 2.903 0 003.905 1.265z"
              stroke="#CFD2D5" stroke-width="2" fill="#CFD2D5" stroke-linecap="round"/>
        <path d="M130.012 52.718a2.903 2.903 0 01-1.266-3.905l17.744-34.759a2.902 2.902 0 115.17 2.639l-17.743 34.76a2.903 2.903 0 01-3.905 1.265"
              fill="#F3F3F3"/>
        <path d="M130.012 52.718a2.903 2.903 0 01-1.266-3.905l17.744-34.759a2.902 2.902 0 115.17 2.639l-17.743 34.76a2.903 2.903 0 01-3.905 1.265z"
              stroke="#CFD2D5" stroke-width="2" fill="#CFD2D5" stroke-linecap="round"/>
        <path stroke="#CFD2D5" stroke-width="7" stroke-linecap="round" d="M.813 204.04h204.596"/>
    </g>
</svg>
