<?xml version="1.0" encoding="UTF-8"?>
<svg width="18px" height="18px" viewBox="0 0 18 18" version="1.1" xmlns="http://www.w3.org/2000/svg" xmlns:xlink="http://www.w3.org/1999/xlink">
    <title>C9A2BD99-91D3-4B4E-83A5-780813A01ADC@1x</title>
    <g id="Overviews" stroke="none" stroke-width="1" fill="none" fill-rule="evenodd">
        <g id="Font-Family" transform="translate(-291.000000, -995.000000)" fill="#F17662">
            <path d="M309,1004.055 C309,999.054059 304.970566,995 300,995 C295.029434,995 291,999.054059 291,1004.055 C291,1008.57462 294.29117,1012.3207 298.59375,1013 L298.59375,1006.67246 L296.308594,1006.67246 L296.308594,1004.055 L298.59375,1004.055 L298.59375,1002.06007 C298.59375,999.790662 299.937387,998.53711 301.993184,998.53711 C302.977857,998.53711 304.007812,998.713966 304.007812,998.713966 L304.007812,1000.94235 L302.872934,1000.94235 C301.754912,1000.94235 301.40625,1001.64034 301.40625,1002.35643 L301.40625,1004.055 L303.902344,1004.055 L303.50332,1006.67246 L301.40625,1006.67246 L301.40625,1013 C305.70883,1012.3207 309,1008.57462 309,1004.055" id="Fill-1"></path>
        </g>
    </g>
</svg>