<?xml version="1.0" encoding="UTF-8"?>
<svg width="24px" height="20px" viewBox="0 0 24 20" version="1.1" xmlns="http://www.w3.org/2000/svg" xmlns:xlink="http://www.w3.org/1999/xlink">
    <title>302F36A4-3DCF-442C-AEC9-BA8927150D77@1x</title>
    <g id="Overviews" stroke="none" stroke-width="1" fill="none" fill-rule="evenodd">
        <g id="Font-Family" transform="translate(-245.000000, -515.000000)" fill="#1F2E3D">
            <g id="4_Icons/Default/Search" transform="translate(245.000000, 513.000000)">
                <path d="M20.0138769,12.2998316 C21.8363235,10.477385 21.8363235,7.52261505 20.0138769,5.70016835 C18.1914302,3.87772166 15.2366603,3.87772166 13.4142136,5.70016835 L12,7.11438192 L10.5857864,5.70016835 C8.76333974,3.87772166 5.80856984,3.87772166 3.98612315,5.70016835 C2.16367645,7.52261505 2.16367645,10.477385 3.98612315,12.2998316 L11.5050253,19.8187338 C11.7783923,20.0921008 12.2216077,20.0921008 12.4949747,19.8187338 L20.0138769,12.2998316 Z M21.4280904,13.7140452 L13.9091883,21.2329474 C12.8547727,22.2873629 11.1452273,22.2873629 10.0908117,21.2329474 L2.57190958,13.7140452 C-0.031585694,11.1105499 -0.031585694,6.88945007 2.57190958,4.28595479 C5.17540486,1.68245951 9.39650472,1.68245951 12,4.28595479 C14.6034953,1.68245951 18.8245951,1.68245951 21.4280904,4.28595479 C24.0315857,6.88945007 24.0315857,11.1105499 21.4280904,13.7140452 Z" id="Icon"></path>
            </g>
        </g>
    </g>
</svg>