<?xml version="1.0" encoding="UTF-8"?>
<svg width="18px" height="18px" viewBox="0 0 18 18" version="1.1" xmlns="http://www.w3.org/2000/svg" xmlns:xlink="http://www.w3.org/1999/xlink">
    <title>Path</title>
    <g id="Welcome" stroke="none" stroke-width="1" fill="none" fill-rule="evenodd">
        <g id="Font-Family" transform="translate(-337.000000, -1107.000000)" fill="#F17662" fill-rule="nonzero">
            <path d="M346.007393,1107 C341.03294,1107 337,1111.02632 337,1115.9926 C337,1119.80428 339.372318,1123.06086 342.723216,1124.37089 C342.641668,1123.66036 342.574946,1122.56497 342.75287,1121.78783 C342.915967,1121.0847 343.805586,1117.31743 343.805586,1117.31743 C343.805586,1117.31743 343.5387,1116.77714 343.5387,1115.9852 C343.5387,1114.73438 344.265222,1113.80181 345.169668,1113.80181 C345.940672,1113.80181 346.311346,1114.37911 346.311346,1115.06743 C346.311346,1115.83717 345.822056,1116.99178 345.562584,1118.06497 C345.347592,1118.96053 346.014807,1119.69326 346.897012,1119.69326 C348.498327,1119.69326 349.728966,1118.00576 349.728966,1115.57812 C349.728966,1113.42434 348.179546,1111.92188 345.962912,1111.92188 C343.397844,1111.92188 341.892905,1113.83882 341.892905,1115.82237 C341.892905,1116.59211 342.189445,1117.42105 342.560119,1117.87253 C342.634254,1117.96135 342.641668,1118.04276 342.619427,1118.13158 C342.552706,1118.41283 342.397022,1119.02714 342.367368,1119.15296 C342.330301,1119.31579 342.233926,1119.3528 342.063415,1119.27138 C340.936564,1118.74589 340.232283,1117.1102 340.232283,1115.78536 C340.232283,1112.95066 342.293233,1110.34539 346.185317,1110.34539 C349.306397,1110.34539 351.738023,1112.56579 351.738023,1115.54112 C351.738023,1118.64227 349.780861,1121.13651 347.067523,1121.13651 C346.155663,1121.13651 345.295698,1120.66283 345.006572,1120.10033 C345.006572,1120.10033 344.554349,1121.81743 344.443146,1122.23931 C344.242982,1123.02385 343.694384,1124.00082 343.323709,1124.60033 C344.168847,1124.85938 345.058466,1125 345.992566,1125 C350.967019,1125 355,1120.97368 355,1116.0074 C355.014786,1111.02632 350.981846,1107 346.007393,1107 Z" id="Path"></path>
        </g>
    </g>
</svg>