<?xml version="1.0" encoding="UTF-8"?>
<svg width="18px" height="18px" viewBox="0 0 18 18" version="1.1" xmlns="http://www.w3.org/2000/svg" xmlns:xlink="http://www.w3.org/1999/xlink">
    <title>6C2006E1-56C0-431B-AE30-8A61D97F2A8B@1x</title>
    <g id="Overviews" stroke="none" stroke-width="1" fill="none" fill-rule="evenodd">
        <g id="Font-Family" transform="translate(-245.000000, -995.000000)" fill="#F17662">
            <path d="M254.986498,995.00082 C255.984014,995.00283 256.486217,995.008874 256.928872,995.022555 L257.116207,995.028896 C257.302436,995.035726 257.489163,995.044052 257.710688,995.05416 C258.668634,995.097852 259.322876,995.250007 259.895342,995.472506 C260.487172,995.702472 260.98908,996.010212 261.489452,996.510548 C261.989788,997.01092 262.297528,997.512828 262.52753,998.104658 C262.749993,998.677124 262.902148,999.331366 262.94584,1000.28931 C262.955948,1000.51084 262.964274,1000.69756 262.971104,1000.88379 L262.977445,1001.07113 C262.991126,1001.51379 262.99717,1002.01599 262.99918,1003.01352 L262.999953,1003.72731 L262.999953,1003.72731 L263,1004.00002 C263,1004.09403 262.999985,1004.18487 262.999953,1004.27272 L262.99918,1004.9865 C262.99717,1005.98401 262.991126,1006.48622 262.977445,1006.92887 L262.971104,1007.11621 C262.964274,1007.30244 262.955948,1007.48916 262.94584,1007.71069 C262.902148,1008.66863 262.749993,1009.32288 262.52753,1009.89534 C262.297528,1010.48717 261.989788,1010.98908 261.489452,1011.48945 C260.98908,1011.98979 260.487172,1012.29753 259.895342,1012.52753 C259.322876,1012.74999 258.668634,1012.90215 257.710688,1012.94584 C257.489163,1012.95595 257.302436,1012.96427 257.116207,1012.9711 L256.928872,1012.97745 C256.486217,1012.99113 255.984014,1012.99717 254.986498,1012.99918 L254.272717,1012.99995 L254.272717,1012.99995 L254.000018,1013 C253.906007,1013 253.815159,1012.99998 253.727315,1012.99995 L253.013524,1012.99918 C252.015993,1012.99717 251.513786,1012.99113 251.071129,1012.97745 L250.883794,1012.9711 C250.697564,1012.96427 250.510837,1012.95595 250.289312,1012.94584 C249.331366,1012.90215 248.677124,1012.74999 248.104658,1012.52753 C247.512828,1012.29753 247.01092,1011.98979 246.510548,1011.48945 C246.010212,1010.98908 245.702472,1010.48717 245.472506,1009.89534 C245.250007,1009.32288 245.097852,1008.66863 245.05416,1007.71069 C245.044052,1007.48916 245.035726,1007.30244 245.028896,1007.11621 L245.022555,1006.92887 C245.008874,1006.48622 245.00283,1005.98401 245.00082,1004.9865 L245.00082,1003.01352 C245.00283,1002.01599 245.008874,1001.51379 245.022555,1001.07113 L245.028896,1000.88379 C245.035726,1000.69756 245.044052,1000.51084 245.05416,1000.28931 C245.097852,999.331366 245.250007,998.677124 245.472506,998.104658 C245.702472,997.512828 246.010212,997.01092 246.510548,996.510548 C247.01092,996.010212 247.512828,995.702472 248.104658,995.472506 C248.677124,995.250007 249.331366,995.097852 250.289312,995.05416 C250.510837,995.044052 250.697564,995.035726 250.883794,995.028896 L251.071129,995.022555 C251.513786,995.008874 252.015993,995.00283 253.013524,995.00082 Z M254.537508,996.621808 L253.46252,996.621808 C253.379241,996.621873 253.298995,996.621956 253.221605,996.622058 L252.790101,996.62292 C251.456464,996.626656 251.122439,996.63946 250.363228,996.6741 C249.485737,996.714112 249.009193,996.86073 248.692058,996.983983 C248.271961,997.147249 247.972152,997.342275 247.657231,997.657231 C247.342275,997.972152 247.147249,998.271961 246.983983,998.692058 C246.86073,999.009193 246.714112,999.485737 246.6741,1000.36323 C246.63946,1001.12244 246.626656,1001.45646 246.62292,1002.7901 L246.622058,1003.2216 C246.621956,1003.299 246.621873,1003.37924 246.621808,1003.46252 L246.621808,1004.53751 C246.621873,1004.62079 246.621956,1004.70103 246.622058,1004.77842 L246.62292,1005.20992 C246.626656,1006.54354 246.63946,1006.87756 246.6741,1007.63677 C246.714112,1008.51426 246.86073,1008.99081 246.983983,1009.30794 C247.147249,1009.72804 247.34231,1010.02785 247.657231,1010.34277 C247.972152,1010.65773 248.271961,1010.85275 248.692058,1011.01602 C249.009193,1011.13927 249.485737,1011.28589 250.363228,1011.3259 C251.122353,1011.36054 251.456315,1011.37334 252.790022,1011.37708 L253.221551,1011.37794 C253.298946,1011.37804 253.379197,1011.37813 253.462482,1011.37819 L254.537547,1011.37819 C254.62083,1011.37813 254.70108,1011.37804 254.778475,1011.37794 L255.21,1011.37708 C256.543696,1011.37334 256.877676,1011.36054 257.636772,1011.3259 C258.514263,1011.28589 258.990807,1011.13927 259.307942,1011.01602 C259.728039,1010.85275 260.027848,1010.65773 260.342769,1010.34277 C260.657725,1010.02785 260.852751,1009.72804 261.016017,1009.30794 C261.13927,1008.99081 261.285888,1008.51426 261.3259,1007.63677 C261.36054,1006.87756 261.373344,1006.54354 261.37708,1005.20992 L261.377942,1004.77842 C261.378044,1004.70103 261.378127,1004.62079 261.378192,1004.53751 L261.378192,1003.46252 C261.378127,1003.37924 261.378044,1003.299 261.377942,1003.2216 L261.37708,1002.7901 C261.373344,1001.45646 261.36054,1001.12244 261.3259,1000.36323 C261.285888,999.485737 261.13927,999.009193 261.016017,998.692058 C260.852751,998.271961 260.657725,997.972152 260.342769,997.657231 C260.027848,997.342275 259.728039,997.147249 259.307942,996.983983 C258.990807,996.86073 258.514263,996.714112 257.636772,996.6741 C256.877561,996.63946 256.543536,996.626656 255.209918,996.62292 L254.778419,996.622058 C254.70103,996.621956 254.620786,996.621873 254.537508,996.621808 Z M254.000017,999.5 C256.485297,999.5 258.5,1001.5147 258.5,1004.00002 C258.5,1006.4853 256.485297,1008.5 254.000017,1008.5 C251.514703,1008.5 249.5,1006.4853 249.5,1004.00002 C249.5,1001.5147 251.514703,999.5 254.000017,999.5 Z M254.000017,1001.07895 C252.386739,1001.07895 251.078946,1002.38674 251.078946,1004.00002 C251.078946,1005.61326 252.386739,1006.92105 254.000017,1006.92105 C255.613261,1006.92105 256.921054,1005.61326 256.921054,1004.00002 C256.921054,1002.38674 255.613261,1001.07895 254.000017,1001.07895 Z M258.821413,998.214286 C259.353978,998.214286 259.785714,998.646022 259.785714,999.178587 C259.785714,999.711153 259.353978,1000.14286 258.821413,1000.14286 C258.288879,1000.14286 257.857143,999.711153 257.857143,999.178587 C257.857143,998.646022 258.288879,998.214286 258.821413,998.214286 Z" id="Combined-Shape"></path>
        </g>
    </g>
</svg>